<svg viewBox="0 0 330 200" xmlns="http://www.w3.org/2000/svg"><g><g><g><g><g><line x1="61.91500186920166" y1="176.89999961853027" x2="56.91500186920166" y2="176.89999961853027" style="visibility: inherit;" fill="rgb(0, 0, 0)" stroke="rgb(204, 204, 204)" stroke-width="1px"></line><line x1="61.91500186920166" y1="164.26428536006384" x2="56.91500186920166" y2="164.26428536006384" style="visibility: inherit;" fill="rgb(0, 0, 0)" stroke="rgb(204, 204, 204)" stroke-width="1px"></line><line x1="61.91500186920166" y1="151.6285711015974" x2="56.91500186920166" y2="151.6285711015974" style="visibility: inherit;" fill="rgb(0, 0, 0)" stroke="rgb(204, 204, 204)" stroke-width="1px"></line><line x1="61.91500186920166" y1="138.99285684313094" x2="56.91500186920166" y2="138.99285684313094" style="visibility: inherit;" fill="rgb(0, 0, 0)" stroke="rgb(204, 204, 204)" stroke-width="1px"></line><line x1="61.91500186920166" y1="126.3571425846645" x2="56.91500186920166" y2="126.3571425846645" style="visibility: inherit;" fill="rgb(0, 0, 0)" stroke="rgb(204, 204, 204)" stroke-width="1px"></line><line x1="61.91500186920166" y1="113.72142832619807" x2="56.91500186920166" y2="113.72142832619807" style="visibility: inherit;" fill="rgb(0, 0, 0)" stroke="rgb(204, 204, 204)" stroke-width="1px"></line><line x1="61.91500186920166" y1="101.0857140677316" x2="56.91500186920166" y2="101.0857140677316" style="visibility: inherit;" fill="rgb(0, 0, 0)" stroke="rgb(204, 204, 204)" stroke-width="1px"></line><line x1="61.91500186920166" y1="88.44999980926514" x2="56.91500186920166" y2="88.44999980926514" style="visibility: inherit;" fill="rgb(0, 0, 0)" stroke="rgb(204, 204, 204)" stroke-width="1px"></line><line x1="61.91500186920166" y1="75.81428555079867" x2="56.91500186920166" y2="75.81428555079867" style="visibility: inherit;" fill="rgb(0, 0, 0)" stroke="rgb(204, 204, 204)" stroke-width="1px"></line><line x1="61.91500186920166" y1="63.17857129233229" x2="56.91500186920166" y2="63.17857129233229" style="visibility: inherit;" fill="rgb(0, 0, 0)" stroke="rgb(204, 204, 204)" stroke-width="1px"></line><line x1="61.91500186920166" y1="50.54285703386583" x2="56.91500186920166" y2="50.54285703386583" style="visibility: inherit;" fill="rgb(0, 0, 0)" stroke="rgb(204, 204, 204)" stroke-width="1px"></line><line x1="61.91500186920166" y1="37.907142775399365" x2="56.91500186920166" y2="37.907142775399365" style="visibility: inherit;" fill="rgb(0, 0, 0)" stroke="rgb(204, 204, 204)" stroke-width="1px"></line><line x1="61.91500186920166" y1="25.271428516932925" x2="56.91500186920166" y2="25.271428516932925" style="visibility: inherit;" fill="rgb(0, 0, 0)" stroke="rgb(204, 204, 204)" stroke-width="1px"></line><line x1="61.91500186920166" y1="12.635714258466463" x2="56.91500186920166" y2="12.635714258466463" style="visibility: inherit;" fill="rgb(0, 0, 0)" stroke="rgb(204, 204, 204)" stroke-width="1px"></line><line x1="61.91500186920166" y1="0" x2="56.91500186920166" y2="0" style="visibility: inherit;" fill="rgb(0, 0, 0)" stroke="rgb(204, 204, 204)" stroke-width="1px"></line></g><g transform="translate(51.91500186920166, 0)"><text style="text-anchor: end; visibility: hidden; font-family: Roboto, sans-serif; font-size: 12px; font-weight: 200;" x="0" y="176.89999961853027" dx="0em" dy="0.3em" fill="rgb(255, 255, 255)" stroke="none" stroke-width="1px">0.1</text><text style="text-anchor: end; visibility: inherit; font-family: Roboto, sans-serif; font-size: 12px; font-weight: 200;" x="0" y="164.26428536006384" dx="0em" dy="0.3em" fill="rgb(255, 255, 255)" stroke="none" stroke-width="1px">0.105</text><text style="text-anchor: end; visibility: hidden; font-family: Roboto, sans-serif; font-size: 12px; font-weight: 200;" x="0" y="151.6285711015974" dx="0em" dy="0.3em" fill="rgb(255, 255, 255)" stroke="none" stroke-width="1px">0.11</text><text style="text-anchor: end; visibility: inherit; font-family: Roboto, sans-serif; font-size: 12px; font-weight: 200;" x="0" y="138.99285684313094" dx="0em" dy="0.3em" fill="rgb(255, 255, 255)" stroke="none" stroke-width="1px">0.115</text><text style="text-anchor: end; visibility: hidden; font-family: Roboto, sans-serif; font-size: 12px; font-weight: 200;" x="0" y="126.3571425846645" dx="0em" dy="0.3em" fill="rgb(255, 255, 255)" stroke="none" stroke-width="1px">0.12</text><text style="text-anchor: end; visibility: inherit; font-family: Roboto, sans-serif; font-size: 12px; font-weight: 200;" x="0" y="113.72142832619807" dx="0em" dy="0.3em" fill="rgb(255, 255, 255)" stroke="none" stroke-width="1px">0.125</text><text style="text-anchor: end; visibility: hidden; font-family: Roboto, sans-serif; font-size: 12px; font-weight: 200;" x="0" y="101.0857140677316" dx="0em" dy="0.3em" fill="rgb(255, 255, 255)" stroke="none" stroke-width="1px">0.13</text><text style="text-anchor: end; visibility: inherit; font-family: Roboto, sans-serif; font-size: 12px; font-weight: 200;" x="0" y="88.44999980926514" dx="0em" dy="0.3em" fill="rgb(255, 255, 255)" stroke="none" stroke-width="1px">0.135</text><text style="text-anchor: end; visibility: hidden; font-family: Roboto, sans-serif; font-size: 12px; font-weight: 200;" x="0" y="75.81428555079867" dx="0em" dy="0.3em" fill="rgb(255, 255, 255)" stroke="none" stroke-width="1px">0.14</text><text style="text-anchor: end; visibility: inherit; font-family: Roboto, sans-serif; font-size: 12px; font-weight: 200;" x="0" y="63.17857129233229" dx="0em" dy="0.3em" fill="rgb(255, 255, 255)" stroke="none" stroke-width="1px">0.145</text><text style="text-anchor: end; visibility: hidden; font-family: Roboto, sans-serif; font-size: 12px; font-weight: 200;" x="0" y="50.54285703386583" dx="0em" dy="0.3em" fill="rgb(255, 255, 255)" stroke="none" stroke-width="1px">0.15</text><text style="text-anchor: end; visibility: inherit; font-family: Roboto, sans-serif; font-size: 12px; font-weight: 200;" x="0" y="37.907142775399365" dx="0em" dy="0.3em" fill="rgb(255, 255, 255)" stroke="none" stroke-width="1px">0.155</text><text style="text-anchor: end; visibility: hidden; font-family: Roboto, sans-serif; font-size: 12px; font-weight: 200;" x="0" y="25.271428516932925" dx="0em" dy="0.3em" fill="rgb(255, 255, 255)" stroke="none" stroke-width="1px">0.16</text><text style="text-anchor: end; visibility: inherit; font-family: Roboto, sans-serif; font-size: 12px; font-weight: 200;" x="0" y="12.635714258466463" dx="0em" dy="0.3em" fill="rgb(255, 255, 255)" stroke="none" stroke-width="1px">0.165</text><text style="text-anchor: end; visibility: hidden; font-family: Roboto, sans-serif; font-size: 12px; font-weight: 200;" x="0" y="0" dx="0em" dy="0.3em" fill="rgb(255, 255, 255)" stroke="none" stroke-width="1px">0.17</text></g><line x1="61.91500186920166" y1="0" x2="61.91500186920166" y2="176.89999961853027" fill="rgb(0, 0, 0)" stroke="rgb(204, 204, 204)" stroke-width="1px"></line></g></g><g transform="translate(61, 0)" clip-path="url(#clip_0)"><clipPath id="clip_0"><rect width="268" height="176"></rect></clipPath><g><g><g><line x1="0" y1="0" x2="0" y2="176.89999961853027" fill="rgb(0, 0, 0)" stroke="rgb(189, 189, 189)" stroke-width="1px" opacity="0.25"></line><line x1="22.34041651089986" y1="0" x2="22.34041651089986" y2="176.89999961853027" fill="rgb(0, 0, 0)" stroke="rgb(189, 189, 189)" stroke-width="1px" opacity="0.25"></line><line x1="44.68083302179972" y1="0" x2="44.68083302179972" y2="176.89999961853027" fill="rgb(0, 0, 0)" stroke="rgb(189, 189, 189)" stroke-width="1px" opacity="0.25"></line><line x1="67.02124953269958" y1="0" x2="67.02124953269958" y2="176.89999961853027" fill="rgb(0, 0, 0)" stroke="rgb(189, 189, 189)" stroke-width="1px" opacity="0.25"></line><line x1="89.36166604359944" y1="0" x2="89.36166604359944" y2="176.89999961853027" fill="rgb(0, 0, 0)" stroke="rgb(189, 189, 189)" stroke-width="1px" opacity="0.25"></line><line x1="111.70208255449931" y1="0" x2="111.70208255449931" y2="176.89999961853027" fill="rgb(0, 0, 0)" stroke="rgb(189, 189, 189)" stroke-width="1px" opacity="0.25"></line><line x1="134.04249906539917" y1="0" x2="134.04249906539917" y2="176.89999961853027" fill="rgb(0, 0, 0)" stroke="rgb(189, 189, 189)" stroke-width="1px" opacity="0.25"></line><line x1="156.38291557629904" y1="0" x2="156.38291557629904" y2="176.89999961853027" fill="rgb(0, 0, 0)" stroke="rgb(189, 189, 189)" stroke-width="1px" opacity="0.25"></line><line x1="178.72333208719888" y1="0" x2="178.72333208719888" y2="176.89999961853027" fill="rgb(0, 0, 0)" stroke="rgb(189, 189, 189)" stroke-width="1px" opacity="0.25"></line><line x1="201.06374859809875" y1="0" x2="201.06374859809875" y2="176.89999961853027" fill="rgb(0, 0, 0)" stroke="rgb(189, 189, 189)" stroke-width="1px" opacity="0.25"></line><line x1="223.40416510899863" y1="0" x2="223.40416510899863" y2="176.89999961853027" fill="rgb(0, 0, 0)" stroke="rgb(189, 189, 189)" stroke-width="1px" opacity="0.25"></line><line x1="245.74458161989847" y1="0" x2="245.74458161989847" y2="176.89999961853027" fill="rgb(0, 0, 0)" stroke="rgb(189, 189, 189)" stroke-width="1px" opacity="0.25"></line><line x1="268.08499813079834" y1="0" x2="268.08499813079834" y2="176.89999961853027" fill="rgb(0, 0, 0)" stroke="rgb(189, 189, 189)" stroke-width="1px" opacity="0.25"></line></g><g><line x1="0" y1="176.89999961853027" x2="268.08499813079834" y2="176.89999961853027" fill="rgb(0, 0, 0)" stroke="rgb(189, 189, 189)" stroke-width="1px" opacity="0.25"></line><line x1="0" y1="164.26428536006384" x2="268.08499813079834" y2="164.26428536006384" fill="rgb(0, 0, 0)" stroke="rgb(189, 189, 189)" stroke-width="1px" opacity="0.25"></line><line x1="0" y1="151.6285711015974" x2="268.08499813079834" y2="151.6285711015974" fill="rgb(0, 0, 0)" stroke="rgb(189, 189, 189)" stroke-width="1px" opacity="0.25"></line><line x1="0" y1="138.99285684313094" x2="268.08499813079834" y2="138.99285684313094" fill="rgb(0, 0, 0)" stroke="rgb(189, 189, 189)" stroke-width="1px" opacity="0.25"></line><line x1="0" y1="126.3571425846645" x2="268.08499813079834" y2="126.3571425846645" fill="rgb(0, 0, 0)" stroke="rgb(189, 189, 189)" stroke-width="1px" opacity="0.25"></line><line x1="0" y1="113.72142832619807" x2="268.08499813079834" y2="113.72142832619807" fill="rgb(0, 0, 0)" stroke="rgb(189, 189, 189)" stroke-width="1px" opacity="0.25"></line><line x1="0" y1="101.0857140677316" x2="268.08499813079834" y2="101.0857140677316" fill="rgb(0, 0, 0)" stroke="rgb(189, 189, 189)" stroke-width="1px" opacity="0.25"></line><line x1="0" y1="88.44999980926514" x2="268.08499813079834" y2="88.44999980926514" fill="rgb(0, 0, 0)" stroke="rgb(189, 189, 189)" stroke-width="1px" opacity="0.25"></line><line x1="0" y1="75.81428555079867" x2="268.08499813079834" y2="75.81428555079867" fill="rgb(0, 0, 0)" stroke="rgb(189, 189, 189)" stroke-width="1px" opacity="0.25"></line><line x1="0" y1="63.17857129233229" x2="268.08499813079834" y2="63.17857129233229" fill="rgb(0, 0, 0)" stroke="rgb(189, 189, 189)" stroke-width="1px" opacity="0.25"></line><line x1="0" y1="50.54285703386583" x2="268.08499813079834" y2="50.54285703386583" fill="rgb(0, 0, 0)" stroke="rgb(189, 189, 189)" stroke-width="1px" opacity="0.25"></line><line x1="0" y1="37.907142775399365" x2="268.08499813079834" y2="37.907142775399365" fill="rgb(0, 0, 0)" stroke="rgb(189, 189, 189)" stroke-width="1px" opacity="0.25"></line><line x1="0" y1="25.271428516932925" x2="268.08499813079834" y2="25.271428516932925" fill="rgb(0, 0, 0)" stroke="rgb(189, 189, 189)" stroke-width="1px" opacity="0.25"></line><line x1="0" y1="12.635714258466463" x2="268.08499813079834" y2="12.635714258466463" fill="rgb(0, 0, 0)" stroke="rgb(189, 189, 189)" stroke-width="1px" opacity="0.25"></line><line x1="0" y1="0" x2="268.08499813079834" y2="0" fill="rgb(0, 0, 0)" stroke="rgb(189, 189, 189)" stroke-width="1px" opacity="0.25"></line></g></g></g><g><g><line x1="0" y1="429.6142847878593" x2="268.08499813079834" y2="429.6142847878593" fill="rgb(0, 0, 0)" stroke="rgb(153, 153, 153)" stroke-width="1.5px"></line></g></g><g><g><line x1="22.34041651089986" y1="0" x2="22.34041651089986" y2="176.89999961853027" fill="rgb(0, 0, 0)" stroke="rgb(153, 153, 153)" stroke-width="1.5px"></line></g></g><g><g><g><g><g><path style="fill: none;" stroke="rgb(204, 51, 17)" stroke-width="2px" d="M26.361691482861836,-7.544333655903246L26.808499813079834,2.2727887636995017L27.25530814329783,14.479505366690955L27.70211647351583,17.138549289673584L28.148924803733824,26.413305439144526L28.595733133951825,25.448136776669372L29.042541464169823,38.18725061670549L29.489349794387817,35.78863682560207L29.936158124605814,36.77971864833195L30.382966454823812,41.0352739754234L30.82977478504181,46.64965991203182L31.276583115259807,57.801821582258135L31.7233914454778,55.526505359688294L32.1701997756958,32.1405961160532L32.6170081059138,21.877393246804846L33.063816436131795,30.76019744858581L33.51062476634979,39.05410584883244L33.95743309656779,50.021824796294204L34.40424142678579,44.813774130345706L34.851049757003786,49.851438283963425L35.297858087221776,57.75298486794866L35.74466641743978,55.67761177265221L36.19147474765778,64.07714748017312L36.63828307787577,64.2328739558414L37.085091408093774,40.86679629999877L37.53189973831177,52.98634633627816L37.97870806852976,62.939476315749395L38.42551639874777,62.68716448839075L38.87232472896576,66.55166403807249L39.319133059183756,65.54297422017171L39.76594138940175,70.47821284070416L40.21274971961975,63.36061886571995L40.65955804983775,69.54624690516371L41.10636638005574,35.267083438177444L41.553174710273744,56.15238879168824L41.99998304049174,64.58238391221515L42.44679137070973,67.07901753070075L42.89359970092774,62.36759980282475L43.34040803114573,73.01361974279385L43.787216361363726,79.71354681234497L44.23402469158173,73.97952301739247L44.68083302179972,73.16453489949717L45.12764135201772,87.37672047118907L45.57444968223572,86.5269417293936L46.021258012453714,81.28247448698811L46.46806634267171,75.7242316784227L46.91487467288971,76.28546739799089L47.36168300310771,78.48347671596746L47.808491333325705,88.81483405480496L48.2552996635437,91.48798537936285L48.7021079937617,92.43220955213194L49.14891632397969,92.10728883313358L49.595724654197696,88.00958755292481L50.04253298441569,88.51282382481232L50.489341314633684,94.62653185926503L50.93614964485168,87.58674994638125L51.38295797506969,88.62866049540871L51.82976630528768,77.72160091891544L52.276574635505675,80.66185405704319L52.72338296572367,79.71570008470006L53.17019129594167,83.05396495743084L53.61699962615967,84.77860584266101L54.063807956377666,92.35373624136179L54.51061628659566,94.94661159419154L54.957424616813654,98.779793867923L55.40423294703166,101.38971370726509L55.85104127724966,105.11808696043296L56.29784960746765,101.20274132421484L56.74465793768565,91.53717526425267L57.19146626790365,87.80307085542569L57.63827459812164,77.308777011661L58.085082928339645,79.27604876242678L58.531891258557636,92.79261748164102L58.97869958877563,101.20990304697288L59.42550791899364,107.05381293357743L59.87231624921163,111.30587256194464L60.31912457942963,104.95422989489495L60.765932909647624,100.27334414658255L61.21274123986562,91.30946064632722L61.65954957008362,80.04772490749608L62.10635790030161,91.59073089898293L62.553166230519615,102.71151954245538L62.999974560737606,109.573642740044L63.4467828909556,108.50576137600731L63.89359122117361,106.94421965473626L64.3403995513916,107.35163235493188L64.7872078816096,106.91371349467165L65.2340162118276,96.07436457886033L65.6808245420456,97.03113072663517L66.12763287226359,104.86894175743018L66.57444120248158,103.69892495979185L67.02124953269958,108.52377307559685L67.46805786291758,105.54224291855553L67.91486619313558,111.702643522693L68.36167452335357,117.50286100737307L68.80848285357158,121.84129317846187L69.25529118378958,115.49714378932984L69.70209951400757,115.53486086815148L70.14890784422556,116.54952162318588L70.59571617444355,104.0535482231833L71.04252450466156,112.61412570101695L71.48933283487956,114.93645042334212L71.93614116509755,119.39228511330421L72.38294949531556,118.15686127094085L72.82975782553355,122.88637075199654L73.27656615575154,129.36875184937637L73.72337448596954,123.55455589705191L74.17018281618755,124.86912953479313L74.61699114640554,120.88932184163913L75.06379947662354,120.0215971865192L75.51060780684153,110.00827173576369L75.95741613705952,116.42711587531649L76.40422446727752,112.91678446755414L76.85103279749553,105.38421986739179L77.29784112771353,112.01351999499055L77.74464945793152,114.53888905656186L78.19145778814952,109.02360885775285L78.63826611836751,118.64882608689274L79.0850744485855,106.81047803167877L79.5318827788035,106.56095863381739L79.97869110902151,105.65056826264282L80.4254994392395,122.95722288359997L80.8723077694575,121.642707303815L81.3191160996755,122.79739655086695L81.76592442989349,126.36156896436627L82.21273276011148,119.7833569080879L82.6595410903295,123.07955984447608L83.10634942054749,120.05259547012659L83.55315775076548,118.01999244892373L83.99996608098348,110.40514093088815L84.44677441120147,114.92021025424255L84.89358274141946,112.45440715165277L85.34039107163748,120.54459512921272L85.78719940185547,117.31570557876142L86.23400773207347,112.5973304026248L86.68081606229146,114.11356918999412L87.12762439250946,121.50296219230644L87.57443272272745,111.22216415953648L88.02124105294546,114.46337163804895L88.46804938316346,116.85731833977209L88.91485771338145,104.17490163152608L89.36166604359944,110.9230969893227L89.80847437381745,120.7047602648164L90.25528270403544,119.3087717264763L90.70209103425343,119.89145617464216L91.14889936447145,129.21471853562068L91.59570769468944,127.76802189139306L92.04251602490743,119.13968751135597L92.48932435512542,125.01444508923409L92.93613268534342,120.91752468091151L93.38294101556141,117.87568330952703L93.82974934577942,125.4053904755175L94.27655767599742,127.04920483148898L94.72336600621541,126.6911029918053L95.1701743364334,135.32407279884197L95.61698266665141,135.42963046037875L96.0637909968694,136.97009018364497L96.5105993270874,135.134036121385L96.95740765730541,131.28303961191298L97.4042159875234,133.64472629927323L97.85102431774139,138.2113926209481L98.29783264795938,130.05866125197193L98.74464097817739,135.14728556135748L99.19144930839539,134.4958869366658L99.63825763861338,135.95993649079512L100.08506596883139,138.5213264957363L100.53187429904938,133.24830088419765L100.97868262926737,133.57086443494364L101.42549095948537,134.86722856653049L101.87229928970336,137.5084162125729L102.31910761992137,143.25310003266785L102.76591595013937,145.4197407383065L103.21272428035736,144.12330270363316L103.65953261057535,140.24365561340716L104.10634094079334,140.65076347252574L104.55314927101135,140.08977066922802L104.99995760122935,133.46804060016254L105.44676593144735,137.10530708100498L105.89357426166535,138.97316020526586L106.34038259188334,142.9843458225457L106.78719092210133,137.92852769448885L107.23399925231934,145.07391994379597L107.68080758253734,140.46128943834975L108.12761591275533,142.84985518522208L108.57442424297334,136.5234163241596L109.02123257319133,139.87901762467985L109.46804090340932,138.94999022164654L109.91484923362731,144.99482835214977L110.36165756384533,137.82019867016697L110.80846589406332,127.28087537533523L111.25527422428131,133.00752458409485L111.70208255449931,134.3301527722952L112.1488908847173,130.41274085448777L112.5956992149353,136.7061271478447L113.0425075451533,134.36259643037945L113.4893158753713,143.46928402664543L113.9361242055893,139.5611094882989L114.3829325358073,135.3008910316882L114.82974086602529,139.2560192781087L115.27654919624328,139.66439862652928L115.72335752646127,139.70323711024997L116.17016585667929,141.23773017738992L116.61697418689728,148.55744380192408L117.06378251711527,147.70194438775334L117.51059084733328,148.36466159110327L117.95739917755127,143.6381641529898L118.40420750776926,141.70667504565105L118.85101583798728,137.65662247451795L119.29782416820527,140.35012370562632L119.74463249842326,144.3653599776277L120.19144082864125,144.75246704050366L120.63824915885925,146.69463915965065L121.08505748907724,142.72349318184405L121.53186581929525,147.77977664729647L121.97867414951325,135.78026046847663L122.42548247973124,138.61122956953088L122.87229080994923,144.03310748136656L123.31909914016724,143.37250449260944L123.76590747038523,143.7406022310575L124.21271580060322,144.43818049519942L124.65952413082124,143.87982767439374L125.10633246103923,139.11748500366346L125.55314079125722,132.18789501336502L125.99994912147521,129.9271306799564L126.44675745169322,133.2207011714259L126.8935657819112,127.50116970212073L127.34037411212921,139.4442517036122L127.78718244234722,135.66635154714314L128.2339907725652,136.45860942685118L128.6807991027832,140.04059116097892L129.1276074330012,138.35689329247037L129.5744157632192,143.51916072279496L130.02122409343718,143.78394186813176L130.4680324236552,140.0741642144505L130.9148407538732,143.7706334427818L131.3616490840912,154.2407269116404L131.80845741430917,134.57130166402732L132.25526574452718,135.29824365174514L132.70207407474518,140.8372752573535L133.14888240496316,137.1016483038181L133.59569073518117,133.09830671167396L134.04249906539917,134.97229532423825L134.48930739561717,139.66299892813487L134.93611572583515,140.74740417721318L135.38292405605316,143.1997036072776L135.82973238627116,143.08109149060965L136.27654071648914,148.34756922890242L136.72334904670714,147.7999679816595L137.17015737692518,138.89872361091122L137.61696570714315,134.12911868150385L138.06377403736116,137.79996676906345L138.51058236757916,135.01750688068L138.95739069779714,134.00232762965257L139.40419902801514,134.8603885986049L139.85100735823312,146.4696265837299L140.29781568845112,150.2362140459158L140.74462401866913,146.1853799404697L141.1914323488871,153.0434446330459L141.6382406791051,148.2290825077896L142.08504900932311,142.03790696668045L142.53185733954112,142.4357321285859L142.97866566975912,145.81374082310998L143.42547399997713,145.0971996143146L143.8722823301951,149.36435308987544L144.3190906604131,149.3972938523572L144.76589899063111,141.9031415738812L145.2127073208491,141.66677496188117L145.6595156510671,140.55773315767954L146.1063239812851,140.608957818805L146.55313231150308,138.142783504869L146.99994064172108,143.96395288707598L147.4467489719391,137.73977451387432L147.89355730215706,138.85961037012262L148.3403656323751,145.28116610067116L148.7871739625931,143.4438159206954L149.23398229281108,149.85060784682827L149.68079062302908,151.73725327413382L150.1275989532471,153.99877313349103L150.57440728346506,154.38122546693648L151.02121561368307,155.8326255758172L151.46802394390104,157.53476699216043L151.91483227411905,158.08322599222674L152.36164060433705,150.542786177559L152.80844893455503,149.58091635936512L153.25525726477304,142.06048469097095L153.70206559499107,136.54186278983792L154.14887392520905,140.59216184825502L154.59568225542705,144.60075718462787L155.04249058564506,149.00162659004434L155.48929891586303,143.73697149583234L155.93610724608104,142.61037309616552L156.38291557629904,149.6368586144184L156.82972390651702,146.74862061349455L157.27653223673502,145.0650014269884L157.72334056695303,145.4534319081159L158.170148897171,143.96161727931764L158.616957227389,144.3668221832404L159.063765557607,150.67613207276725L159.51057388782502,151.20520716399582L159.95738221804302,149.35598311862475L160.40419054826103,143.47551687026225L160.850998878479,145.74356387373774L161.297807208697,139.72105601177245L161.744615538915,145.57068845379993L162.191423869133,147.43457002321045L162.638232199351,148.31150773659928L163.08504052956897,149.60923207499533L163.53184885978698,148.20667689875472L163.97865719000498,146.34950211867232L164.42546552022296,151.3189777177864L164.872273850441,152.55596732390057L165.319082180659,154.006827470261L165.76589051087697,157.00545151848064L166.21269884109498,154.93929345447256L166.65950717131298,150.09840993010562L167.10631550153096,149.2414386764469L167.55312383174896,150.56877628933347L167.99993216196697,152.0078394139033L168.44674049218494,153.99312778956852L168.89354882240295,156.77515117755053L169.34035715262095,155.45443837195197L169.78716548283893,156.7379707327236L170.23397381305693,154.7080995182627L170.68078214327497,158.1144557762863L171.12759047349294,156.69027493804438L171.57439880371095,152.87204912135462L172.02120713392895,151.0448941824895L172.46801546414693,155.97640025050853L172.91482379436493,155.81645330498952L173.3616321245829,154.01577397234973L173.80844045480092,155.75411790193283L174.25524878501892,158.29844047601347L174.7020571152369,161.6232634810469L175.1488654454549,160.81493565139834L175.5956737756729,159.2013176588198L176.0424821058909,153.4176889761299L176.48929043610892,154.57261921520188L176.93609876632692,157.93490447145595L177.3829070965449,158.07372300935933L177.8297154267629,156.53590984408993L178.2765237569809,154.9464908016653L178.72333208719888,152.78189155444588L179.1701404174169,155.21311640498485L179.6169487476349,154.2312399623714L180.06375707785287,158.59188073479677L180.51056540807087,156.02728235148177L180.95737373828888,157.5667717390442L181.40418206850686,158.94501233732453L181.8509903987249,159.16627566991392L182.2977987289429,158.28585478666932L182.74460705916087,159.75091945202897L183.19141538937888,160.064804078919L183.63822371959688,160.41641718099052L184.08503204981486,161.7135514259846L184.53184038003286,162.80428264520626L184.97864871025084,163.39150298379684L185.42545704046884,160.34976199745037L185.87226537068685,161.28226065700068L186.31907370090482,161.7776745523894L186.76588203112283,161.10395037926696L187.21269036134086,161.64357508439426L187.65949869155884,160.71831542877487L188.10630702177684,158.27561444127144L188.55311535199485,157.44713383619253L188.99992368221282,157.44078116472426L189.44673201243083,157.0316106436418L189.89354034264883,156.71090657709547L190.3403486728668,160.0727894062035L190.78715700308481,157.74465105085568L191.23396533330282,158.99605974749005L191.6807736635208,157.98554206325565L192.1275819937388,158.5111364695574L192.5743903239568,159.93014004499105L193.0211986541748,158.40110730337713L193.46800698439282,157.25275011411813L193.91481531461082,156.39889445979736L194.3616236448288,157.76026835175526L194.8084319750468,158.4548418237097L195.2552403052648,157.2630064578024L195.70204863548278,157.5677419428334L196.1488569657008,157.28665205325132L196.59566529591876,159.55766803836408L197.04247362613677,158.59821918666933L197.48928195635477,161.65244100368784L197.93609028657275,159.00572867502993L198.38289861679078,159.66085248218212L198.8297069470088,158.47716778912255L199.27651527722676,158.5173025253394L199.72332360744477,160.4004972521416L200.17013193766277,159.93960138300307L200.61694026788075,161.1965545287919L201.06374859809875,160.03602273194286L201.51055692831676,159.88874047479823L201.95736525853474,160.19984795861342L202.40417358875274,162.8890023807094L202.85098191897075,162.9668729599496L203.29779024918872,161.55529886264608L203.74459857940673,163.33692118737127L204.19140690962476,162.41859503350622L204.63821523984274,163.10801781523014L205.08502357006074,163.53759301733794L205.53183190027875,160.71437085944308L205.97864023049672,160.7669935917923L206.42544856071473,161.12824991273257L206.8722568909327,160.08827959307783L207.3190652211507,160.20076244933838L207.7658735513687,159.7560969634452L208.2126818815867,161.9326730752898L208.6594902118047,161.0712040265011L209.1062985420227,161.45339213868482L209.5531068722407,160.076791698215L209.9999152024587,160.0417716232921L210.4467235326767,159.55230951417855L210.8935318628947,158.18371788502148L211.3403401931127,158.80224155211118L211.7871485233307,159.73039852870207L212.23395685354868,160.38689643977298L212.68076518376668,161.1212855311253L213.1275735139847,160.2351521785509L213.57438184420266,159.2290345821305L214.02119017442067,160.40986361031614L214.46799850463867,159.9304293857241L214.91480683485665,157.93638569872365L215.36161516507468,157.72251540173573L215.8084234952927,158.2763714171057L216.25523182551066,158.42733469762618L216.70204015572867,159.9071153811666L217.14884848594667,161.94527313274642L217.59565681616465,163.07254067611004L218.04246514638265,163.24363729990642L218.48927347660063,161.65087041456994L218.93608180681863,160.76200691384497L219.38289013703664,159.25797990459526L219.82969846725462,159.85737699256765L220.27650679747262,159.54074925777832L220.72331512769065,159.84026561550502L221.17012345790863,160.23075875375787L221.61693178812664,159.25443066826662L222.06374011834464,158.94927154894063L222.51054844856262,158.6422532272078L222.95735677878062,159.29896127569134L223.40416510899863,160.50665627844296L223.8509734392166,159.95114135103861L224.2977817694346,159.36192048716848L224.7445900996526,160.07198252921953L225.1913984298706,160.39325697060374L225.6382067600886,159.85146958142101L226.0850150903066,160.11421352128627L226.5318234205246,158.9655485573974L226.9786317507426,158.50000418935187L227.4254400809606,158.7903807502999L227.8722484111786,157.944476254862L228.3190567413966,158.39224060494985L228.7658650716146,157.96187311723685L229.21267340183257,158.3783068770457L229.65948173205058,158.3029204887609L230.10629006226856,158.98435525799255L230.55309839248656,160.10091847373084L230.99990672270457,160.5586646941811L231.44671505292254,160.90523045829522L231.89352338314058,161.5361524808458L232.34033171335858,160.87049714447173L232.78714004357656,160.15431514220532L233.23394837379456,161.01888197544096L233.68075670401257,158.97719252487448L234.12756503423054,159.22882196663244L234.57437336444855,159.41529546204436L235.02118169466655,158.74209132414163L235.46799002488453,159.5980862980007L235.91479835510253,159.90400292541L236.36160668532054,159.94309925741453L236.80841501553851,159.8644076937626L237.25522334575652,159.49297792314718L237.70203167597455,158.44615436407415L238.14884000619253,159.4294715114074L238.59564833641053,160.48904158485698L239.04245666662854,160.58138034946563L239.48926499684652,160.56786310248114L239.93607332706452,160.3183163371974L240.3828816572825,159.976761670941L240.8296899875005,159.48344878538703L241.2764983177185,159.36872100508498L241.72330664793648,159.9924559626525L242.1701149781545,160.4870423378459L242.6169233083725,160.6305814158888L243.0637316385905,160.57662700385333L243.5105399688085,160.2464448671385L243.9573482990265,159.86187138651363L244.40415662924448,159.86384980143518L244.8509649594625,159.85569782436588L245.2977732896805,158.88308019245864" fill="none"></path></g><g><path style="fill: none;" stroke="rgb(0, 119, 187)" stroke-width="2px" d="M32.6170081059138,-2.695579722609242L33.063816436131795,1.8465984017495605L33.51062476634979,9.736688471084381L33.95743309656779,14.347549006981968L34.40424142678579,13.220002387498466L34.851049757003786,11.026093452484437L35.297858087221776,11.633874590743874L35.74466641743978,13.725495020688573L36.19147474765778,12.276517593547961L36.63828307787577,13.297214601720649L37.085091408093774,18.130375581227298L37.53189973831177,17.048894589125005L37.97870806852976,19.378552819775397L38.42551639874777,21.147242644672584L38.87232472896576,25.35685309763099L39.319133059183756,18.935967976656784L39.76594138940175,19.347500634182147L40.21274971961975,22.065119816295105L40.65955804983775,17.734741640746215L41.10636638005574,20.531429064241646L41.553174710273744,23.24675123900587L41.99998304049174,26.33203426709094L42.44679137070973,27.352256711882237L42.89359970092774,24.50030441980937L43.34040803114573,33.67238208285767L43.787216361363726,26.318440926091974L44.23402469158173,31.498536307370596L44.68083302179972,32.97526150830275L45.12764135201772,36.18300862388716L45.57444968223572,37.00286517774227L46.021258012453714,36.184513759130866L46.46806634267171,33.32161624248836L46.91487467288971,33.35774681948396L47.36168300310771,35.22291877658451L47.808491333325705,36.97162293419654L48.2552996635437,36.022640307740495L48.7021079937617,37.94871379973943L49.14891632397969,39.27343945477715L49.595724654197696,37.56728367903996L50.04253298441569,37.92046390818191L50.489341314633684,41.05825877254906L50.93614964485168,35.57392032823985L51.38295797506969,35.08737488778134L51.82976630528768,38.23348955003777L52.276574635505675,39.973481232678374L52.72338296572367,45.70565224248929L53.17019129594167,48.27928738789357L53.61699962615967,49.91032141714319L54.063807956377666,51.56939532103051L54.51061628659566,49.85938407649657L54.957424616813654,48.579280507244974L55.40423294703166,48.12723895593091L55.85104127724966,50.35896337677789L56.29784960746765,47.8472163414066L56.74465793768565,49.56161995772488L57.19146626790365,45.08672890376569L57.63827459812164,46.00325409036586L58.085082928339645,50.010371195148224L58.531891258557636,50.513607396461744L58.97869958877563,56.41785007265798L59.42550791899364,55.131757714185355L59.87231624921163,57.289709573447404L60.31912457942963,53.232465630993026L60.765932909647624,48.4582262956445L61.21274123986562,51.32294921491059L61.65954957008362,53.70855929856874L62.10635790030161,58.82853936865022L62.553166230519615,52.472358878767764L62.999974560737606,54.392737247776495L63.4467828909556,57.96148244127571L63.89359122117361,60.026736998855455L64.3403995513916,61.08230255734001L64.7872078816096,59.2367631272204L65.2340162118276,58.81039003267781L65.6808245420456,60.812456472174624L66.12763287226359,62.14262008381541L66.57444120248158,61.117363797625885L67.02124953269958,64.52478460376551L67.46805786291758,64.44700367567278L67.91486619313558,62.71253210947261L68.36167452335357,59.70471890467132L68.80848285357158,63.932770659153434L69.25529118378958,67.86506308080024L69.70209951400757,65.12801152988251L70.14890784422556,63.06094529299044L70.59571617444355,67.60808491390114L71.04252450466156,67.53491694983957L71.48933283487956,61.031467941877494L71.93614116509755,66.51533057069878L72.38294949531556,64.81574629252023L72.82975782553355,65.75155764878276L73.27656615575154,69.45750958717859L73.72337448596954,66.83528609144615L74.17018281618755,66.71855385751968L74.61699114640554,66.72646525855923L75.06379947662354,65.42718280757225L75.51060780684153,66.76701491505959L75.95741613705952,73.14843659011075L76.40422446727752,64.53442321144543L76.85103279749553,66.79328232796445L77.29784112771353,68.45003745716191L77.74464945793152,72.51614808175582L78.19145778814952,72.72788435828699L78.63826611836751,74.79287946443984L79.0850744485855,74.98818011836386L79.5318827788035,75.01501296542553L79.97869110902151,75.29353930488791L80.4254994392395,73.64567565292096L80.8723077694575,74.27667595879409L81.3191160996755,76.56885763722303L81.76592442989349,77.85491869398712L82.21273276011148,76.74510309524602L82.6595410903295,76.193390860596L83.10634942054749,75.7347502480955L83.55315775076548,78.46424687380356L83.99996608098348,79.8205840958902L84.44677441120147,78.17405014946964L84.89358274141946,78.89581925033335L85.34039107163748,80.10183574364508L85.78719940185547,78.50775545097692L86.23400773207347,72.8020058435393L86.68081606229146,72.23387290770984L87.12762439250946,78.31465806856635L87.57443272272745,77.17457369805962L88.02124105294546,76.47838234192669L88.46804938316346,76.88342065786233L88.91485771338145,75.90851415056015L89.36166604359944,76.23983413957842L89.80847437381745,77.34829245639253L90.25528270403544,80.19446684808814L90.70209103425343,82.08979552848166L91.14889936447145,83.54563427941899L91.59570769468944,82.86310516522184L92.04251602490743,81.34819346340817L92.48932435512542,81.69183577608223L92.93613268534342,76.6480575593859L93.38294101556141,79.24939733270749L93.82974934577942,79.15885051473309L94.27655767599742,81.99934935783378L94.72336600621541,79.60907320779833L95.1701743364334,80.07808051755087L95.61698266665141,81.66705398713447L96.0637909968694,86.13471356105893L96.5105993270874,86.24389886785703L96.95740765730541,83.7216864447308L97.4042159875234,85.31131063852985L97.85102431774139,86.36207545893399L98.29783264795938,90.04205773223688L98.74464097817739,93.84308911732762L99.19144930839539,91.74542191969725L99.63825763861338,93.70327254085458L100.08506596883139,97.86002430012603L100.53187429904938,95.61340499145024L100.97868262926737,96.47323940968644L101.42549095948537,100.16377626449642L101.87229928970336,100.63382438649363L102.31910761992137,98.37815369348665L102.76591595013937,97.89415434857355L103.21272428035736,98.28231029686854L103.65953261057535,96.1274709820234L104.10634094079334,97.95140707626295L104.55314927101135,98.81461277581069L104.99995760122935,101.07628298334619L105.44676593144735,97.29489273864226L105.89357426166535,96.58472697198901L106.34038259188334,97.48781192208699L106.78719092210133,93.94566162377835L107.23399925231934,93.8667026757211L107.68080758253734,97.50824258567722L108.12761591275533,98.11460000087638L108.57442424297334,98.62279277971089L109.02123257319133,98.92037279270056L109.46804090340932,97.26527835575067L109.91484923362731,101.16034322835469L110.36165756384533,103.14240878540032L110.80846589406332,104.01583841062352L111.25527422428131,103.08147170587557L111.70208255449931,105.05373110676905L112.1488908847173,101.14126226120717L112.5956992149353,100.94348917768626L113.0425075451533,104.47692676830225L113.4893158753713,104.29754036065044L113.9361242055893,102.7375995919276L114.3829325358073,103.18760684417724L114.82974086602529,104.2040102559379L115.27654919624328,102.96217951284967L115.72335752646127,104.27743589990321L116.17016585667929,103.67117355201336L116.61697418689728,105.78317687883383L117.06378251711527,105.3266356783411L117.51059084733328,103.41402821298904L117.95739917755127,103.74428928707351L118.40420750776926,100.84508263651753L118.85101583798728,102.57402772201365L119.29782416820527,104.87130469843945L119.74463249842326,107.7539770952474L120.19144082864125,102.5852487102131L120.63824915885925,102.46451664535945L121.08505748907724,104.62559585734056L121.53186581929525,103.02036699229163L121.97867414951325,101.4428874533951L122.42548247973124,100.58881089884193L122.87229080994923,103.75695043620645L123.31909914016724,107.21698455304052L123.76590747038523,106.00872564118245L124.21271580060322,104.18141877570206L124.65952413082124,100.13102541084874L125.10633246103923,104.53510369796776L125.55314079125722,103.08497858605452L125.99994912147521,102.75956455429161L126.44675745169322,99.80296195874075L126.8935657819112,102.12408799744284L127.34037411212921,103.28655662921553L127.78718244234722,105.45369924527803L128.2339907725652,109.14860146469277L128.6807991027832,106.56252690193169L129.1276074330012,109.69005052327373L129.5744157632192,108.0150987922127L130.02122409343718,108.33120829914998L130.4680324236552,105.61672310634997L130.9148407538732,106.74473171709708L131.3616490840912,108.79690428360996L131.80845741430917,104.62296031717914L132.25526574452718,104.59720156951737L132.70207407474518,107.65079127895623L133.14888240496316,104.01618053009577L133.59569073518117,107.37506824711248L134.04249906539917,107.29960383217248L134.48930739561717,107.71488979555755L134.93611572583515,104.30605525834278L135.38292405605316,102.91870398222694L135.82973238627116,103.30456916116057L136.27654071648914,102.49201528512306L136.72334904670714,99.54694838763469L137.17015737692518,97.01579516517889L137.61696570714315,97.3618054694456L138.06377403736116,102.79179500365039L138.51058236757916,102.34355105840599L138.95739069779714,104.89681316634903L139.40419902801514,109.58838134714895L139.85100735823312,111.04382366832952L140.29781568845112,112.35408016415344L140.74462401866913,111.10312135318055L141.1914323488871,107.07153534374599L141.6382406791051,103.11173482208453L142.08504900932311,102.25156336955432L142.53185733954112,105.3690043902819L142.97866566975912,103.66689991263092L143.42547399997713,106.48111496159949L143.8722823301951,108.4179717055014L144.3190906604131,109.20354224780336L144.76589899063111,107.57532089392976L145.2127073208491,108.67023594169754L145.6595156510671,107.92913277482667L146.1063239812851,106.68865029110135L146.55313231150308,101.84589910510932L146.99994064172108,98.58545578233968L147.4467489719391,101.40958113940157L147.89355730215706,102.9890808929486L148.3403656323751,100.3509261373255L148.7871739625931,102.15448462318265L149.23398229281108,104.0104935871475L149.68079062302908,108.01300616194929L150.1275989532471,108.64701265444745L150.57440728346506,110.48918500366197L151.02121561368307,110.64705928617816L151.46802394390104,114.03659976781185L151.91483227411905,111.86718242338743L152.36164060433705,111.68202764063858L152.80844893455503,112.82069227105437L153.25525726477304,109.73832044240488L153.70206559499107,108.62848795439704L154.14887392520905,112.23838621115551L154.59568225542705,113.33618159538779L155.04249058564506,113.42404851767988L155.48929891586303,112.43548233251892L155.93610724608104,112.16517166288845L156.38291557629904,111.37001017803411L156.82972390651702,110.51418565602863L157.27653223673502,108.46680110750567L157.72334056695303,115.55091693723901L158.170148897171,113.28503583921538L158.616957227389,114.34664967667064L159.063765557607,115.17658183859233L159.51057388782502,116.99576477929864L159.95738221804302,118.46362976094665L160.40419054826103,118.66157557003744L160.850998878479,119.34088796658739L161.297807208697,119.52530280847589L161.744615538915,117.45406150737895L162.191423869133,117.37599118083976L162.638232199351,111.57902028534296L163.08504052956897,115.75536707742557L163.53184885978698,117.95826685623238L163.97865719000498,119.33216970273426L164.42546552022296,115.56055076090607L164.872273850441,117.18033218486963L165.319082180659,115.2483288067715L165.76589051087697,114.585917775461L166.21269884109498,113.71243689960804L166.65950717131298,115.49804767032438L167.10631550153096,114.20431332409082L167.55312383174896,114.21474256074629L167.99993216196697,116.63924298205853L168.44674049218494,115.89680932807636L168.89354882240295,117.36081844655335L169.34035715262095,118.25259981297464L169.78716548283893,116.55018109587463L170.23397381305693,119.64811399225029L170.68078214327497,117.92888951118981L171.12759047349294,117.0655627315705L171.57439880371095,117.35795311540747L172.02120713392895,117.866135336588L172.46801546414693,119.3890946697215L172.91482379436493,118.24555815162496L173.3616321245829,120.69820757212074L173.80844045480092,120.8494773575768L174.25524878501892,121.61758974847741L174.7020571152369,121.99786289474027L175.1488654454549,119.27876573638123L175.5956737756729,115.75943839391225L176.0424821058909,115.62562928723901L176.48929043610892,116.52424697423709L176.93609876632692,112.31470360946193L177.3829070965449,111.84948305295532L177.8297154267629,115.04519895217207L178.2765237569809,119.41483831244078L178.72333208719888,121.97475841267718L179.1701404174169,118.68405328592216L179.6169487476349,121.11820782134552L180.06375707785287,120.07272353897953L180.51056540807087,117.72263120704974L180.95737373828888,114.49941896861638L181.40418206850686,117.15724971357574L181.8509903987249,116.59989764875694L182.2977987289429,114.8701530759423L182.74460705916087,116.08586603173173L183.19141538937888,118.62794603581673L183.63822371959688,120.54134354158143L184.08503204981486,119.1929926060382L184.53184038003286,122.15317528993117L184.97864871025084,119.89328170677031L185.42545704046884,119.6284224607593L185.87226537068685,119.20276474812833L186.31907370090482,119.71500793368868L186.76588203112283,117.42130706279283L187.21269036134086,118.33683833728102L187.65949869155884,117.49782050609457L188.10630702177684,122.10207376840566L188.55311535199485,124.83407807293241L188.99992368221282,121.54283224487041L189.44673201243083,120.89217788264654L189.89354034264883,120.96216159084636L190.3403486728668,121.47088470417361L190.78715700308481,122.18826334718273L191.23396533330282,120.99900969329791L191.6807736635208,119.12906766670656L192.1275819937388,121.14139255590935L192.5743903239568,122.30203963901158L193.0211986541748,118.68675020385L193.46800698439282,119.86015705409726L193.91481531461082,119.9058374870397L194.3616236448288,120.89230346750992L194.8084319750468,120.39718821005498L195.2552403052648,122.07906620117038L195.70204863548278,122.46502389008684L196.1488569657008,119.32734151614828L196.59566529591876,119.42983245048654L197.04247362613677,118.54379244346057L197.48928195635477,116.27477068283875L197.93609028657275,120.41640130449687L198.38289861679078,122.52337506776837L198.8297069470088,121.49946029291596L199.27651527722676,121.81764330221702L199.72332360744477,119.79122732299128L200.17013193766277,121.16499174228322L200.61694026788075,120.76751750333253L201.06374859809875,121.97737279803444L201.51055692831676,122.71779912255307L201.95736525853474,119.86567245883973L202.40417358875274,121.17201652374453L202.85098191897075,120.3394559709405L203.29779024918872,122.10561254109264L203.74459857940673,119.88707487372203L204.19140690962476,120.08066124352166L204.63821523984274,120.79511324863361L205.08502357006074,116.55907652009151L205.53183190027875,112.51278676132908L205.97864023049672,116.56694467215966L206.42544856071473,117.99392757496516L206.8722568909327,117.34925298867356L207.3190652211507,121.92549286108341L207.7658735513687,123.28869942255092L208.2126818815867,120.7158941437644L208.6594902118047,120.87241078973426L209.1062985420227,119.65140850780058L209.5531068722407,120.20070896375634L209.9999152024587,119.35495021801131L210.4467235326767,121.99275089982542L210.8935318628947,123.41643439088499L211.3403401931127,123.34198378822393L211.7871485233307,123.39242839407486L212.23395685354868,124.18009016799027L212.68076518376668,125.59815817647642L213.1275735139847,123.04707046614696L213.57438184420266,125.76995255651104L214.02119017442067,124.8767899077032L214.46799850463867,126.86016237117502L214.91480683485665,123.08769855404564L215.36161516507468,124.46657597895401L215.8084234952927,125.3755887857034L216.25523182551066,121.2450591124992L216.70204015572867,121.11465529677002L217.14884848594667,122.9849405350951L217.59565681616465,119.27006105900723L218.04246514638265,120.25460184994111L218.48927347660063,121.02982480874918L218.93608180681863,121.86616980547339L219.38289013703664,121.64895464599292L219.82969846725462,122.33030741520014L220.27650679747262,125.38756894749204L220.72331512769065,125.21153482317976L221.17012345790863,124.37080496560681L221.61693178812664,122.46187544645974L222.06374011834464,120.33402207153993L222.51054844856262,122.64382742392809L222.95735677878062,123.2880940600502L223.40416510899863,124.84390763118233L223.8509734392166,127.3143810444193L224.2977817694346,125.72557910525131L224.7445900996526,128.17064900768736L225.1913984298706,123.34631297127784L225.6382067600886,123.23693276259016L226.0850150903066,118.14322574730399L226.5318234205246,118.28648407010326L226.9786317507426,121.4039396309148L227.4254400809606,121.6401135393976L227.8722484111786,123.78750928927322L228.3190567413966,121.82849625824714L228.7658650716146,122.40453992390671L229.21267340183257,123.46835228735902L229.65948173205058,124.08482856078493L230.10629006226856,126.50603892210123L230.55309839248656,125.63852178102488L230.99990672270457,127.3729494553428L231.44671505292254,122.55895558363704L231.89352338314058,123.11070999947259L232.34033171335858,124.30033546226827L232.78714004357656,124.1087373559237L233.23394837379456,121.43224934660971L233.68075670401257,118.97449426981233L234.12756503423054,118.29737898308923L234.57437336444855,121.12050735218797L235.02118169466655,120.00114588242242L235.46799002488453,120.10846402259989L235.91479835510253,119.39429645829952L236.36160668532054,119.64490880393438L236.80841501553851,121.03308126436652L237.25522334575652,121.66495467402417L237.70203167597455,121.73394020968136L238.14884000619253,121.28881346415179L238.59564833641053,122.95027641632001L239.04245666662854,124.01643620405537L239.48926499684652,123.20192522146998L239.93607332706452,123.37346517727435L240.3828816572825,125.39559665569327L240.8296899875005,123.25328064674999L241.2764983177185,121.99294071924697L241.72330664793648,123.97684465503761L242.1701149781545,125.28053567912076L242.6169233083725,123.76140340045443L243.0637316385905,124.4342672035123L243.5105399688085,124.74503205053519L243.9573482990265,126.0765760526389L244.40415662924448,124.62519635058551L244.8509649594625,125.8832748258524L245.2977732896805,123.08649031474911" fill="none"></path></g></g></g></g><g opacity="0.2"><g><g><g><path style="fill: none;" stroke="rgb(204, 51, 17)" stroke-width="2px" d="M25.46807482242584,-17.984859825418003L25.91488315264384,26.870783418374113L26.361691482861836,21.379775033555433L26.808499813079834,16.909431815297964L27.25530814329783,32.72315185847326L27.70211647351583,21.118432934384277L28.148924803733824,40.30726945052972L28.595733133951825,24.001518302488396L29.042541464169823,57.2869367666931L29.489349794387817,32.191731151916585L29.936158124605814,38.26608974685925L30.382966454823812,47.41795867503869L30.82977478504181,55.07072563983133L31.276583115259807,74.52945247654733L31.7233914454778,52.11360589608302L32.1701997756958,-2.9378060354164335L32.6170081059138,6.482710520354811L33.063816436131795,44.08434061608677L33.51062476634979,51.49493307947166L33.95743309656779,66.47337515410008L34.40424142678579,37.00170612700756L34.851049757003786,57.40792987398949L35.297858087221776,69.6053003768617L35.74466641743978,52.56455281792375L36.19147474765778,76.67644937022806L36.63828307787577,64.46646365075318L37.085091408093774,5.817681489899105L37.53189973831177,71.16567086983805L37.97870806852976,77.86917102830411L38.42551639874777,62.3086967512565L38.87232472896576,72.34841332672099L39.319133059183756,64.02993949893877L39.76594138940175,77.88107075500989L40.21274971961975,52.68422791751538L40.65955804983775,78.82468895688753L41.10636638005574,-16.151661737557657L41.553174710273744,87.4803468129087L41.99998304049174,77.22737659081508L42.44679137070973,70.82396795803993L42.89359970092774,55.30047321145138L43.34040803114573,88.98264965214993L43.787216361363726,89.763437416446L44.23402469158173,65.37848732507973L44.68083302179972,71.94205272266395L45.12764135201772,108.69499882862353L45.57444968223572,85.25227361670416L46.021258012453714,73.41577362339349L46.46806634267171,67.38686746558335L46.91487467288971,77.12732097734278L47.36168300310771,81.78049069293105L47.808491333325705,104.31187006305778L48.2552996635437,95.4977123661992L48.7021079937617,93.84854581128545L49.14891632397969,91.619907754636L49.595724654197696,81.86303563261163L50.04253298441569,89.26767823264365L50.489341314633684,103.797093910944L50.93614964485168,77.02707707705551L51.38295797506969,90.19152631894998L51.82976630528768,61.36101155417561L52.276574635505675,85.07223376423481L52.72338296572367,78.29646912618524L53.17019129594167,88.06136226652711L53.61699962615967,87.36556717050617L54.063807956377666,103.71643183941308L54.51061628659566,98.83592462343627L54.957424616813654,104.52956727852008L55.40423294703166,105.30459346627823L55.85104127724966,110.7106468401848L56.29784960746765,95.3297228698876L56.74465793768565,77.0388261743093L57.19146626790365,82.2019142421853L57.63827459812164,61.56733624601406L58.085082928339645,82.22695638857562L58.531891258557636,113.06747056046228L58.97869958877563,113.83583139497068L59.42550791899364,115.81967776348436L59.87231624921163,117.68396200449543L60.31912457942963,95.42676589432047L60.765932909647624,93.25201552411394L61.21274123986562,77.86363539594414L61.65954957008362,63.155121299249295L62.10635790030161,108.90523988621324L62.553166230519615,119.39270250766404L62.999974560737606,119.86682753642692L63.4467828909556,106.9039393299523L63.89359122117361,104.60190707282956L64.3403995513916,107.9627514052254L64.7872078816096,106.25683520428124L65.2340162118276,79.81534120514335L65.6808245420456,98.46627994829737L66.12763287226359,116.62565830362274L66.57444120248158,101.94389976333436L67.02124953269958,115.76104524930435L67.46805786291758,101.06994768299371L67.91486619313558,120.94324442889923L68.36167452335357,126.20318723439311L68.80848285357158,128.34894143509507L69.25529118378958,105.98091970563182L69.70209951400757,115.59143648638403L70.14890784422556,118.0715127557375L70.59571617444355,85.30958812317944L71.04252450466156,125.45499191776747L71.48933283487956,118.41993750682987L71.93614116509755,126.0760371482474L72.38294949531556,116.3037255073959L72.82975782553355,129.9806349735801L73.27656615575154,139.09232349544604L73.72337448596954,114.83326196856525L74.17018281618755,126.8409899914049L74.61699114640554,114.9196103019081L75.06379947662354,118.72001020383928L75.51060780684153,94.98828355963043L75.95741613705952,126.05538208464574L76.40422446727752,107.65128735591061L76.85103279749553,94.08537296714819L77.29784112771353,121.95747018638868L77.74464945793152,118.32694264891876L78.19145778814952,100.75068855953938L78.63826611836751,133.08665193060256L79.0850744485855,89.05295594885779L79.5318827788035,106.18667953702536L79.97869110902151,104.28498270588081L80.4254994392395,148.9172048150357L80.8723077694575,119.67093393413754L81.3191160996755,124.52943042144496L81.76592442989349,131.70782758461525L82.21273276011148,109.91603882367032L82.6595410903295,128.0238642490583L83.10634942054749,115.51214890860236L83.55315775076548,114.97108791711948L83.99996608098348,98.9828636538348L84.44677441120147,121.69281423927414L84.89358274141946,108.7557024977682L85.34039107163748,132.67987709555257L85.78719940185547,112.4723712530845L86.23400773207347,105.51976763842L86.68081606229146,116.38792737104816L87.12762439250946,132.58705169577493L87.57443272272745,95.80096711038154L88.02124105294546,119.32518285581766L88.46804938316346,120.44823839235677L88.91485771338145,85.15127656915703L89.36166604359944,121.04539002601764L89.80847437381745,135.3772551780569L90.25528270403544,117.21478891896611L90.70209103425343,120.76548284689098L91.14889936447145,143.19961207708835L91.59570769468944,125.59797692505173L92.04251602490743,106.1971859413004L92.48932435512542,133.82658145605126L92.93613268534342,114.77214406842768L93.38294101556141,113.31292125245041L93.82974934577942,136.6999512245032L94.27655767599742,129.51492636544612L94.72336600621541,126.15395023227981L95.1701743364334,148.273527509397L95.61698266665141,135.58796695268404L96.0637909968694,139.2807797685443L96.5105993270874,132.37995502799512L96.95740765730541,125.50654484770482L97.4042159875234,137.1872563303136L97.85102431774139,145.06139210346038L98.29783264795938,117.82956419850771L98.74464097817739,142.78022202543573L99.19144930839539,133.51878899962827L99.63825763861338,138.15601082198904L100.08506596883139,142.36341150314814L100.53187429904938,125.33876246688968L100.97868262926737,134.0547097610626L101.42549095948537,136.8117747639108L101.87229928970336,141.4701976816366L102.31910761992137,151.87012576281026L102.76591595013937,148.66970179676446L103.21272428035736,142.17864565162319L103.65953261057535,134.42418497806804L104.10634094079334,141.2614252612036L104.55314927101135,139.24828146428138L104.99995760122935,123.53544549656425L105.44676593144735,142.56120680226869L105.89357426166535,141.77493989165714L106.34038259188334,149.00112424846552L106.78719092210133,130.34480050240353L107.23399925231934,155.79200831775674L107.68080758253734,133.54234368018038L108.12761591275533,146.43270380553056L108.57442424297334,127.03375803256587L109.02123257319133,144.9124195754602L109.46804090340932,137.5564491170966L109.91484923362731,154.0620855479046L110.36165756384533,127.0582541471928L110.80846589406332,111.47189043308751L111.25527422428131,141.5974983972343L111.70208255449931,136.3140950545958L112.1488908847173,124.5366229777766L112.5956992149353,146.1462065878801L113.0425075451533,130.84730035418158L113.4893158753713,157.12931542104428L113.9361242055893,133.69884768077912L114.3829325358073,128.91056334677208L114.82974086602529,145.18871164773958L115.27654919624328,140.27696764916013L115.72335752646127,139.76149483583097L116.17016585667929,143.53946977809983L116.61697418689728,159.53701423872528L117.06378251711527,146.4186952664972L117.51059084733328,149.35873739612816L117.95739917755127,136.5484179958195L118.40420750776926,138.80944138464292L118.85101583798728,131.58154361781837L119.29782416820527,144.3903755522888L119.74463249842326,150.38821438562974L120.19144082864125,145.33312763481757L120.63824915885925,149.6078973383711L121.08505748907724,136.7667742151342L121.53186581929525,155.3642018454752L121.97867414951325,117.7809862002468L122.42548247973124,142.85768322111227L122.87229080994923,152.16592434912L123.31909914016724,142.38160000947374L123.76590747038523,144.29274883872955L124.21271580060322,145.4845478914123L124.65952413082124,143.04229844318525L125.10633246103923,131.97397099756802L125.55314079125722,121.79351002791732L125.99994912147521,126.53598417984341L126.44675745169322,138.1610569086301L126.8935657819112,118.92187249816304L127.34037411212921,157.3588747058494L127.78718244234722,129.99950131243955L128.2339907725652,137.64699624641318L128.6807991027832,145.41356376217055L129.1276074330012,135.83134648970753L129.5744157632192,151.26256186828184L130.02122409343718,144.18111358613692L130.4680324236552,134.5094977339286L130.9148407538732,149.3153372852788L131.3616490840912,169.94586711492826L131.80845741430917,105.0671637926076L132.25526574452718,136.3886566333219L132.70207407474518,149.14582266576596L133.14888240496316,131.49820787351493L133.59569073518117,127.09329432345774L134.04249906539917,137.7832782430847L134.48930739561717,146.69905433397977L134.93611572583515,142.37401205083066L135.38292405605316,146.87815275237432L135.82973238627116,142.90317331560777L136.27654071648914,156.24728583634163L136.72334904670714,146.97856611079504L137.17015737692518,125.5468570547888L137.61696570714315,126.9747112873929L138.06377403736116,143.30623890040292L138.51058236757916,130.84381704810474L138.95739069779714,132.47955875311152L139.40419902801514,136.14748005203344L139.85100735823312,163.88348356141736L140.29781568845112,155.88609523919465L140.74462401866913,140.1091287823005L141.1914323488871,163.33054167191023L141.6382406791051,141.00753931990508L142.08504900932311,132.75114365501676L142.53185733954112,143.0324698714441L142.97866566975912,150.88075386489618L143.42547399997713,144.02238780112157L143.8722823301951,155.76508330321676L144.3190906604131,149.44670499607972L144.76589899063111,130.66191315616726L145.2127073208491,141.3122250438811L145.6595156510671,138.89417045137708L146.1063239812851,140.6857948104932L146.55313231150308,134.44352203396494L146.99994064172108,152.69570696038647L147.4467489719391,128.40350695407187L147.89355730215706,140.53936415449508L148.3403656323751,154.91349969649394L148.7871739625931,140.68779065073184L149.23398229281108,159.4607957360275L149.68079062302908,154.56722141509215L150.1275989532471,157.39105292252685L150.57440728346506,154.95490396710468L151.02121561368307,158.00972573913822L151.46802394390104,160.08797911667529L151.91483227411905,158.90591449232622L152.36164060433705,139.23212645555742L152.80844893455503,148.1381116320743L153.25525726477304,130.7798371883797L153.70206559499107,128.26392993813846L154.14887392520905,146.66761043588065L154.59568225542705,150.61365018918713L155.04249058564506,155.60293069816908L155.48929891586303,135.83998885451442L155.93610724608104,140.92047549666535L156.38291557629904,160.1765868917977L156.82972390651702,142.41626361210876L157.27653223673502,142.53957264722922L157.72334056695303,146.0360776298072L158.170148897171,141.72389533612017L158.616957227389,144.97462953912458L159.063765557607,160.14009690705754L159.51057388782502,151.9988198008387L159.95738221804302,146.58214705056812L160.40419054826103,134.65481749771845L160.850998878479,149.145634378951L161.297807208697,130.6872942188245L161.744615538915,154.34513711684116L162.191423869133,150.23039237732624L162.638232199351,149.62691430668255L163.08504052956897,151.55581858258952L163.53184885978698,146.1028441343937L163.97865719000498,143.5637399485488L164.42546552022296,158.77319111645753L164.872273850441,154.41145173307177L165.319082180659,156.18311768980163L165.76589051087697,161.50338759081023L166.21269884109498,151.8400563584604L166.65950717131298,142.8370846435551L167.10631550153096,147.95598179595885L167.55312383174896,152.55978270866336L167.99993216196697,154.16643410075807L168.44674049218494,156.97106035306635L168.89354882240295,160.9481862595235L169.34035715262095,153.4733691635541L169.78716548283893,158.66326927388107L170.23397381305693,151.66329269657143L170.68078214327497,163.22399016332164L171.12759047349294,154.55400368068163L171.57439880371095,147.14471039632L172.02120713392895,148.30416177419178L172.46801546414693,163.37365935253717L172.91482379436493,155.57653288671102L173.3616321245829,151.31475497339008L173.80844045480092,158.36163379630744L174.25524878501892,162.11492433713443L174.7020571152369,166.6104979885972L175.1488654454549,159.60244390692554L175.5956737756729,156.7808906699519L176.0424821058909,144.74224595209503L176.48929043610892,156.30501457380984L176.93609876632692,162.97833235583707L177.3829070965449,158.28195081621433L177.8297154267629,154.22919009618585L178.2765237569809,152.56236223802838L178.72333208719888,149.53499268361674L179.1701404174169,158.85995368079332L179.6169487476349,152.75842529845124L180.06375707785287,165.13284189343486L180.51056540807087,152.18038477650927L180.95737373828888,159.87600582038792L181.40418206850686,161.012373234745L181.8509903987249,159.49817066879802L182.2977987289429,156.96522346180245L182.74460705916087,161.94851645006852L183.19141538937888,160.5356310192541L183.63822371959688,160.94383683409782L184.08503204981486,163.6592527934758L184.53184038003286,164.4403794740388L184.97864871025084,164.2723334916827L185.42545704046884,155.78715051793066L185.87226537068685,162.68100864632612L186.31907370090482,162.52079539547256L186.76588203112283,160.09336411958327L187.21269036134086,162.45301214208524L187.65949869155884,159.33042594534587L188.10630702177684,154.61156296001639L188.55311535199485,156.20441292857416L188.99992368221282,157.43125215752184L189.44673201243083,156.41785486201826L189.89354034264883,156.2298504772759L190.3403486728668,165.1156136498656L190.78715700308481,154.252443517834L191.23396533330282,160.87317279244152L191.6807736635208,156.46976553690405L192.1275819937388,159.29952807901014L192.5743903239568,162.05864540814144L193.0211986541748,156.10755819095627L193.46800698439282,155.53021433022965L193.91481531461082,155.1181109783162L194.3616236448288,159.8023291896922L194.8084319750468,159.4967020316413L195.2552403052648,155.47525340894143L195.70204863548278,158.0248451703799L196.1488569657008,156.8650172188782L196.59566529591876,162.9641920160332L197.04247362613677,157.15904590912723L197.48928195635477,166.23377372921559L197.93609028657275,155.0356601820431L198.38289861679078,160.64353819291046L198.8297069470088,156.70164074953323L199.27651527722676,158.57750462966462L199.72332360744477,163.2252893423449L200.17013193766277,159.24825757929523L200.61694026788075,163.0819842474752L201.06374859809875,158.29522503666936L201.51055692831676,159.66781708908132L201.95736525853474,160.66650918433615L202.40417358875274,166.92273401385333L202.85098191897075,163.08367882880987L203.29779024918872,159.43793771669078L203.74459857940673,166.00935467445905L204.19140690962476,161.04110580270864L204.63821523984274,164.14215198781602L205.08502357006074,164.18195582049958L205.53183190027875,156.47953762260073L205.97864023049672,160.84592769031613L206.42544856071473,161.67013439414308L206.8722568909327,158.5283241135958L207.3190652211507,160.36948673372916L207.7658735513687,159.08909873460547L208.2126818815867,165.19753724305676L208.6594902118047,159.77900045331805L209.1062985420227,162.02667430696042L209.5531068722407,158.0118910375103L209.9999152024587,159.98924151090773L210.4467235326767,158.81811635050812L210.8935318628947,156.1308304412859L211.3403401931127,159.7300270527457L211.7871485233307,161.1226339935884L212.23395685354868,161.37164330637935L212.68076518376668,162.22286916815375L213.1275735139847,158.90595214968923L213.57438184420266,157.7198581874999L214.02119017442067,162.18110715259456L214.46799850463867,159.21127804883614L214.91480683485665,154.945320168223L215.36161516507468,157.40170995625388L215.8084234952927,159.1071554401606L216.25523182551066,158.65377961840684L216.70204015572867,162.1267864064772L217.14884848594667,165.00250976011623L217.59565681616465,164.76344199115542L218.04246514638265,163.500282235601L218.48927347660063,159.26172008656522L218.93608180681863,159.4287116627575L219.38289013703664,157.0019393907206L219.82969846725462,160.75647262452634L220.27650679747262,159.06580765559434L220.72331512769065,160.2895401520951L221.17012345790863,160.81649846113712L221.61693178812664,157.7899385400298L222.06374011834464,158.49153286995167L222.51054844856262,158.18172574460857L222.95735677878062,160.28402334841664L223.40416510899863,162.31819878257045L223.8509734392166,159.1178689599321L224.2977817694346,158.47808919136318L224.7445900996526,161.1370755922962L225.1913984298706,160.87516863268016L225.6382067600886,159.0387884976469L226.0850150903066,160.5083294310842L226.5318234205246,157.24255111156413L226.9786317507426,157.8016876372836L227.4254400809606,159.2259455917219L227.8722484111786,156.6756195117051L228.3190567413966,159.0638871300817L228.7658650716146,157.31632188566732L229.21267340183257,159.0029575167591L229.65948173205058,158.18984090633356L230.10629006226856,160.00650741184L230.55309839248656,161.77576329733833L230.99990672270457,161.2452840248565L231.44671505292254,161.42507910446636L231.89352338314058,162.48253551467172L232.34033171335858,159.87201413991065L232.78714004357656,159.08004213880568L233.23394837379456,162.3157322252944L233.68075670401257,155.91465834902482L234.12756503423054,159.60626612926933L234.57437336444855,159.69500570516223L235.02118169466655,157.73228511728757L235.46799002488453,160.88207875878936L235.91479835510253,160.36287786652392L236.36160668532054,160.00174375542142L236.80841501553851,159.74637034828464L237.25522334575652,158.93583326722413L237.70203167597455,156.87591902546464L238.14884000619253,160.9044472324072L238.59564833641053,162.07839669503127L239.04245666662854,160.71988849637867L239.48926499684652,160.5475872320044L239.93607332706452,159.9439961892717L240.3828816572825,159.46442967155633L240.8296899875005,158.74347945705608L241.2764983177185,159.1966293346319L241.72330664793648,160.92805839900376L242.1701149781545,161.22892190063604L242.6169233083725,160.84589003295312L243.0637316385905,160.49569538580008L243.5105399688085,159.75117166206624L243.9573482990265,159.28501116557638L244.40415662924448,159.86681742381762L244.8509649594625,159.84346985876198L245.2977732896805,157.42415374459767" fill="none"></path></g><g><path style="fill: none;" stroke="rgb(0, 119, 187)" stroke-width="2px" d="M31.7233914454778,-13.68732624593525L32.1701997756958,9.047930087435335L32.6170081059138,-0.3196778733307873L33.063816436131795,8.659833304429885L33.51062476634979,21.57178992745653L33.95743309656779,21.2638280129001L34.40424142678579,11.528684189322663L34.851049757003786,7.735232070863702L35.297858087221776,12.54554596222162L35.74466641743978,16.862924972001654L36.19147474765778,10.103051741135136L36.63828307787577,14.828259992128956L37.085091408093774,25.38011670429773L37.53189973831177,15.426673147450101L37.97870806852976,22.873040105678317L38.42551639874777,23.800277354654007L38.87232472896576,31.67126873799086L39.319133059183756,9.30464033095836L39.76594138940175,19.964799619094897L40.21274971961975,26.14154858401541L40.65955804983775,11.239174382632786L41.10636638005574,24.72646019746591L41.553174710273744,27.319734499976196L41.99998304049174,30.959958808416808L42.44679137070973,28.88259037891009L42.89359970092774,20.22237598196675L43.34040803114573,47.43049857691535L43.787216361363726,15.287529191191103L44.23402469158173,39.268679379183844L44.68083302179972,35.190349309683114L45.12764135201772,40.994629297240266L45.57444968223572,38.232650008521496L46.021258012453714,34.95698663121574L46.46806634267171,29.027269967529055L46.91487467288971,33.41194268497752L47.36168300310771,38.02067671223412L47.808491333325705,39.59467917061392L48.2552996635437,34.59916636805662L48.7021079937617,40.83782403773757L49.14891632397969,41.260527937333556L49.595724654197696,35.00805001543419L50.04253298441569,38.45023425189483L50.489341314633684,45.764951069099645L50.93614964485168,27.347412661776023L51.38295797506969,34.35755672709378L51.82976630528768,42.952661543422295L52.276574635505675,42.583468756639284L52.72338296572367,54.303908757205654L53.17019129594167,52.139740106000154L53.61699962615967,52.35687246101756L54.063807956377666,54.05800617686161L54.51061628659566,47.294367209695785L54.957424616813654,46.65912515336751L55.40423294703166,47.44917662895984L55.85104127724966,53.70655000804829L56.29784960746765,44.07959578834966L56.74465793768565,52.13322538220236L57.19146626790365,38.37439232282699L57.63827459812164,47.37804187026615L58.085082928339645,56.0210468523217L58.531891258557636,51.26846169843199L58.97869958877563,65.27421408695221L59.42550791899364,53.20261917647649L59.87231624921163,60.52663736234057L60.31912457942963,47.14659971731141L60.765932909647624,41.29686729262177L61.21274123986562,55.620033593809644L61.65954957008362,57.28697442405609L62.10635790030161,66.50850947377252L62.553166230519615,42.93808814394401L62.999974560737606,57.27330480128964L63.4467828909556,63.31460023152449L63.89359122117361,63.124618835224986L64.3403995513916,62.665650895066776L64.7872078816096,56.46845398204108L65.2340162118276,58.17083039086389L65.6808245420456,63.815556131419854L66.12763287226359,64.13786550127661L66.57444120248158,59.57947936834161L67.02124953269958,69.63591581297499L67.46805786291758,64.33033228353362L67.91486619313558,60.11082476017229L68.36167452335357,55.19299909746946L68.80848285357158,70.27484829087656L69.25529118378958,73.7635017132705L69.70209951400757,61.02243420350591L70.14890784422556,59.96034593765241L70.59571617444355,74.42879434526715L71.04252450466156,67.42516500374718L71.48933283487956,51.27629442993454L71.93614116509755,74.74112451393077L72.38294949531556,62.26636987525241L72.82975782553355,67.15527468317663L73.27656615575154,75.01643749477232L73.72337448596954,62.90195084784761L74.17018281618755,66.54345550662998L74.61699114640554,66.73833236011855L75.06379947662354,63.47825913109188L75.51060780684153,68.77676307629055L75.95741613705952,82.72056910268736L76.40422446727752,51.61340314344752L76.85103279749553,70.181571002743L77.29784112771353,70.93517015095814L77.74464945793152,78.61531401864666L78.19145778814952,73.0454887730837L78.63826611836751,77.89037212366915L79.0850744485855,75.28113109924983L79.5318827788035,75.05526223601805L79.97869110902151,75.71132881408143L80.4254994392395,71.17388017497052L80.8723077694575,75.22317641760367L81.3191160996755,80.00713015486652L81.76592442989349,79.78401027913321L82.21273276011148,75.08037969713436L82.6595410903295,75.36582250862102L83.10634942054749,75.04678932934463L83.55315775076548,82.55849181236565L83.99996608098348,81.85508992902011L84.44677441120147,75.70424922983875L84.89358274141946,79.97847290162888L85.34039107163748,81.9108604836127L85.78719940185547,76.11663501197468L86.23400773207347,64.24338143238289L86.68081606229146,71.38167350396567L87.12762439250946,87.43583580985103L87.57443272272745,75.46444714229958L88.02124105294546,75.43409530772726L88.46804938316346,77.49097813176581L88.91485771338145,74.4461543896069L89.36166604359944,76.73681412310577L89.80847437381745,79.0109799316137L90.25528270403544,84.46372843563154L90.70209103425343,84.93278854907187L91.14889936447145,85.72939240582498L91.59570769468944,81.83931149392606L92.04251602490743,79.07582591068758L92.48932435512542,82.20729924509328L92.93613268534342,69.08239023434143L93.38294101556141,83.15140699268983L93.82974934577942,79.02303028777146L94.27655767599742,86.26009762248479L94.72336600621541,76.02365898274506L95.1701743364334,80.78159148217976L95.61698266665141,84.05051419150978L96.0637909968694,92.83620292194566L96.5105993270874,86.4076768280542L96.95740765730541,79.93836781004137L97.4042159875234,87.69574692922845L97.85102431774139,87.93822268954013L98.29783264795938,95.56203114219117L98.74464097817739,99.54463619496381L99.19144930839539,88.59892112325164L99.63825763861338,96.6400484725907L100.08506596883139,104.09515193903327L100.53187429904938,92.24347602843645L100.97868262926737,97.76299103704082L101.42549095948537,105.6995815467114L101.87229928970336,101.33889656948945L102.31910761992137,94.99464765397624L102.76591595013937,97.16815533120398L103.21272428035736,98.86454421931093L103.65953261057535,92.89521200975564L104.10634094079334,100.68731121762222L104.55314927101135,100.10942132513223L104.99995760122935,104.46878829464944L105.44676593144735,91.62280737158646L105.89357426166535,95.51947832200915L106.34038259188334,98.84243934723406L106.78719092210133,88.63243617631538L107.23399925231934,93.74826425363518L107.68080758253734,102.97055245061146L108.12761591275533,99.02413612367509L108.57442424297334,99.38508194796263L109.02123257319133,99.36674281218507L109.46804090340932,94.78263670032585L109.91484923362731,107.00294053726078L110.36165756384533,106.11550712096866L110.80846589406332,105.32598284845824L111.25527422428131,101.6799216487537L111.70208255449931,108.01212020810917L112.1488908847173,95.27255899286429L112.5956992149353,100.6468295524048L113.0425075451533,109.77708315422628L113.4893158753713,104.02846074917274L113.9361242055893,100.39768843884337L114.3829325358073,103.86261772255175L114.82974086602529,105.72861537357896L115.27654919624328,101.0994333982172L115.72335752646127,106.25032048048347L116.17016585667929,102.76178003017849L116.61697418689728,108.95118186906465L117.06378251711527,104.6418238776021L117.51059084733328,100.54511701496081L117.95739917755127,104.23968089820028L118.40420750776926,96.49627266068357L118.85101583798728,105.16744535025786L119.29782416820527,108.31722016307815L119.74463249842326,112.07798569045922L120.19144082864125,94.83215613266161L120.63824915885925,102.2834185480789L121.08505748907724,107.86721467531224L121.53186581929525,100.61252369471822L121.97867414951325,99.07666814505028L122.42548247973124,99.3076960670121L122.87229080994923,108.50915974225326L123.31909914016724,112.40703572829172L123.76590747038523,104.19633727339537L124.21271580060322,101.44045847748147L124.65952413082124,94.05543536356879L125.10633246103923,111.14122112864631L125.55314079125722,100.90979091818464L125.99994912147521,102.27144350664715L126.44675745169322,95.36805806541444L126.8935657819112,105.60577705549592L127.34037411212921,105.0302595768745L127.78718244234722,108.70441316937176L128.2339907725652,114.69095479381485L128.6807991027832,102.68341505779014L129.1276074330012,114.3813359552867L129.5744157632192,105.5026711956212L130.02122409343718,108.80537255955589L130.4680324236552,101.54499531714991L130.9148407538732,108.43674463321781L131.3616490840912,111.87516313337915L131.80845741430917,98.36204436753285L132.25526574452718,104.55856344802466L132.70207407474518,112.23117584311458L133.14888240496316,98.56426440680504L133.59569073518117,112.41339982263754L134.04249906539917,107.18640720976249L134.48930739561717,108.33781874063529L134.93611572583515,99.19280345252056L135.38292405605316,100.83767706805313L135.82973238627116,103.88336692956086L136.27654071648914,101.27318447106673L136.72334904670714,95.12934804140207L137.17015737692518,93.2190653314951L137.61696570714315,97.8808209258458L138.06377403736116,110.93677930495753L138.51058236757916,101.67118514053934L138.95739069779714,108.72670632826362L139.40419902801514,116.62573361834872L139.85100735823312,113.22698715010047L140.29781568845112,114.31946490788927L140.74462401866913,109.22668313672115L141.1914323488871,101.02415632959428L141.6382406791051,97.17203403959226L142.08504900932311,100.96130619075902L142.53185733954112,110.04516592137317L142.97866566975912,101.11374319615452L143.42547399997713,110.70243753505233L143.8722823301951,111.32325682135429L144.3190906604131,110.38189806125624L144.76589899063111,105.13298886311931L145.2127073208491,110.31260851334919L145.6595156510671,106.81747802452045L146.1063239812851,104.82792656551332L146.55313231150308,94.5817723261214L146.99994064172108,93.6947907981852L147.4467489719391,105.64576917499446L147.89355730215706,105.35833052326917L148.3403656323751,96.39369400389073L148.7871739625931,104.85982235196836L149.23398229281108,106.79450703309476L149.68079062302908,114.01677502415184L150.1275989532471,109.59802239319474L150.57440728346506,113.25244352748372L151.02121561368307,110.8838707099524L151.46802394390104,119.12091049026236L151.91483227411905,108.61305640675086L152.36164060433705,111.40429546651514L152.80844893455503,114.52868921667816L153.25525726477304,105.1147626994307L153.70206559499107,106.96373922238513L154.14887392520905,117.65323359629316L154.59568225542705,114.98287467173627L155.04249058564506,113.55584890111801L155.48929891586303,110.95263305477756L155.93610724608104,111.75970565844273L156.38291557629904,110.1772679507525L156.82972390651702,109.23044887302046L157.27653223673502,105.3957242847212L157.72334056695303,126.17709068183899L158.170148897171,109.88621419217988L158.616957227389,115.93907043285357L159.063765557607,116.42148008147488L159.51057388782502,119.72453919035802L159.95738221804302,120.66542723341867L160.40419054826103,118.95849428367372L160.850998878479,120.35985656141227L161.297807208697,119.80192507130857L161.744615538915,114.34719955573358L162.191423869133,117.25888569103087L162.638232199351,102.88356394209772L163.08504052956897,122.0198872655495L163.53184885978698,121.26261652444255L163.97865719000498,121.39302397248719L164.42546552022296,109.90312234816373L164.872273850441,119.61000432081492L165.319082180659,112.35032373962432L165.76589051087697,113.59230122849519L166.21269884109498,112.40221558582861L166.65950717131298,118.17646382639887L167.10631550153096,112.26371180474052L167.55312383174896,114.23038641572943L167.99993216196697,120.27599361402694L168.44674049218494,114.78315884710311L168.89354882240295,119.55683212426887L169.34035715262095,119.59027186260661L169.78716548283893,113.99655302022462L170.23397381305693,124.29501333681378L170.68078214327497,115.35005278959916L171.12759047349294,115.77057256214155L171.57439880371095,117.7965386911629L172.02120713392895,118.6284086683589L172.46801546414693,121.67353366942174L172.91482379436493,116.53025337448005L173.3616321245829,124.3771817028644L173.80844045480092,121.07638203576086L174.25524878501892,122.76975833482835L174.7020571152369,122.5682726141345L175.1488654454549,115.20011999884267L175.5956737756729,110.48044738020883L176.0424821058909,115.42491562722917L176.48929043610892,117.87217350473425L176.93609876632692,106.00038856229916L177.3829070965449,111.15165221819537L177.8297154267629,119.83877280099718L178.2765237569809,125.96929735284382L178.72333208719888,125.81463856303174L179.1701404174169,113.74799559578959L179.6169487476349,124.7694396244806L180.06375707785287,118.50449711543055L180.51056540807087,114.19749270915509L180.95737373828888,109.66460061096632L181.40418206850686,121.14399583101472L181.8509903987249,115.7638695515288L182.2977987289429,112.27553621672031L182.74460705916087,117.90943546541578L183.19141538937888,122.4410660419443L183.63822371959688,123.41143980022841L184.08503204981486,117.1704662027234L184.53184038003286,126.59344931577067L184.97864871025084,116.50344133202908L185.42545704046884,119.23113359174275L185.87226537068685,118.5642781791819L186.31907370090482,120.4833727120292L186.76588203112283,113.98075575644908L187.21269036134086,119.71013524901322L187.65949869155884,116.23929375931495L188.10630702177684,129.0084536618723L188.55311535199485,128.93208452972257L188.99992368221282,116.60596350277741L189.44673201243083,119.91619633931072L189.89354034264883,121.06713715314608L190.3403486728668,122.23396937416449L190.78715700308481,123.26433131169642L191.23396533330282,119.21512921247073L191.6807736635208,116.32415462681958L192.1275819937388,124.15987988971354L192.5743903239568,124.04301026366488L193.0211986541748,113.2638160511076L193.46800698439282,121.62026732946819L193.91481531461082,119.97435813645333L194.3616236448288,122.3720024382152L194.8084319750468,119.65451532387262L195.2552403052648,124.60188318784341L195.70204863548278,123.04396042346161L196.1488569657008,114.62081795524044L196.59566529591876,119.58356885199387L197.04247362613677,117.21473243292162L197.48928195635477,112.87123804190595L197.93609028657275,126.62884723698406L198.38289861679078,125.68383571267569L198.8297069470088,119.96358813063735L199.27651527722676,122.29491781616859L199.72332360744477,116.75160335415269L200.17013193766277,123.22563837122114L200.61694026788075,120.17130614490652L201.06374859809875,123.79215574008727L201.51055692831676,123.82843860933099L201.95736525853474,115.58748246326977L202.40417358875274,123.13153262110173L202.85098191897075,119.0906151417345L203.29779024918872,124.75484739632081L203.74459857940673,116.55926837266614L204.19140690962476,120.3710407982212L204.63821523984274,121.86679125630162L205.08502357006074,110.2050214272783L205.53183190027875,106.44335212318539L205.97864023049672,122.64818153840557L206.42544856071473,120.13440192917342L206.8722568909327,116.38224110923622L207.3190652211507,128.78985266969815L207.7658735513687,125.33350926475217L208.2126818815867,116.85668622558454L208.6594902118047,121.1071857586891L209.1062985420227,117.81990508490003L209.5531068722407,121.02465964769002L209.9999152024587,118.08631209939372L210.4467235326767,125.94945192254654L210.8935318628947,125.55195962747433L211.3403401931127,123.23030788423226L211.7871485233307,123.46809530285134L212.23395685354868,125.36158282886342L212.68076518376668,127.72526018920564L213.1275735139847,119.22043890065274L213.57438184420266,129.8542756920572L214.02119017442067,123.53704593449143L214.46799850463867,129.83522106638276L214.91480683485665,117.42900282835157L215.36161516507468,126.53489211631661L215.8084234952927,126.73910799582744L216.25523182551066,115.04926460269287L216.70204015572867,120.91904957317625L217.14884848594667,125.79036839258278L217.59565681616465,113.69774184487548L218.04246514638265,121.73141303634192L218.48927347660063,122.19265924696123L218.93608180681863,123.12068730055975L219.38289013703664,121.32313190677225L219.82969846725462,123.35233656901097L220.27650679747262,129.9734612459299L220.72331512769065,124.94748363671131L221.17012345790863,123.1097101792473L221.61693178812664,119.59848116773908L222.06374011834464,117.14224200916017L222.51054844856262,126.10853545251031L222.95735677878062,124.25449401423334L223.40416510899863,127.1776279878805L223.8509734392166,131.0200911642748L224.2977817694346,123.34237619649932L224.7445900996526,131.83825386134137L225.1913984298706,116.10980891666364L225.6382067600886,123.0728624495587L226.0850150903066,110.50266522437467L226.5318234205246,118.50137155430214L226.9786317507426,126.08012297213213L227.4254400809606,121.99437440212178L227.8722484111786,127.00860291408658L228.3190567413966,118.889976711708L228.7658650716146,123.2686054223961L229.21267340183257,125.06407083253754L229.65948173205058,125.00954297092372L230.10629006226856,130.1378544640757L230.55309839248656,124.33724606941037L230.99990672270457,129.9745909668197L231.44671505292254,115.33796477607842L231.89352338314058,123.93834162322592L232.34033171335858,126.08477365646175L232.78714004357656,123.8213401964068L233.23394837379456,117.41751733263874L233.68075670401257,115.28786165461626L234.12756503423054,117.28170605300461L234.57437336444855,125.3551999058361L235.02118169466655,118.32210367777415L235.46799002488453,120.26944123286617L235.91479835510253,118.32304511184897L236.36160668532054,120.02082732238664L236.80841501553851,123.11533995501476L237.25522334575652,122.61276478851069L237.70203167597455,121.83741851316712L238.14884000619253,120.62112334585744L238.59564833641053,125.44247084457231L239.04245666662854,125.61567588565842L239.48926499684652,121.98015874759194L239.93607332706452,123.63077511098092L240.3828816572825,128.42879387332164L240.8296899875005,120.03980663333509L241.2764983177185,120.1024308279924L241.72330664793648,126.95270055872352L242.1701149781545,127.23607221524556L242.6169233083725,121.4827049824549L243.0637316385905,125.4435629080991L243.5105399688085,125.21117932106952L243.9573482990265,128.07389205579446L244.40415662924448,122.44812679750547L244.8509649594625,127.77039253875269L245.2977732896805,118.89131354809427" fill="none"></path></g></g></g></g></g></g><g transform="translate(61, 176)" clip-path="url(#clip_1)"><clipPath id="clip_1"><rect width="268" height="23"></rect></clipPath><g><g><line x1="0" y1="0" x2="0" y2="5" style="visibility: inherit;" fill="rgb(0, 0, 0)" stroke="rgb(204, 204, 204)" stroke-width="1px"></line><line x1="22.34041651089986" y1="0" x2="22.34041651089986" y2="5" style="visibility: inherit;" fill="rgb(0, 0, 0)" stroke="rgb(204, 204, 204)" stroke-width="1px"></line><line x1="44.68083302179972" y1="0" x2="44.68083302179972" y2="5" style="visibility: inherit;" fill="rgb(0, 0, 0)" stroke="rgb(204, 204, 204)" stroke-width="1px"></line><line x1="67.02124953269958" y1="0" x2="67.02124953269958" y2="5" style="visibility: inherit;" fill="rgb(0, 0, 0)" stroke="rgb(204, 204, 204)" stroke-width="1px"></line><line x1="89.36166604359944" y1="0" x2="89.36166604359944" y2="5" style="visibility: inherit;" fill="rgb(0, 0, 0)" stroke="rgb(204, 204, 204)" stroke-width="1px"></line><line x1="111.70208255449931" y1="0" x2="111.70208255449931" y2="5" style="visibility: inherit;" fill="rgb(0, 0, 0)" stroke="rgb(204, 204, 204)" stroke-width="1px"></line><line x1="134.04249906539917" y1="0" x2="134.04249906539917" y2="5" style="visibility: inherit;" fill="rgb(0, 0, 0)" stroke="rgb(204, 204, 204)" stroke-width="1px"></line><line x1="156.38291557629904" y1="0" x2="156.38291557629904" y2="5" style="visibility: inherit;" fill="rgb(0, 0, 0)" stroke="rgb(204, 204, 204)" stroke-width="1px"></line><line x1="178.72333208719888" y1="0" x2="178.72333208719888" y2="5" style="visibility: inherit;" fill="rgb(0, 0, 0)" stroke="rgb(204, 204, 204)" stroke-width="1px"></line><line x1="201.06374859809875" y1="0" x2="201.06374859809875" y2="5" style="visibility: inherit;" fill="rgb(0, 0, 0)" stroke="rgb(204, 204, 204)" stroke-width="1px"></line><line x1="223.40416510899863" y1="0" x2="223.40416510899863" y2="5" style="visibility: inherit;" fill="rgb(0, 0, 0)" stroke="rgb(204, 204, 204)" stroke-width="1px"></line><line x1="245.74458161989847" y1="0" x2="245.74458161989847" y2="5" style="visibility: inherit;" fill="rgb(0, 0, 0)" stroke="rgb(204, 204, 204)" stroke-width="1px"></line><line x1="268.08499813079834" y1="0" x2="268.08499813079834" y2="5" style="visibility: inherit;" fill="rgb(0, 0, 0)" stroke="rgb(204, 204, 204)" stroke-width="1px"></line></g><g transform="translate(0, 8)"><text style="text-anchor: middle; visibility: hidden; font-family: Roboto, sans-serif; font-size: 12px; font-weight: 200;" x="0" y="0" dx="0em" dy="0.95em" fill="rgb(255, 255, 255)" stroke="none" stroke-width="1px">-50</text><text style="text-anchor: middle; visibility: inherit; font-family: Roboto, sans-serif; font-size: 12px; font-weight: 200;" x="22.34041651089986" y="0" dx="0em" dy="0.95em" fill="rgb(255, 255, 255)" stroke="none" stroke-width="1px">0</text><text style="text-anchor: middle; visibility: hidden; font-family: Roboto, sans-serif; font-size: 12px; font-weight: 200;" x="44.68083302179972" y="0" dx="0em" dy="0.95em" fill="rgb(255, 255, 255)" stroke="none" stroke-width="1px">50</text><text style="text-anchor: middle; visibility: inherit; font-family: Roboto, sans-serif; font-size: 12px; font-weight: 200;" x="67.02124953269958" y="0" dx="0em" dy="0.95em" fill="rgb(255, 255, 255)" stroke="none" stroke-width="1px">100</text><text style="text-anchor: middle; visibility: hidden; font-family: Roboto, sans-serif; font-size: 12px; font-weight: 200;" x="89.36166604359944" y="0" dx="0em" dy="0.95em" fill="rgb(255, 255, 255)" stroke="none" stroke-width="1px">150</text><text style="text-anchor: middle; visibility: inherit; font-family: Roboto, sans-serif; font-size: 12px; font-weight: 200;" x="111.70208255449931" y="0" dx="0em" dy="0.95em" fill="rgb(255, 255, 255)" stroke="none" stroke-width="1px">200</text><text style="text-anchor: middle; visibility: hidden; font-family: Roboto, sans-serif; font-size: 12px; font-weight: 200;" x="134.04249906539917" y="0" dx="0em" dy="0.95em" fill="rgb(255, 255, 255)" stroke="none" stroke-width="1px">250</text><text style="text-anchor: middle; visibility: inherit; font-family: Roboto, sans-serif; font-size: 12px; font-weight: 200;" x="156.38291557629904" y="0" dx="0em" dy="0.95em" fill="rgb(255, 255, 255)" stroke="none" stroke-width="1px">300</text><text style="text-anchor: middle; visibility: hidden; font-family: Roboto, sans-serif; font-size: 12px; font-weight: 200;" x="178.72333208719888" y="0" dx="0em" dy="0.95em" fill="rgb(255, 255, 255)" stroke="none" stroke-width="1px">350</text><text style="text-anchor: middle; visibility: inherit; font-family: Roboto, sans-serif; font-size: 12px; font-weight: 200;" x="201.06374859809875" y="0" dx="0em" dy="0.95em" fill="rgb(255, 255, 255)" stroke="none" stroke-width="1px">400</text><text style="text-anchor: middle; visibility: hidden; font-family: Roboto, sans-serif; font-size: 12px; font-weight: 200;" x="223.40416510899863" y="0" dx="0em" dy="0.95em" fill="rgb(255, 255, 255)" stroke="none" stroke-width="1px">450</text><text style="text-anchor: middle; visibility: inherit; font-family: Roboto, sans-serif; font-size: 12px; font-weight: 200;" x="245.74458161989847" y="0" dx="0em" dy="0.95em" fill="rgb(255, 255, 255)" stroke="none" stroke-width="1px">500</text><text style="text-anchor: middle; visibility: hidden; font-family: Roboto, sans-serif; font-size: 12px; font-weight: 200;" x="268.08499813079834" y="0" dx="0em" dy="0.95em" fill="rgb(255, 255, 255)" stroke="none" stroke-width="1px">550</text></g><line x1="0" y1="0" x2="268.08499813079834" y2="0" fill="rgb(0, 0, 0)" stroke="rgb(204, 204, 204)" stroke-width="1px"></line></g></g></g></g></svg>