<svg viewBox="0 0 330 200" xmlns="http://www.w3.org/2000/svg"><g><g><g><g><g><line x1="51.53200149536133" y1="176.89999961853027" x2="46.53200149536133" y2="176.89999961853027" style="visibility: inherit;" fill="rgb(0, 0, 0)" stroke="rgb(204, 204, 204)" stroke-width="1px"></line><line x1="51.53200149536133" y1="164.26428536006384" x2="46.53200149536133" y2="164.26428536006384" style="visibility: inherit;" fill="rgb(0, 0, 0)" stroke="rgb(204, 204, 204)" stroke-width="1px"></line><line x1="51.53200149536133" y1="151.6285711015974" x2="46.53200149536133" y2="151.6285711015974" style="visibility: inherit;" fill="rgb(0, 0, 0)" stroke="rgb(204, 204, 204)" stroke-width="1px"></line><line x1="51.53200149536133" y1="138.99285684313094" x2="46.53200149536133" y2="138.99285684313094" style="visibility: inherit;" fill="rgb(0, 0, 0)" stroke="rgb(204, 204, 204)" stroke-width="1px"></line><line x1="51.53200149536133" y1="126.3571425846645" x2="46.53200149536133" y2="126.3571425846645" style="visibility: inherit;" fill="rgb(0, 0, 0)" stroke="rgb(204, 204, 204)" stroke-width="1px"></line><line x1="51.53200149536133" y1="113.72142832619804" x2="46.53200149536133" y2="113.72142832619804" style="visibility: inherit;" fill="rgb(0, 0, 0)" stroke="rgb(204, 204, 204)" stroke-width="1px"></line><line x1="51.53200149536133" y1="101.08571406773157" x2="46.53200149536133" y2="101.08571406773157" style="visibility: inherit;" fill="rgb(0, 0, 0)" stroke="rgb(204, 204, 204)" stroke-width="1px"></line><line x1="51.53200149536133" y1="88.44999980926515" x2="46.53200149536133" y2="88.44999980926515" style="visibility: inherit;" fill="rgb(0, 0, 0)" stroke="rgb(204, 204, 204)" stroke-width="1px"></line><line x1="51.53200149536133" y1="75.8142855507987" x2="46.53200149536133" y2="75.8142855507987" style="visibility: inherit;" fill="rgb(0, 0, 0)" stroke="rgb(204, 204, 204)" stroke-width="1px"></line><line x1="51.53200149536133" y1="63.17857129233223" x2="46.53200149536133" y2="63.17857129233223" style="visibility: inherit;" fill="rgb(0, 0, 0)" stroke="rgb(204, 204, 204)" stroke-width="1px"></line><line x1="51.53200149536133" y1="50.54285703386577" x2="46.53200149536133" y2="50.54285703386577" style="visibility: inherit;" fill="rgb(0, 0, 0)" stroke="rgb(204, 204, 204)" stroke-width="1px"></line><line x1="51.53200149536133" y1="37.90714277539931" x2="46.53200149536133" y2="37.90714277539931" style="visibility: inherit;" fill="rgb(0, 0, 0)" stroke="rgb(204, 204, 204)" stroke-width="1px"></line><line x1="51.53200149536133" y1="25.271428516932925" x2="46.53200149536133" y2="25.271428516932925" style="visibility: inherit;" fill="rgb(0, 0, 0)" stroke="rgb(204, 204, 204)" stroke-width="1px"></line><line x1="51.53200149536133" y1="12.635714258466463" x2="46.53200149536133" y2="12.635714258466463" style="visibility: inherit;" fill="rgb(0, 0, 0)" stroke="rgb(204, 204, 204)" stroke-width="1px"></line><line x1="51.53200149536133" y1="0" x2="46.53200149536133" y2="0" style="visibility: inherit;" fill="rgb(0, 0, 0)" stroke="rgb(204, 204, 204)" stroke-width="1px"></line></g><g transform="translate(41.53200149536133, 0)"><text style="text-anchor: end; visibility: hidden; font-family: Roboto, sans-serif; font-size: 12px; font-weight: 200;" x="0" y="176.89999961853027" dx="0em" dy="0.3em" fill="rgb(255, 255, 255)" stroke="none" stroke-width="1px">0.34</text><text style="text-anchor: end; visibility: inherit; font-family: Roboto, sans-serif; font-size: 12px; font-weight: 200;" x="0" y="164.26428536006384" dx="0em" dy="0.3em" fill="rgb(255, 255, 255)" stroke="none" stroke-width="1px">0.36</text><text style="text-anchor: end; visibility: hidden; font-family: Roboto, sans-serif; font-size: 12px; font-weight: 200;" x="0" y="151.6285711015974" dx="0em" dy="0.3em" fill="rgb(255, 255, 255)" stroke="none" stroke-width="1px">0.38</text><text style="text-anchor: end; visibility: inherit; font-family: Roboto, sans-serif; font-size: 12px; font-weight: 200;" x="0" y="138.99285684313094" dx="0em" dy="0.3em" fill="rgb(255, 255, 255)" stroke="none" stroke-width="1px">0.4</text><text style="text-anchor: end; visibility: hidden; font-family: Roboto, sans-serif; font-size: 12px; font-weight: 200;" x="0" y="126.3571425846645" dx="0em" dy="0.3em" fill="rgb(255, 255, 255)" stroke="none" stroke-width="1px">0.42</text><text style="text-anchor: end; visibility: inherit; font-family: Roboto, sans-serif; font-size: 12px; font-weight: 200;" x="0" y="113.72142832619804" dx="0em" dy="0.3em" fill="rgb(255, 255, 255)" stroke="none" stroke-width="1px">0.44</text><text style="text-anchor: end; visibility: hidden; font-family: Roboto, sans-serif; font-size: 12px; font-weight: 200;" x="0" y="101.08571406773157" dx="0em" dy="0.3em" fill="rgb(255, 255, 255)" stroke="none" stroke-width="1px">0.46</text><text style="text-anchor: end; visibility: inherit; font-family: Roboto, sans-serif; font-size: 12px; font-weight: 200;" x="0" y="88.44999980926515" dx="0em" dy="0.3em" fill="rgb(255, 255, 255)" stroke="none" stroke-width="1px">0.48</text><text style="text-anchor: end; visibility: hidden; font-family: Roboto, sans-serif; font-size: 12px; font-weight: 200;" x="0" y="75.8142855507987" dx="0em" dy="0.3em" fill="rgb(255, 255, 255)" stroke="none" stroke-width="1px">0.5</text><text style="text-anchor: end; visibility: inherit; font-family: Roboto, sans-serif; font-size: 12px; font-weight: 200;" x="0" y="63.17857129233223" dx="0em" dy="0.3em" fill="rgb(255, 255, 255)" stroke="none" stroke-width="1px">0.52</text><text style="text-anchor: end; visibility: hidden; font-family: Roboto, sans-serif; font-size: 12px; font-weight: 200;" x="0" y="50.54285703386577" dx="0em" dy="0.3em" fill="rgb(255, 255, 255)" stroke="none" stroke-width="1px">0.54</text><text style="text-anchor: end; visibility: inherit; font-family: Roboto, sans-serif; font-size: 12px; font-weight: 200;" x="0" y="37.90714277539931" dx="0em" dy="0.3em" fill="rgb(255, 255, 255)" stroke="none" stroke-width="1px">0.56</text><text style="text-anchor: end; visibility: hidden; font-family: Roboto, sans-serif; font-size: 12px; font-weight: 200;" x="0" y="25.271428516932925" dx="0em" dy="0.3em" fill="rgb(255, 255, 255)" stroke="none" stroke-width="1px">0.58</text><text style="text-anchor: end; visibility: inherit; font-family: Roboto, sans-serif; font-size: 12px; font-weight: 200;" x="0" y="12.635714258466463" dx="0em" dy="0.3em" fill="rgb(255, 255, 255)" stroke="none" stroke-width="1px">0.6</text><text style="text-anchor: end; visibility: hidden; font-family: Roboto, sans-serif; font-size: 12px; font-weight: 200;" x="0" y="0" dx="0em" dy="0.3em" fill="rgb(255, 255, 255)" stroke="none" stroke-width="1px">0.62</text></g><line x1="51.53200149536133" y1="0" x2="51.53200149536133" y2="176.89999961853027" fill="rgb(0, 0, 0)" stroke="rgb(204, 204, 204)" stroke-width="1px"></line></g></g><g transform="translate(51, 0)" clip-path="url(#clip_0)"><clipPath id="clip_0"><rect width="278" height="176"></rect></clipPath><g><g><g><line x1="0" y1="0" x2="0" y2="176.89999961853027" fill="rgb(0, 0, 0)" stroke="rgb(189, 189, 189)" stroke-width="1px" opacity="0.25"></line><line x1="23.205666542053223" y1="0" x2="23.205666542053223" y2="176.89999961853027" fill="rgb(0, 0, 0)" stroke="rgb(189, 189, 189)" stroke-width="1px" opacity="0.25"></line><line x1="46.411333084106445" y1="0" x2="46.411333084106445" y2="176.89999961853027" fill="rgb(0, 0, 0)" stroke="rgb(189, 189, 189)" stroke-width="1px" opacity="0.25"></line><line x1="69.61699962615967" y1="0" x2="69.61699962615967" y2="176.89999961853027" fill="rgb(0, 0, 0)" stroke="rgb(189, 189, 189)" stroke-width="1px" opacity="0.25"></line><line x1="92.82266616821289" y1="0" x2="92.82266616821289" y2="176.89999961853027" fill="rgb(0, 0, 0)" stroke="rgb(189, 189, 189)" stroke-width="1px" opacity="0.25"></line><line x1="116.02833271026611" y1="0" x2="116.02833271026611" y2="176.89999961853027" fill="rgb(0, 0, 0)" stroke="rgb(189, 189, 189)" stroke-width="1px" opacity="0.25"></line><line x1="139.23399925231934" y1="0" x2="139.23399925231934" y2="176.89999961853027" fill="rgb(0, 0, 0)" stroke="rgb(189, 189, 189)" stroke-width="1px" opacity="0.25"></line><line x1="162.43966579437256" y1="0" x2="162.43966579437256" y2="176.89999961853027" fill="rgb(0, 0, 0)" stroke="rgb(189, 189, 189)" stroke-width="1px" opacity="0.25"></line><line x1="185.64533233642578" y1="0" x2="185.64533233642578" y2="176.89999961853027" fill="rgb(0, 0, 0)" stroke="rgb(189, 189, 189)" stroke-width="1px" opacity="0.25"></line><line x1="208.850998878479" y1="0" x2="208.850998878479" y2="176.89999961853027" fill="rgb(0, 0, 0)" stroke="rgb(189, 189, 189)" stroke-width="1px" opacity="0.25"></line><line x1="232.05666542053223" y1="0" x2="232.05666542053223" y2="176.89999961853027" fill="rgb(0, 0, 0)" stroke="rgb(189, 189, 189)" stroke-width="1px" opacity="0.25"></line><line x1="255.26233196258545" y1="0" x2="255.26233196258545" y2="176.89999961853027" fill="rgb(0, 0, 0)" stroke="rgb(189, 189, 189)" stroke-width="1px" opacity="0.25"></line><line x1="278.4679985046387" y1="0" x2="278.4679985046387" y2="176.89999961853027" fill="rgb(0, 0, 0)" stroke="rgb(189, 189, 189)" stroke-width="1px" opacity="0.25"></line></g><g><line x1="0" y1="176.89999961853027" x2="278.4679985046387" y2="176.89999961853027" fill="rgb(0, 0, 0)" stroke="rgb(189, 189, 189)" stroke-width="1px" opacity="0.25"></line><line x1="0" y1="164.26428536006384" x2="278.4679985046387" y2="164.26428536006384" fill="rgb(0, 0, 0)" stroke="rgb(189, 189, 189)" stroke-width="1px" opacity="0.25"></line><line x1="0" y1="151.6285711015974" x2="278.4679985046387" y2="151.6285711015974" fill="rgb(0, 0, 0)" stroke="rgb(189, 189, 189)" stroke-width="1px" opacity="0.25"></line><line x1="0" y1="138.99285684313094" x2="278.4679985046387" y2="138.99285684313094" fill="rgb(0, 0, 0)" stroke="rgb(189, 189, 189)" stroke-width="1px" opacity="0.25"></line><line x1="0" y1="126.3571425846645" x2="278.4679985046387" y2="126.3571425846645" fill="rgb(0, 0, 0)" stroke="rgb(189, 189, 189)" stroke-width="1px" opacity="0.25"></line><line x1="0" y1="113.72142832619804" x2="278.4679985046387" y2="113.72142832619804" fill="rgb(0, 0, 0)" stroke="rgb(189, 189, 189)" stroke-width="1px" opacity="0.25"></line><line x1="0" y1="101.08571406773157" x2="278.4679985046387" y2="101.08571406773157" fill="rgb(0, 0, 0)" stroke="rgb(189, 189, 189)" stroke-width="1px" opacity="0.25"></line><line x1="0" y1="88.44999980926515" x2="278.4679985046387" y2="88.44999980926515" fill="rgb(0, 0, 0)" stroke="rgb(189, 189, 189)" stroke-width="1px" opacity="0.25"></line><line x1="0" y1="75.8142855507987" x2="278.4679985046387" y2="75.8142855507987" fill="rgb(0, 0, 0)" stroke="rgb(189, 189, 189)" stroke-width="1px" opacity="0.25"></line><line x1="0" y1="63.17857129233223" x2="278.4679985046387" y2="63.17857129233223" fill="rgb(0, 0, 0)" stroke="rgb(189, 189, 189)" stroke-width="1px" opacity="0.25"></line><line x1="0" y1="50.54285703386577" x2="278.4679985046387" y2="50.54285703386577" fill="rgb(0, 0, 0)" stroke="rgb(189, 189, 189)" stroke-width="1px" opacity="0.25"></line><line x1="0" y1="37.90714277539931" x2="278.4679985046387" y2="37.90714277539931" fill="rgb(0, 0, 0)" stroke="rgb(189, 189, 189)" stroke-width="1px" opacity="0.25"></line><line x1="0" y1="25.271428516932925" x2="278.4679985046387" y2="25.271428516932925" fill="rgb(0, 0, 0)" stroke="rgb(189, 189, 189)" stroke-width="1px" opacity="0.25"></line><line x1="0" y1="12.635714258466463" x2="278.4679985046387" y2="12.635714258466463" fill="rgb(0, 0, 0)" stroke="rgb(189, 189, 189)" stroke-width="1px" opacity="0.25"></line><line x1="0" y1="0" x2="278.4679985046387" y2="0" fill="rgb(0, 0, 0)" stroke="rgb(189, 189, 189)" stroke-width="1px" opacity="0.25"></line></g></g></g><g><g><line x1="0" y1="391.70714201245994" x2="278.4679985046387" y2="391.70714201245994" fill="rgb(0, 0, 0)" stroke="rgb(153, 153, 153)" stroke-width="1.5px"></line></g></g><g><g><line x1="23.205666542053223" y1="0" x2="23.205666542053223" y2="176.89999961853027" fill="rgb(0, 0, 0)" stroke="rgb(153, 153, 153)" stroke-width="1.5px"></line></g></g><g><g><g><g><g><path style="fill: none;" stroke="rgb(204, 51, 17)" stroke-width="2px" d="M29.239139842987058,-8.868606509323179L29.703253173828127,10.289212781596287L30.16736650466919,16.32473200176318L30.631479835510255,24.404355299188307L31.095593166351318,28.961609254531353L31.55970649719238,41.85574396819018L32.023819828033446,41.97980602270129L32.48793315887451,42.356650674103925L32.95204648971558,39.06516172370236L33.416159820556636,32.009343784320436L33.88027315139771,45.88770499751613L34.34438648223877,51.894934293989635L34.808499813079834,54.470881792741515L35.2726131439209,57.09689858164853L35.73672647476196,62.92485429009502L36.20083980560303,64.18670529638952L36.66495313644409,68.55823035350441L37.129066467285156,71.46457671515641L37.59317979812622,68.29362354091658L38.05729312896728,63.528429304136935L38.521406459808354,65.787204755145L38.98551979064942,58.94705274645236L39.44963312149048,63.39008350905404L39.913746452331544,66.99343471510552L40.3778597831726,65.13970940881953L40.84197311401367,72.19311943345711L41.30608644485474,63.15577263936135L41.7701997756958,69.69293636727195L42.23431310653687,73.61723044090228L42.698426437377925,68.85644061282467L43.16253976821899,65.42215213899388L43.626653099060064,76.12090285574594L44.09076642990112,79.02898075940277L44.55487976074219,80.22243332957198L45.01899309158325,81.1104408596021L45.483106422424314,80.44873876050929L45.94721975326539,83.72156309125987L46.411333084106445,88.36049700850708L46.87544641494751,85.36493583950653L47.33955974578858,89.0021967931765L47.803673076629636,89.32058168047422L48.2677864074707,91.3084186251178L48.73189973831177,90.30124542910681L49.19601306915283,86.35378107676542L49.6601263999939,91.38757265152557L50.12423973083496,91.33487874112116L50.588353061676024,85.60297698096252L51.05246639251708,88.89878751290544L51.516579723358156,91.01949231500599L51.98069305419922,86.72128408313519L52.44480638504028,89.82834229146384L52.908919715881346,86.98163357456887L53.37303304672242,94.70197269465089L53.83714637756348,98.10179377391991L54.301259708404544,95.79612464123724L54.7653730392456,101.06254651488359L55.22948637008667,98.09834085645062L55.693599700927734,96.03652111959478L56.1577130317688,92.92276706125448L56.621826362609866,90.53149151164104L57.085939693450925,98.37692387165983L57.55005302429199,96.414024958399L58.01416635513306,86.99293822183125L58.478279685974115,89.81225141923213L58.94239301681519,95.28930056370451L59.406506347656254,99.79367795995688L59.87061967849731,101.0126419531486L60.33473300933838,99.31387774303883L60.79884634017944,93.73065226284245L61.26295967102051,96.83192786408299L61.72707300186158,99.37253666188447L62.191186332702635,103.59118835356797L62.6552996635437,104.34250410671577L63.11941299438476,107.13844349635411L63.58352632522583,107.53027931694099L64.04763965606689,106.93599245231836L64.51175298690795,105.19045109396717L64.97586631774902,102.42522750510798L65.43997964859008,105.41384793858235L65.90409297943116,110.10871583556222L66.36820631027221,111.54820555019359L66.83231964111327,110.3259676651211L67.29643297195435,110.02123350819092L67.76054630279542,102.49741395187671L68.22465963363648,106.51109148767279L68.68877296447754,112.27142842774971L69.1528862953186,112.1139396613201L69.61699962615967,108.3954674794169L70.08111295700073,109.5566498063521L70.5452262878418,108.39623362620715L71.00933961868286,101.30471680722412L71.47345294952392,105.86633682656141L71.937566280365,110.1830653416089L72.40167961120606,111.60629658977308L72.86579294204712,102.60814280858321L73.32990627288818,105.77662447408981L73.79401960372925,108.95966801881795L74.25813293457031,112.17966911890596L74.72224626541137,113.37735120059602L75.18635959625244,114.51504924235873L75.6504729270935,114.58557775785614L76.11458625793456,111.2433640534362L76.57869958877563,114.93776391572767L77.04281291961671,114.07647173740031L77.50692625045777,111.36836928900782L77.97103958129884,107.84639765564035L78.4351529121399,113.62738040014253L78.89926624298096,116.27434663811825L79.36337957382202,117.11932066487458L79.82749290466309,118.53954132234331L80.29160623550415,113.70391314184022L80.7557195663452,115.17966241544305L81.21983289718628,111.64124547875318L81.68394622802734,116.92080441916968L82.1480595588684,116.39878851117062L82.61217288970948,115.39161401819172L83.07628622055054,117.32450427994549L83.5403995513916,111.39381640525166L84.00451288223267,113.8470778289399L84.46862621307373,115.61409518514789L84.93273954391479,114.81802354749765L85.39685287475585,120.58143324287481L85.86096620559692,123.19895918662557L86.32507953643798,123.64420496339297L86.78919286727904,122.73870214585261L87.25330619812013,120.73110895829225L87.71741952896119,119.51702573291885L88.18153285980225,123.49570851445196L88.64564619064332,122.72759267524641L89.10975952148438,125.16420871543575L89.57387285232544,125.70528259050164L90.0379861831665,126.32437736825572L90.50209951400757,118.34013986954373L90.96621284484863,116.42779481270418L91.43032617568969,122.02200471988799L91.89443950653077,120.50385280801278L92.35855283737183,116.99534923016061L92.82266616821289,119.07266210426253L93.28677949905396,120.94852277704145L93.75089282989502,120.12815519982833L94.21500616073608,118.72265322324992L94.67911949157715,118.48282634221029L95.14323282241821,122.00634313810805L95.60734615325927,120.38244779845856L96.07145948410033,121.74190307173987L96.5355728149414,121.23986225838632L96.99968614578246,118.94663858277258L97.46379947662354,119.82701306438098L97.92791280746461,123.31198845493697L98.39202613830567,123.66840023508878L98.85613946914673,126.7009837694016L99.3202527999878,126.72825429275706L99.78436613082886,129.4671008531821L100.24847946166992,129.2187438797939L100.71259279251099,127.19936379062658L101.17670612335205,125.90495732179507L101.6408194541931,125.3849257748754L102.10493278503417,125.4616739307903L102.56904611587525,127.55404652379457L103.03315944671631,127.34050153807733L103.49727277755737,130.5298526598201L103.96138610839844,133.73152590256743L104.4254994392395,126.55783232853229L104.88961277008056,126.8988853849436L105.35372610092163,128.84960629457538L105.81783943176269,129.98485933184645L106.28195276260375,132.80599624690046L106.74606609344484,129.50040907440453L107.2101794242859,127.99702998814264L107.67429275512696,131.40695135442198L108.13840608596801,130.40310966011563L108.60251941680909,131.7982114284593L109.06663274765015,129.2108926542279L109.5307460784912,130.03222573447783L109.99485940933228,128.3671005222065L110.45897274017334,128.63671701702177L110.9230860710144,127.54582226542266L111.38719940185547,132.31394568544965L111.85131273269654,130.60583682258462L112.3154260635376,131.3418072039987L112.77953939437867,131.45928757251195L113.24365272521973,134.63953589252387L113.70776605606079,132.61972819693375L114.17187938690185,132.49343003994076L114.63599271774292,129.26812487152046L115.10010604858398,130.47153234647965L115.56421937942504,133.31167546477508L116.02833271026611,132.05553109382086L116.49244604110717,132.4050621089627L116.95655937194823,134.05734391663697L117.42067270278932,138.38721145443733L117.88478603363038,134.61328774600312L118.34889936447144,133.56520609383443L118.81301269531251,133.60989669702533L119.27712602615357,134.61343761436098L119.74123935699463,130.3292331204668L120.20535268783568,128.907327778669L120.66946601867676,128.81621143964333L121.13357934951782,122.22039743256967L121.59769268035888,124.67802156951885L122.06180601119996,131.38857371137354L122.52591934204102,133.7502311394921L122.99003267288208,133.60217805890318L123.45414600372315,130.83429596661415L123.91825933456421,128.58394278444212L124.38237266540527,128.91826522537562L124.84648599624633,128.12799556044715L125.3105993270874,134.20075460463136L125.77471265792846,130.30810222714132L126.23882598876952,127.44488595628029L126.7029393196106,126.2331088097521L127.16705265045167,128.6385100106239L127.63116598129272,131.35819223862896L128.09527931213378,130.77720973712997L128.55939264297484,134.5190609136699L129.0235059738159,135.23258641488928L129.487619304657,135.74055791958384L129.95173263549805,136.6758003936287L130.4158459663391,138.10791549524723L130.87995929718016,131.05483032537003L131.34407262802125,131.9501346355518L131.8081859588623,134.77684723426992L132.27229928970337,136.71838573726973L132.73641262054443,138.51864880454164L133.2005259513855,138.96043149597554L133.66463928222655,133.26836988689033L134.12875261306763,130.3198959357369L134.5928659439087,135.2005520721022L135.05697927474975,135.39874927956868L135.52109260559084,130.64825424720948L135.9852059364319,126.86450651392444L136.44931926727295,133.65967302817361L136.913432598114,137.39150763838586L137.37754592895507,141.620822633109L137.84165925979613,143.91994261305362L138.3057725906372,147.16371013924038L138.76988592147828,147.70612675699263L139.23399925231934,148.36061170253126L139.69811258316042,146.57641336142996L140.16222591400145,145.5326988677475L140.62633924484254,147.8601480323088L141.0904525756836,143.74927338216054L141.55456590652466,146.02231936131093L142.01867923736572,150.18926314085343L142.4827925682068,150.9596158450794L142.94690589904783,150.8015052585046L143.41101922988892,150.62776179403463L143.87513256073,151.27316084045353L144.33924589157104,152.15801972583907L144.80335922241213,153.32145825179057L145.26747255325316,154.75803497596166L145.73158588409424,153.52608099860362L146.1956992149353,150.63772005998192L146.65981254577636,151.9277763461031L147.12392587661742,151.69141787983904L147.5880392074585,151.01629169390168L148.05215253829954,152.0229453321098L148.51626586914062,152.42565137836473L148.9803791999817,152.1950290797681L149.44449253082274,153.17123079900324L149.90860586166383,154.86041047538185L150.3727191925049,153.44337650713652L150.83683252334595,155.80686560989903L151.300945854187,156.3541928041251L151.7650591850281,155.73677926025692L152.22917251586912,157.199348466454L152.6932858467102,158.4080111829694L153.15739917755127,157.35911772197198L153.62151250839233,156.77239471733643L154.08562583923342,158.84390595058346L154.54973917007447,159.79422251154898L155.01385250091553,159.3418568819448L155.4779658317566,159.07989703376612L155.94207916259768,157.97752884520818L156.4061924934387,158.742885164096L156.8703058242798,157.9336332774285L157.33441915512083,159.43184943347947L157.7985324859619,158.69871654646767L158.26264581680297,153.86386857376988L158.72675914764403,155.6961890594625L159.1908724784851,157.52434170246306L159.65498580932618,158.56364764877455L160.11909914016724,154.74244228483101L160.5832124710083,152.2908200575798L161.04732580184938,155.39914022209777L161.5114391326904,154.20982645464804L161.9755524635315,154.28982946189186L162.43966579437256,156.97848606286618L162.90377912521362,156.5793910486685L163.36789245605468,158.0967328699701L163.83200578689576,156.85821301208517L164.2961191177368,156.73151447218598L164.76023244857788,157.74402661439362L165.22434577941897,158.18745323768525L165.68845911026,155.3478612967951L166.15257244110109,155.562831622951L166.61668577194214,156.87387091152098L167.0807991027832,160.21220258990164L167.54491243362426,162.261527684884L168.00902576446535,161.32036405214413L168.47313909530638,161.33891817348038L168.93725242614747,160.13036631630314L169.4013657569885,157.63273325180845L169.86547908782958,157.34528952169126L170.32959241867067,156.267261612784L170.7937057495117,155.56249018579348L171.2578190803528,157.78712823481936L171.72193241119385,159.79508161656966L172.1860457420349,159.55159665374612L172.65015907287597,154.48669339043875L173.11427240371705,158.81828399308733L173.57838573455808,159.2567676565169L174.04249906539917,159.13768080903165L174.50661239624026,157.98470170391008L174.9707257270813,158.01627452656894L175.43483905792237,156.81070621624949L175.89895238876343,158.88975086926803L176.3630657196045,160.29756037006618L176.82717905044555,160.4658294535203L177.29129238128664,161.7355097584972L177.75540571212767,159.30155595697596L178.21951904296876,155.6624416253795L178.68363237380984,155.89580752036466L179.14774570465087,153.59097548534595L179.61185903549196,158.67863550679888L180.075972366333,159.43005031895157L180.54008569717408,156.65930427072274L181.00419902801514,160.18241862389561L181.4683123588562,158.7257817692039L181.93242568969725,157.4576400379415L182.39653902053834,157.2744340104413L182.86065235137937,158.07328800357772L183.32476568222046,157.87265905325867L183.78887901306155,157.9492899433012L184.25299234390258,158.3384475577542L184.71710567474366,157.31285313181115L185.18121900558472,156.59879652784076L185.64533233642578,150.43761650464276L186.10944566726684,156.10900599720904L186.57355899810793,157.3451329352776L187.03767232894896,158.5096184383311L187.50178565979004,161.21761625179644L187.9658989906311,161.50322873417477L188.43001232147216,160.63207472355938L188.89412565231325,161.28078990781225L189.3582389831543,163.52194787857698L189.82235231399537,164.49376698415216L190.28646564483643,156.1677665385334L190.7505789756775,159.79478355689332L191.21469230651854,158.35147347764223L191.67880563735963,158.79954111173095L192.14291896820066,162.19250430933363L192.60703229904175,160.3575421376295L193.0711456298828,160.70497245593273L193.53525896072387,162.2070363804489L193.99937229156492,164.1903289348709L194.463485622406,164.44626629879195L194.92759895324707,165.58318296845235L195.39171228408813,163.3092149123559L195.85582561492922,163.21715587066865L196.31993894577025,159.93799075363026L196.78405227661133,160.11599734551342L197.2481656074524,161.36670395333533L197.71227893829345,163.7573018946595L198.1763922691345,164.04816470628234L198.6405055999756,163.0639050821818L199.10461893081663,164.53811758357077L199.56873226165771,161.2395974198926L200.0328455924988,163.02671116670075L200.49695892333983,165.5250411569113L200.96107225418092,166.90134393093396L201.42518558502198,165.85059141415493L201.88929891586304,163.413399879466L202.3534122467041,162.4396214602329L202.81752557754518,163.33195986342784L203.2816389083862,165.51027833800174L203.7457522392273,164.4202577646825L204.20986557006833,167.9284986893578L204.67397890090942,168.548492917789L205.1380922317505,168.43693125665504L205.60220556259154,169.14258025061088L206.06631889343262,167.7596513848284L206.53043222427368,164.9293767822482L206.99454555511474,159.49952550902216L207.4586588859558,159.690931286098L207.9227722167969,162.96138645642776L208.38688554763792,163.9750555218877L208.850998878479,161.42973147498924L209.3151122093201,164.27383386896355L209.77922554016112,166.38163241718195L210.2433388710022,165.93600449664385L210.70745220184327,167.12767733642846L211.17156553268433,168.5014514170255L211.63567886352538,167.91252540992906L212.09979219436647,170.11529135385263L212.5639055252075,167.31512659644918L213.0280188560486,167.60108853797925L213.49213218688968,164.4594052143794L213.9562455177307,165.3391009020189L214.4203588485718,165.99751404946224L214.88447217941282,164.3205559169117L215.3485855102539,163.13416796104224L215.81269884109497,162.6115709680328L216.27681217193603,164.97318430777452L216.7409255027771,166.99639066697065L217.20503883361818,165.11581314706913L217.6691521644592,162.1624853838729L218.1332654953003,166.0095773337855L218.59737882614138,165.77674377485846L219.0614921569824,165.41878909506755L219.5256054878235,165.80708389258012L219.98971881866456,165.0191696603485L220.45383214950562,164.76209990181536L220.91794548034667,161.349170608627L221.38205881118776,159.28233581262174L221.8461721420288,162.99645267331778L222.31028547286988,164.29318172014575L222.77439880371094,164.9379045517749L223.238512134552,165.70346588184515L223.70262546539308,162.96209251788272L224.16673879623414,164.78569238649945L224.6308521270752,164.5238483236559L225.09496545791626,167.00279495282012L225.55907878875735,167.60259394751972L226.02319211959838,166.66314369163032L226.48730545043946,164.47707383679833L226.9514187812805,168.64499247036795L227.41553211212158,168.31832339638183L227.87964544296264,169.27570672868373L228.3437587738037,169.67218309350537L228.80787210464476,170.3923844176122L229.27198543548585,170.11245719818757L229.7360987663269,167.2703611427314L230.20021209716796,167.48272940514826L230.66432542800905,166.45106426114762L231.12843875885008,168.99634560379246L231.59255208969117,169.03716322910194L232.05666542053223,166.26615946250516L232.52077875137329,168.79226853445277L232.98489208221434,169.73269516348608L233.44900541305543,169.80468656038946L233.91311874389646,167.99422783109333L234.37723207473755,167.5235601007794L234.84134540557864,169.3590999349864L235.30545873641967,168.80377099683383L235.76957206726075,170.1142196194413L236.2336853981018,167.26541601182254L236.69779872894287,169.45724083503458L237.16191205978393,168.97650127666307L237.62602539062502,166.14257796424053L238.09013872146605,166.121892995725L238.55425205230713,166.04768628194427L239.01836538314816,165.6717322705022L239.48247871398925,165.99204099758288L239.94659204483034,168.10589653030732L240.41070537567137,164.99914729152934L240.87481870651246,168.60806072473503L241.33893203735352,169.44695076764916L241.80304536819457,168.94971359572943L242.26715869903563,162.2659176904775L242.73127202987672,164.4954049434793L243.19538536071775,166.2183773075339L243.65949869155884,166.92177761748425L244.12361202239993,165.57795861209814L244.58772535324096,165.7596156584594L245.05183868408204,169.8131132191725L245.5159520149231,170.5340611812002L245.98006534576416,171.4529823329435L246.44417867660522,173.46989180842215L246.9082920074463,171.77353677729621L247.37240533828734,172.94983754487814L247.83651866912842,170.50585072407964L248.3006319999695,170.85498035327197L248.76474533081054,170.5088915230796L249.22885866165163,169.67053011514028L249.69297199249266,170.71572796657892L250.15708532333375,170.58667929707082L250.6211986541748,172.1389101362494L251.08531198501586,171.55151965877778L251.54942531585692,171.9895435474075L252.013538646698,174.52180145577393L252.47765197753904,174.2343333299737L252.94176530838013,172.52198262993056L253.4058786392212,172.14389811999231L253.86999197006224,172.61998987754637L254.33410530090333,175.0275620220062L254.7982186317444,174.5279234406089" fill="none"></path></g><g><path style="fill: none;" stroke="rgb(0, 119, 187)" stroke-width="2px" d="M34.34438648223877,-1.7523066507932346L34.808499813079834,3.0942016600796833L35.2726131439209,5.829494889877484L35.73672647476196,9.522770635167678L36.20083980560303,9.234172621215123L36.66495313644409,2.9544644220706897L37.129066467285156,9.095047056085434L37.59317979812622,14.239236628119613L38.05729312896728,14.304243662042076L38.521406459808354,15.51761537340917L38.98551979064942,19.696182608342536L39.44963312149048,18.573876094742012L39.913746452331544,20.676171248543632L40.3778597831726,20.892812575632274L40.84197311401367,27.927003758498614L41.30608644485474,28.0340390005715L41.7701997756958,22.998383723277257L42.23431310653687,27.32784338575595L42.698426437377925,28.625481570400947L43.16253976821899,28.703983976897334L43.626653099060064,28.25561996436404L44.09076642990112,29.539214633170467L44.55487976074219,32.768517741497085L45.01899309158325,29.43575583714484L45.483106422424314,30.679798502222415L45.94721975326539,35.12720479918152L46.411333084106445,33.835976858605044L46.87544641494751,35.58905836842641L47.33955974578858,36.83750883502988L47.803673076629636,31.01360690812386L48.2677864074707,36.40239667490618L48.73189973831177,35.02442099586718L49.19601306915283,26.684449405319533L49.6601263999939,29.574007063290185L50.12423973083496,35.186585612854515L50.588353061676024,29.83682978335167L51.05246639251708,30.755428305294622L51.516579723358156,34.21381115624309L51.98069305419922,34.074407167483514L52.44480638504028,34.5384534615975L52.908919715881346,39.36557436576648L53.37303304672242,40.202832677483855L53.83714637756348,44.88271475961108L54.301259708404544,44.488427552363184L54.7653730392456,47.54053298997058L55.22948637008667,46.27075759890013L55.693599700927734,49.79787019086875L56.1577130317688,47.84141862363504L56.621826362609866,46.544001406787544L57.085939693450925,48.17107329877905L57.55005302429199,51.134856989797264L58.01416635513306,47.59033426007901L58.478279685974115,47.01585712481797L58.94239301681519,44.433193760989646L59.406506347656254,45.17379605636295L59.87061967849731,47.48379357392946L60.33473300933838,43.63796426618609L60.79884634017944,41.45792932379855L61.26295967102051,40.856315299278464L61.72707300186158,44.216240796010524L62.191186332702635,47.3593261572647L62.6552996635437,51.76927510070943L63.11941299438476,53.79841686095158L63.58352632522583,53.68060195125681L64.04763965606689,58.142729788902706L64.51175298690795,53.84940265731517L64.97586631774902,51.94962717709979L65.43997964859008,52.312516616567734L65.90409297943116,51.99997435752683L66.36820631027221,51.46738705352517L66.83231964111327,56.97800786147527L67.29643297195435,49.6942863476935L67.76054630279542,52.75115489074544L68.22465963363648,54.76321458819093L68.68877296447754,57.78984330524535L69.1528862953186,57.539289895040646L69.61699962615967,58.4253637932102L70.08111295700073,59.65735976905495L70.5452262878418,61.578878048979234L71.00933961868286,59.866666210977336L71.47345294952392,62.60844950719652L71.937566280365,65.95411093474497L72.40167961120606,63.02632961570406L72.86579294204712,63.937579551714464L73.32990627288818,66.52900382027691L73.79401960372925,64.06013901972611L74.25813293457031,71.59104050265196L74.72224626541137,72.56754489223468L75.18635959625244,69.85198132355576L75.6504729270935,68.41864222525425L76.11458625793456,70.09558518521868L76.57869958877563,63.91943743227581L77.04281291961671,65.4478661664634L77.50692625045777,63.81059434927291L77.97103958129884,63.37420277057585L78.4351529121399,65.28040765147874L78.89926624298096,64.41233868242975L79.36337957382202,62.55021734591699L79.82749290466309,68.47980453824525L80.29160623550415,72.58892843111252L80.7557195663452,75.75903981168459L81.21983289718628,69.7628287314663L81.68394622802734,68.17698435859728L82.1480595588684,68.94489786618932L82.61217288970948,69.1323438930868L83.07628622055054,72.7366206186381L83.5403995513916,71.39602008387742L84.00451288223267,73.24560760878558L84.46862621307373,71.47860119260918L84.93273954391479,71.80427867871545L85.39685287475585,74.43726887133141L85.86096620559692,77.67753428218525L86.32507953643798,74.55347942114601L86.78919286727904,78.01366386083141L87.25330619812013,72.44508882994836L87.71741952896119,76.85551616523206L88.18153285980225,76.08715351965247L88.64564619064332,73.73641414259198L89.10975952148438,75.94075351035823L89.57387285232544,76.53397166720725L90.0379861831665,75.8202677599194L90.50209951400757,72.89579907452405L90.96621284484863,72.61394251877718L91.43032617568969,71.26431544433531L91.89443950653077,70.17375083824949L92.35855283737183,75.7464637450045L92.82266616821289,78.5866351402594L93.28677949905396,82.07534300406658L93.75089282989502,78.43881918762943L94.21500616073608,80.239223754581L94.67911949157715,78.69763284814778L95.14323282241821,74.66480107353351L95.60734615325927,76.37810303785889L96.07145948410033,73.0177813292131L96.5355728149414,73.0200832122292L96.99968614578246,74.33896743812836L97.46379947662354,77.40041938139035L97.92791280746461,72.90387188943116L98.39202613830567,78.14367115628858L98.85613946914673,80.38144677953899L99.3202527999878,75.91900370394632L99.78436613082886,80.79059644570071L100.24847946166992,80.52433495593424L100.71259279251099,79.82046682418904L101.17670612335205,76.69037066471526L101.6408194541931,81.99396372836385L102.10493278503417,78.66199828657854L102.56904611587525,73.68089813849193L103.03315944671631,71.97472732961867L103.49727277755737,75.47528587488547L103.96138610839844,84.85667213673466L104.4254994392395,82.57200487916086L104.88961277008056,85.15466277843265L105.35372610092163,88.77977320524319L105.81783943176269,89.62787683565614L106.28195276260375,90.93664918712781L106.74606609344484,87.52277017655604L107.2101794242859,79.14238730883689L107.67429275512696,81.03571647281854L108.13840608596801,82.12643475794476L108.60251941680909,83.52689574727405L109.06663274765015,78.60222923469692L109.5307460784912,76.57309249835329L109.99485940933228,75.23182317291665L110.45897274017334,72.71307916955735L110.9230860710144,74.14812978516589L111.38719940185547,80.5421715620321L111.85131273269654,78.29819779218508L112.3154260635376,80.30379331942416L112.77953939437867,84.89557522081947L113.24365272521973,84.75844591170825L113.70776605606079,84.28795103967447L114.17187938690185,87.58242576825171L114.63599271774292,85.52526141306454L115.10010604858398,87.3703635328113L115.56421937942504,86.35935629722987L116.02833271026611,80.99074492977047L116.49244604110717,74.81980155133012L116.95655937194823,81.49301393855221L117.42067270278932,86.71911861829463L117.88478603363038,87.84115184923526L118.34889936447144,86.36782678247484L118.81301269531251,82.37063729200966L119.27712602615357,81.25103960993737L119.74123935699463,86.3708327995595L120.20535268783568,87.45323256905162L120.66946601867676,81.84136762296197L121.13357934951782,84.1592677742666L121.59769268035888,86.44675771294601L122.06180601119996,89.00708540851322L122.52591934204102,89.3312797979251L122.99003267288208,88.5928503263668L123.45414600372315,87.16658902157599L123.91825933456421,85.50406089394026L124.38237266540527,86.50512571201172L124.84648599624633,85.54909959439671L125.3105993270874,87.97751383868145L125.77471265792846,83.17808525140303L126.23882598876952,83.1671132915316L126.7029393196106,84.44170891935526L127.16705265045167,83.02784474892728L127.63116598129272,85.10425312677222L128.09527931213378,93.47594070085654L128.55939264297484,95.3563709888185L129.0235059738159,92.55652184454645L129.487619304657,95.36235743770483L129.95173263549805,94.59245146871804L130.4158459663391,89.26684857555217L130.87995929718016,89.04650889376782L131.34407262802125,89.08538248477421L131.8081859588623,90.40673334732764L132.27229928970337,90.3837121585624L132.73641262054443,94.52159358938687L133.2005259513855,94.85462175553796L133.66463928222655,88.95411154276597L134.12875261306763,89.06895710223384L134.5928659439087,90.8887435302723L135.05697927474975,88.87109629531456L135.52109260559084,88.07340587661253L135.9852059364319,83.4089271901279L136.44931926727295,87.52463643240897L136.913432598114,92.49822389650137L137.37754592895507,98.42301725665934L137.84165925979613,95.9301584334475L138.3057725906372,101.83184799438516L138.76988592147828,100.4345353998316L139.23399925231934,104.25175022433707L139.69811258316042,103.58095263186961L140.16222591400145,106.55938978326026L140.62633924484254,106.73669018381673L141.0904525756836,102.10502101237614L141.55456590652466,106.24397835022276L142.01867923736572,105.12847622905642L142.4827925682068,100.73749777176224L142.94690589904783,102.10039794001312L143.41101922988892,98.56122633151362L143.87513256073,99.62620241691836L144.33924589157104,101.05410229139116L144.80335922241213,105.100789903736L145.26747255325316,106.96021394731223L145.73158588409424,104.75434585949937L146.1956992149353,103.42676554308099L146.65981254577636,100.24930045210957L147.12392587661742,98.65841269382554L147.5880392074585,100.67505351047237L148.05215253829954,101.21486497421995L148.51626586914062,102.46829373205934L148.9803791999817,105.31259407465194L149.44449253082274,106.33930071725997L149.90860586166383,108.60562851010087L150.3727191925049,102.65918127527411L150.83683252334595,105.12325427564538L151.300945854187,99.6743550202993L151.7650591850281,103.66944464175566L152.22917251586912,103.50793666932613L152.6932858467102,104.72958185664916L153.15739917755127,104.46858027842597L153.62151250839233,108.26735811082075L154.08562583923342,107.72404729301057L154.54973917007447,106.44143574726907L155.01385250091553,107.92812478649263L155.4779658317566,101.30440638916554L155.94207916259768,103.2463805526141L156.4061924934387,106.98920401607886L156.8703058242798,108.21890997208023L157.33441915512083,108.52646804759605L157.7985324859619,106.44479785093435L158.26264581680297,101.46580380259405L158.72675914764403,101.83567425650135L159.1908724784851,103.88876865057712L159.65498580932618,105.09028851539546L160.11909914016724,108.44049023876319L160.5832124710083,108.57375323826945L161.04732580184938,106.30198612464498L161.5114391326904,103.86040391740666L161.9755524635315,105.19067780183262L162.43966579437256,104.54246800876416L162.90377912521362,102.2222767403564L163.36789245605468,109.70592712202685L163.83200578689576,108.51707822131392L164.2961191177368,110.29685200341743L164.76023244857788,110.7909385642284L165.22434577941897,106.41665739102677L165.68845911026,101.96992420660236L166.15257244110109,101.05788478967247L166.61668577194214,110.0296742939302L167.0807991027832,111.16425183509149L167.54491243362426,111.42811628851102L168.00902576446535,107.00761594246772L168.47313909530638,106.64629179018972L168.93725242614747,112.61175177021302L169.4013657569885,111.41202972993405L169.86547908782958,108.50087689584322L170.32959241867067,110.68661557770953L170.7937057495117,113.37949655380832L171.2578190803528,110.41364960240153L171.72193241119385,113.32575178328896L172.1860457420349,114.96044017089025L172.65015907287597,111.63022322507156L173.11427240371705,111.45867851249918L173.57838573455808,109.37608904947052L174.04249906539917,108.0861440841071L174.50661239624026,109.03192862099681L174.9707257270813,111.53501039538668L175.43483905792237,111.0431656910842L175.89895238876343,108.31134881837195L176.3630657196045,112.95662487162643L176.82717905044555,115.1538351919862L177.29129238128664,115.47849654690675L177.75540571212767,115.06118798735373L178.21951904296876,111.66950094547506L178.68363237380984,110.41383797337754L179.14774570465087,107.18614056024867L179.61185903549196,109.81857281050598L180.075972366333,113.79809406512639L180.54008569717408,113.91658918688799L181.00419902801514,115.48549281004476L181.4683123588562,114.22243320611166L181.93242568969725,109.90273057622696L182.39653902053834,108.62533925356546L182.86065235137937,108.39492689628294L183.32476568222046,107.047772689223L183.78887901306155,110.45543283328186L184.25299234390258,110.28625045850474L184.71710567474366,112.77101859810467L185.18121900558472,107.18994721534804L185.64533233642578,109.01560681626934L186.10944566726684,109.04709922607235L186.57355899810793,110.1171999599027L187.03767232894896,113.98059926565304L187.50178565979004,117.9204435640663L187.9658989906311,116.77495504518376L188.43001232147216,112.94050054202569L188.89412565231325,111.53040941196916L189.3582389831543,110.20635476252042L189.82235231399537,113.63489397360784L190.28646564483643,111.64931882762353L190.7505789756775,108.47336292705046L191.21469230651854,107.60709494794934L191.67880563735963,105.18038036147031L192.14291896820066,111.16838381130557L192.60703229904175,112.69113804306585L193.0711456298828,112.31839246786463L193.53525896072387,107.46667027385408L193.99937229156492,113.94544769943457L194.463485622406,111.06913543939783L194.92759895324707,112.7234880485692L195.39171228408813,109.45079320583865L195.85582561492922,108.98440292691005L196.31993894577025,110.53673503566729L196.78405227661133,111.96661987780465L197.2481656074524,110.02762546151084L197.71227893829345,115.30445128257159L198.1763922691345,112.93506504469472L198.6405055999756,113.43905009008624L199.10461893081663,114.14499248209894L199.56873226165771,116.13913355565401L200.0328455924988,116.92833122460034L200.49695892333983,117.09482181401393L200.96107225418092,118.1856922692397L201.42518558502198,114.59201963988575L201.88929891586304,112.46395364390176L202.3534122467041,111.39467389965594L202.81752557754518,112.76188536165981L203.2816389083862,111.74261993076554L203.7457522392273,117.55921019249055L204.20986557006833,116.9985651621328L204.67397890090942,120.36164501581929L205.1380922317505,117.66055086223942L205.60220556259154,115.052706599231L206.06631889343262,113.78691665739146L206.53043222427368,116.14432756427L206.99454555511474,113.23561845913393L207.4586588859558,115.8043527172726L207.9227722167969,119.07801272517437L208.38688554763792,114.38523800916347L208.850998878479,118.03519177599651L209.3151122093201,117.64146223525879L209.77922554016112,113.53864179342483L210.2433388710022,108.36625203652959L210.70745220184327,112.35366950807665L211.17156553268433,112.87549801580214L211.63567886352538,109.88075729219051L212.09979219436647,113.87302445976707L212.5639055252075,114.54638886537087L213.0280188560486,115.48932956199802L213.49213218688968,110.44429752347502L213.9562455177307,111.19125403068021L214.4203588485718,111.30204055700418L214.88447217941282,113.23647583817409L215.3485855102539,114.22364200409486L215.81269884109497,117.45463831739971L216.27681217193603,119.18283688686834L216.7409255027771,121.1454794515329L217.20503883361818,118.47418876501956L217.6691521644592,113.05752934949265L218.1332654953003,115.67459604331549L218.59737882614138,119.01348189582704L219.0614921569824,114.87818122523493L219.5256054878235,114.48045468224603L219.98971881866456,115.41007066005595L220.45383214950562,117.8864828912333L220.91794548034667,117.84028560540663L221.38205881118776,120.24181359469621L221.8461721420288,118.85973864003L222.31028547286988,120.3409461107182L222.77439880371094,120.21153600136303L223.238512134552,119.55462931524696L223.70262546539308,113.35793755471788L224.16673879623414,111.64059794243572L224.6308521270752,106.75015630736327L225.09496545791626,110.8809322954087L225.55907878875735,116.29002944285503L226.02319211959838,115.63102170676059L226.48730545043946,117.41362103147301L226.9514187812805,122.4299659953942L227.41553211212158,120.54297518253935L227.87964544296264,121.0636828601491L228.3437587738037,116.72140886218918L228.80787210464476,116.16507196153145L229.27198543548585,117.27082043068651L229.7360987663269,116.89599576268282L230.20021209716796,116.82404257594023L230.66432542800905,116.20965365612703L231.12843875885008,117.2259150171409L231.59255208969117,117.4328510218135L232.05666542053223,117.65658622384305L232.52077875137329,118.8076740550145L232.98489208221434,117.49434499321134L233.44900541305543,118.66782921676165L233.91311874389646,118.26902596649917L234.37723207473755,117.43804140310583L234.84134540557864,122.10397724421213L235.30545873641967,119.2592573652033L235.76957206726075,119.56542990247716L236.2336853981018,123.04225475563076L236.69779872894287,122.77627077498254L237.16191205978393,120.01053479741232L237.62602539062502,118.65676555775666L238.09013872146605,116.14404813065308L238.55425205230713,116.98406806104333L239.01836538314816,119.28806431297808L239.48247871398925,119.86129571109136L239.94659204483034,120.5220836021821L240.41070537567137,121.8978812503041L240.87481870651246,121.55472383047149L241.33893203735352,119.33633705402954L241.80304536819457,120.19864303274419L242.26715869903563,114.5488200308349L242.73127202987672,108.88406752570226L243.19538536071775,112.22057431018081L243.65949869155884,117.25122242902884L244.12361202239993,120.00174694589614L244.58772535324096,120.93553241593165L245.05183868408204,124.30082535257267L245.5159520149231,126.24392570983889L245.98006534576416,122.23837557910122L246.44417867660522,123.41355692262637L246.9082920074463,121.90793751393144L247.37240533828734,118.77448930079872L247.83651866912842,121.16566158156016L248.3006319999695,119.62294035614293L248.76474533081054,117.43678011501133L249.22885866165163,121.61620532724005L249.69297199249266,123.13326092662969L250.15708532333375,119.63270995331564L250.6211986541748,118.07434413752192L251.08531198501586,122.23801862520371L251.54942531585692,122.1028589866602L252.013538646698,124.57350143466313L252.47765197753904,126.61306524630876L252.94176530838013,121.9843447155258L253.4058786392212,122.7182322022116L253.86999197006224,121.56894196167379L254.33410530090333,118.48949599531095L254.7982186317444,121.52583776622838" fill="none"></path></g></g></g></g><g opacity="0.2"><g><g><g><path style="fill: none;" stroke="rgb(204, 51, 17)" stroke-width="2px" d="M26.91857318878174,-17.561664873808645L27.3826865196228,5.604165748023501L27.846799850463867,5.268412699578245L28.310913181304933,15.076875408902971L28.775026512145995,-28.461324990580415L29.239139842987058,-0.19804308456902983L29.703253173828127,39.00342242055592L30.16736650466919,25.373754116246413L30.631479835510255,36.520371219526034L31.095593166351318,35.796333101260345L31.55970649719238,61.19498174703415L32.023819828033446,42.16588776470483L32.48793315887451,42.92189698415152L32.95204648971558,34.12803660594616L33.416159820556636,21.42575618006433L33.88027315139771,66.70508241489026L34.34438648223877,60.90573554188522L34.808499813079834,58.334792055629734L35.2726131439209,61.03591704575187L35.73672647476196,71.6667789054799L36.20083980560303,66.07948064348821L36.66495313644409,75.1155155231013L37.129066467285156,75.82409529385835L37.59317979812622,63.53719441047038L38.05729312896728,56.380638517836L38.521406459808354,69.17536776986556L38.98551979064942,48.68682502738102L39.44963312149048,70.05462953838821L39.913746452331544,72.39846146843313L40.3778597831726,62.35912146659857L40.84197311401367,82.77323443112752L41.30608644485474,49.5997524784194L41.7701997756958,79.49868194603005L42.23431310653687,79.50367154662662L42.698426437377925,61.715255874144916L43.16253976821899,60.27071942973491L43.626653099060064,92.16902892809387L44.09076642990112,83.39109761443453L44.55487976074219,82.01261218471419L45.01899309158325,82.44245215459733L45.483106422424314,79.4561856118925L45.94721975326539,88.63079958731967L46.411333084106445,95.31889788432161L46.87544641494751,80.87159408602744L47.33955974578858,94.45808822366554L47.803673076629636,89.79815901141998L48.2677864074707,94.29017404207993L48.73189973831177,88.79048563509134L49.19601306915283,80.4325845482555L49.6601263999939,98.93826001366416L50.12423973083496,91.25583787551454L50.588353061676024,77.00512434072512L51.05246639251708,93.84250331081958L51.516579723358156,94.20054951815668L51.98069305419922,80.27397173532916L52.44480638504028,94.48892960395678L52.908919715881346,82.71157049922654L53.37303304672242,106.28248137477394L53.83714637756348,103.20152539282331L54.301259708404544,92.33762094221336L54.7653730392456,108.9621793253531L55.22948637008667,93.65203236880119L55.693599700927734,92.94379151431106L56.1577130317688,88.25213597374398L56.621826362609866,86.94457818722086L57.085939693450925,110.145072411688L57.55005302429199,93.46967658850777L58.01416635513306,72.86130811697963L58.478279685974115,94.04122121533342L58.94239301681519,103.5048742804131L59.406506347656254,106.55024405433542L59.87061967849731,102.84108794293618L60.33473300933838,96.76573142787421L60.79884634017944,85.35581404254782L61.26295967102051,101.48384126594385L61.72707300186158,103.18344985858667L62.191186332702635,109.91916589109323L62.6552996635437,105.46947773643743L63.11941299438476,111.3323525808116L63.58352632522583,108.11803304782137L64.04763965606689,106.04456215538444L64.51175298690795,102.57213905644046L64.97586631774902,98.27739212181916L65.43997964859008,109.89677858879392L65.90409297943116,117.15101768103206L66.36820631027221,113.70744012214067L66.83231964111327,108.49261083751236L67.29643297195435,109.5641322727956L67.76054630279542,91.2116846174053L68.22465963363648,112.53160779136695L68.68877296447754,120.91193383786509L69.1528862953186,111.87770651167567L69.61699962615967,102.81775920656204L70.08111295700073,111.29842329675492L70.5452262878418,106.6556093559897L71.00933961868286,90.66744157874953L71.47345294952392,112.70876685556735L71.937566280365,116.65815811418017L72.40167961120606,113.74114346201938L72.86579294204712,89.11091213679845L73.32990627288818,110.5293469723497L73.79401960372925,113.73423333591015L74.25813293457031,117.00967076903797L74.72224626541137,115.1738743231311L75.18635959625244,116.22159630500276L75.6504729270935,114.69137053110225L76.11458625793456,106.23004349680626L76.57869958877563,120.47936370916494L77.04281291961671,112.78453346990918L77.50692625045777,107.30621561641911L77.97103958129884,102.56344020558909L78.4351529121399,122.29885451689589L78.89926624298096,120.2447959950818L79.36337957382202,118.38678170500908L79.82749290466309,120.66987230854635L80.29160623550415,106.45047087108557L80.7557195663452,117.39328632584727L81.21983289718628,106.33362007371838L81.68394622802734,124.8401428297944L82.1480595588684,115.61576464917201L82.61217288970948,113.88085227872327L83.07628622055054,120.22383967257622L83.5403995513916,102.49778459321084L84.00451288223267,117.52696996447227L84.46862621307373,118.26462121945991L84.93273954391479,113.62391609102227L85.39685287475585,129.22654778594054L85.86096620559692,127.12524810225179L86.32507953643798,124.31207362854408L86.78919286727904,121.38044791954204L87.25330619812013,117.71971917695174L87.71741952896119,117.69590089485871L88.18153285980225,129.4637326867517L88.64564619064332,121.57541891643808L89.10975952148438,128.81913277571968L89.57387285232544,126.51689340310048L90.0379861831665,127.25301953488692L90.50209951400757,106.36378362147578L90.96621284484863,113.55927722744488L91.43032617568969,130.4133195806637L91.89443950653077,118.2266249402L92.35855283737183,111.73259386338229L92.82266616821289,122.18863141541547L93.28677949905396,123.76231378620984L93.75089282989502,118.8976038340086L94.21500616073608,116.61440025838235L94.67911949157715,118.12308602065086L95.14323282241821,127.29161833195468L95.60734615325927,117.94660478898435L96.07145948410033,123.78108598166185L96.5355728149414,120.48680103835606L96.99968614578246,115.50680306935188L97.46379947662354,121.14757478679357L97.92791280746461,128.53945154077095L98.39202613830567,124.20301790531649L98.85613946914673,131.24985907087085L99.3202527999878,126.76916007779033L99.78436613082886,133.5753706938197L100.24847946166992,128.84620841971162L100.71259279251099,124.1702936568756L101.17670612335205,123.96334761854777L101.6408194541931,124.60487845449587L102.10493278503417,125.57679616466271L102.56904611587525,130.692605413301L103.03315944671631,127.02018405950142L103.49727277755737,135.31387934243426L103.96138610839844,138.5340357666884L104.4254994392395,115.79729196747958L104.88961277008056,127.41046496956048L105.35372610092163,131.77568765902308L105.81783943176269,131.68773888775303L106.28195276260375,137.03770161948157L106.74606609344484,124.54202831566062L107.2101794242859,125.74196135874983L107.67429275512696,136.521833403841L108.13840608596801,128.89734711865606L108.60251941680909,133.89086408097475L109.06663274765015,125.32991449288086L109.5307460784912,131.26422535485267L109.99485940933228,125.86941270379951L110.45897274017334,129.04114175924468L110.9230860710144,125.90948013802402L111.38719940185547,139.46613081549017L111.85131273269654,128.04367352828712L112.3154260635376,132.44576277611984L112.77953939437867,131.63550812528177L113.24365272521973,139.40990837254168L113.70776605606079,129.59001665354862L114.17187938690185,132.30398280445135L114.63599271774292,124.43016711889001L115.10010604858398,132.27664355891847L115.56421937942504,137.57189014221822L116.02833271026611,130.17131453738946L116.49244604110717,132.92935863167546L116.95655937194823,136.5357666281484L117.42067270278932,144.8820127611379L117.88478603363038,128.95240218335178L118.34889936447144,131.99308361558144L118.81301269531251,133.67693260181173L119.27712602615357,136.11874899036434L119.74123935699463,123.90292637962557L120.20535268783568,126.77446976597236L120.66946601867676,128.6795369311048L121.13357934951782,112.32667642195926L121.59769268035888,128.36445777494268L122.06180601119996,141.45440192415555L122.52591934204102,137.29271728166992L122.99003267288208,133.3800984380197L123.45414600372315,126.68247282818055L123.91825933456421,125.20841301118406L124.38237266540527,129.41974888677592L124.84648599624633,126.94259106305444L125.3105993270874,143.30989317090774L125.77471265792846,124.46912366090625L126.23882598876952,123.15006154998879L126.7029393196106,124.41544308995978L127.16705265045167,132.24661181193156L127.63116598129272,135.43771558063662L128.09527931213378,129.9057359848816L128.55939264297484,140.13183767847977L129.0235059738159,136.30287466671842L129.487619304657,136.5025151766256L129.95173263549805,138.078664104696L130.4158459663391,140.25608814767503L130.87995929718016,120.47520257055423L131.34407262802125,133.29309110082448L131.8081859588623,139.01691613234715L132.27229928970337,139.63069349176942L132.73641262054443,141.21904340544955L133.2005259513855,139.62310553312633L133.66463928222655,124.73027747326242L134.12875261306763,125.89718500900683L134.5928659439087,142.5215362766501L135.05697927474975,135.69604509076834L135.52109260559084,123.52251169867066L135.9852059364319,121.18888491399684L136.44931926727295,143.85242279954736L136.913432598114,142.9892595537042L137.37754592895507,147.96479512519372L137.84165925979613,147.36862258297066L138.3057725906372,152.02936142852053L138.76988592147828,148.519751683621L139.23399925231934,149.34233912083926L139.69811258316042,143.90011584977793L140.16222591400145,143.9671271272239L140.62633924484254,151.35132177915077L141.0904525756836,137.58296140693815L141.55456590652466,149.43188833003651L142.01867923736572,156.4396788101672L142.4827925682068,152.1151449014185L142.94690589904783,150.56433937864236L143.41101922988892,150.3671465973297L143.87513256073,152.2412594100819L144.33924589157104,153.4853080539174L144.80335922241213,155.06661604071783L145.26747255325316,156.91290006221826L145.73158588409424,151.67815003256666L146.1956992149353,146.30517865204942L146.65981254577636,153.86286077528482L147.12392587661742,151.33688018044296L147.5880392074585,150.00360241499564L148.05215253829954,153.532925789422L148.51626586914062,153.02971044774705L148.9803791999817,151.8490956318732L149.44449253082274,154.63553337785592L149.90860586166383,157.3941799899498L150.3727191925049,151.31782555476852L150.83683252334595,159.35209926404283L151.300945854187,157.17518359546423L151.7650591850281,154.81065894445467L152.22917251586912,159.39320227574967L152.6932858467102,160.22100525774243L153.15739917755127,155.7857775304759L153.62151250839233,155.89231021038302L154.08562583923342,161.95117280045406L154.54973917007447,161.2196973529973L155.01385250091553,158.66330843753857L155.4779658317566,158.68695726149818L155.94207916259768,156.3239765623713L156.4061924934387,159.89091964242763L156.8703058242798,156.71975544742736L157.33441915512083,161.6791736675559L157.7985324859619,157.59901721595L158.26264581680297,146.61159661472314L158.72675914764403,158.44466978800145L159.1908724784851,160.26657066696393L159.65498580932618,160.12260656824182L160.11909914016724,149.01063423891574L160.5832124710083,148.613386716703L161.04732580184938,160.06162046887474L161.5114391326904,152.4258558034734L161.9755524635315,154.40983397275758L162.43966579437256,161.01147096432769L162.90377912521362,155.980748527372L163.36789245605468,160.3727456019226L163.83200578689576,155.0004332252577L164.2961191177368,156.54146666233717L164.76023244857788,159.26279482770505L165.22434577941897,158.8525931726227L165.68845911026,151.08847338545988L166.15257244110109,155.8852871121848L166.61668577194214,158.840429844376L167.0807991027832,165.21970010747265L167.54491243362426,165.3355153273575L168.00902576446535,159.90861860303434L168.47313909530638,161.36674935548479L168.93725242614747,158.3175385305372L169.4013657569885,153.88628365506645L169.86547908782958,156.91412392651551L170.32959241867067,154.65021974942317L170.7937057495117,154.50533304530774L171.2578190803528,161.12408530835816L171.72193241119385,162.8070116891951L172.1860457420349,159.18636920951081L172.65015907287597,146.88933849547774L173.11427240371705,165.31566989706022L173.57838573455808,159.91449315166122L174.04249906539917,158.95905053780382L174.50661239624026,156.2552330462277L174.9707257270813,158.06363376055717L175.43483905792237,155.00235375077034L175.89895238876343,162.00831784879588L176.3630657196045,162.40927462126345L176.82717905044555,160.7182330787015L177.29129238128664,163.6400302159624L177.75540571212767,155.65062525469418L178.21951904296876,150.20377012798474L178.68363237380984,156.24585636284243L179.14774570465087,150.13372743281784L179.61185903549196,166.31012553897833L180.075972366333,160.5571725371806L180.54008569717408,152.50318519837947L181.00419902801514,165.4670901536549L181.4683123588562,156.5408264871663L181.93242568969725,155.55542744104798L182.39653902053834,156.99962496919105L182.86065235137937,159.2715689932824L183.32476568222046,157.57171562778012L183.78887901306155,158.06423627836506L184.25299234390258,158.9221839794337L184.71710567474366,155.77446149289653L185.18121900558472,155.52771162188515L185.64533233642578,141.1958464698459L186.10944566726684,164.61609023605845L186.57355899810793,159.1993233423804L187.03767232894896,160.25634669291134L187.50178565979004,165.27961297199445L187.9658989906311,161.9316474577422L188.43001232147216,159.32534370763634L188.89412565231325,162.2538626841915L189.3582389831543,166.88368483472414L189.82235231399537,165.95149564251486L190.28646564483643,143.6787658701053L190.7505789756775,165.23530908443323L191.21469230651854,156.1865083587655L191.67880563735963,159.471642562864L192.14291896820066,167.2819491057377L192.60703229904175,157.60509888007337L193.0711456298828,161.22611793338757L193.53525896072387,164.46013226722312L193.99937229156492,167.165267766504L194.463485622406,164.83017234467346L194.92759895324707,167.28855797294295L195.39171228408813,159.89826282821127L195.85582561492922,163.07906730813775L196.31993894577025,155.0192430780727L196.78405227661133,160.38300723333816L197.2481656074524,163.24276386506816L197.71227893829345,167.34319880664574L198.1763922691345,164.48445892371657L198.6405055999756,161.58751564603102L199.10461893081663,166.74943633565422L199.56873226165771,156.29181717437532L200.0328455924988,165.707381786913L200.49695892333983,169.27253614222715L200.96107225418092,168.96579809196797L201.42518558502198,164.2744626389863L201.88929891586304,159.75761257743255L202.3534122467041,160.97895383138328L202.81752557754518,164.6704674682203L203.2816389083862,168.77775604986263L203.7457522392273,162.78522690470368L204.20986557006833,173.19086007637077L204.67397890090942,169.47848426043564L205.1380922317505,168.2695887649541L205.60220556259154,170.2010537415446L206.06631889343262,165.68525808615462L206.53043222427368,160.6839648783779L206.99454555511474,151.35474859918313L207.4586588859558,159.97803995171185L207.9227722167969,167.86706921192234L208.38688554763792,165.4955591200776L208.850998878479,157.61174540464162L209.3151122093201,168.53998745992507L209.77922554016112,169.54333023950952L210.2433388710022,165.2675626158367L210.70745220184327,168.91518659610543L211.17156553268433,170.5621125379211L211.63567886352538,167.02913639928445L212.09979219436647,173.41944026973806L212.5639055252075,163.11487946034404L213.0280188560486,168.03003145027438L213.49213218688968,159.74688022897956L213.9562455177307,166.6586444334782L214.4203588485718,166.9851337706272L214.88447217941282,161.80511871808585L215.3485855102539,161.35458602723807L215.81269884109497,161.82767547851864L216.27681217193603,168.51560431738713L216.7409255027771,170.03120020576483L217.20503883361818,162.2949468672168L217.6691521644592,157.73249373907856L218.1332654953003,171.78021525865444L218.59737882614138,165.4274934364678L219.0614921569824,164.8818570753813L219.5256054878235,166.389526088849L219.98971881866456,163.83729831200102L220.45383214950562,164.37649526401574L220.91794548034667,156.22977666884444L221.38205881118776,156.18208361861386L221.8461721420288,168.5676279643619L222.31028547286988,166.23827529038778L222.77439880371094,165.90498879921856L223.238512134552,166.8518078769506L223.70262546539308,158.8500324719392L224.16673879623414,167.5210921894245L224.6308521270752,164.1310822293906L225.09496545791626,170.72121489656638L225.55907878875735,168.50229243956912L226.02319211959838,165.25396830779624L226.48730545043946,161.19796905455033L226.9514187812805,174.89687042072242L227.41553211212158,167.82831978540258L227.87964544296264,170.71178172713664L228.3437587738037,170.2668976407378L228.80787210464476,171.47268640377243L229.27198543548585,169.69256636905064L229.7360987663269,163.00721705954717L230.20021209716796,167.80128179877363L230.66432542800905,164.90356654514673L231.12843875885008,172.81426761775967L231.59255208969117,169.0983896670662L232.05666542053223,162.10965381260993L232.52077875137329,172.58143214237418L232.98489208221434,171.14333510703597L233.44900541305543,169.9126736557445L233.91311874389646,165.27853973714915L234.37723207473755,166.81755850530848L234.84134540557864,172.11240968629684L235.30545873641967,167.97077758960495L235.76957206726075,172.07989255335244L236.2336853981018,162.9922106003945L236.69779872894287,172.7449780698526L237.16191205978393,168.25539193910575L237.62602539062502,161.8916929956067L238.09013872146605,166.09086554295183L238.55425205230713,165.9363762112732L239.01836538314816,165.10780125333906L239.48247871398925,166.47250408820398L239.94659204483034,171.27667982939406L240.41070537567137,160.33902343336237L240.87481870651246,174.02143087454354L241.33893203735352,170.70528583202034L241.80304536819457,168.20385783784988L242.26715869903563,152.2402238325996L242.73127202987672,167.83963582298196L243.19538536071775,168.80283585361593L243.65949869155884,167.9768780824098L244.12361202239993,163.56223010401894L244.58772535324096,166.0321012280013L245.05183868408204,175.89335956024215L245.5159520149231,171.61548312424173L245.98006534576416,172.83136406055846L246.44417867660522,176.49525602164016L246.9082920074463,169.22900423060727L247.37240533828734,174.71428869625103L247.83651866912842,166.83987049288183L248.3006319999695,171.37867479706048L248.76474533081054,169.98975827779108L249.22885866165163,168.4129880032313L249.69297199249266,172.28352474373688L250.15708532333375,170.3931062928087L250.6211986541748,174.46725639501722L251.08531198501586,170.67043394257036L251.54942531585692,172.646579380352L252.013538646698,178.32018831832357L252.47765197753904,173.80313114127333L252.94176530838013,169.95345657986587L253.4058786392212,171.57677135508496L253.86999197006224,173.3341275138775L254.33410530090333,178.638920238696L254.7982186317444,173.77846556851296" fill="none"></path></g><g><path style="fill: none;" stroke="rgb(0, 119, 187)" stroke-width="2px" d="M33.416159820556636,-19.331071388758915L33.88027315139771,9.133489122449829L34.34438648223877,5.066795178113943L34.808499813079834,10.363943458244854L35.2726131439209,9.932427735708508L35.73672647476196,15.062678583054637L36.20083980560303,8.801275866125934L36.66495313644409,-6.465094405946681L37.129066467285156,18.30591897082345L37.59317979812622,21.955519962649305L38.05729312896728,14.401754205165162L38.521406459808354,17.33767285354841L38.98551979064942,25.964033281161075L39.44963312149048,16.89041635328101L39.913746452331544,23.82961394672002L40.3778597831726,21.217774564254203L40.84197311401367,38.47829049361908L41.30608644485474,28.194591863323172L41.7701997756958,15.444900817433197L42.23431310653687,33.82203287426537L42.698426437377925,30.571938846431838L43.16253976821899,28.82173758660795L43.626653099060064,27.583073945680464L44.09076642990112,31.464606636179976L44.55487976074219,37.61247240368491L45.01899309158325,24.436612980803577L45.483106422424314,32.54586249979688L45.94721975326539,41.798314244530545L46.411333084106445,31.899134947755762L46.87544641494751,38.218680633145595L47.33955974578858,38.710184534929724L47.803673076629636,22.27775401778008L48.2677864074707,44.48558132507126L48.73189973831177,32.95745747730996L49.19601306915283,14.174492019502644L49.6601263999939,33.90834355024524L50.12423973083496,43.60545343719978L50.588353061676024,21.8121960390981L51.05246639251708,32.13332608820899L51.516579723358156,39.40138543266553L51.98069305419922,33.865301184344275L52.44480638504028,35.23452290276837L52.908919715881346,46.60625572201989L53.37303304672242,41.45872014506001L53.83714637756348,51.90253788280197L54.301259708404544,43.896996741491286L54.7653730392456,52.11869114638157L55.22948637008667,44.3660945122946L55.693599700927734,55.08853907882148L56.1577130317688,44.90674127278455L56.621826362609866,44.59787558151627L57.085939693450925,50.611681136766244L57.55005302429199,55.58053252632453L58.01416635513306,42.2735501655017L58.478279685974115,46.1541414219264L58.94239301681519,40.559198715247135L59.406506347656254,46.284699499423006L59.87061967849731,50.94878985027924L60.33473300933838,37.86922030457092L60.79884634017944,38.18787691021735L61.26295967102051,39.95389426249826L61.72707300186158,49.25612904110862L62.191186332702635,52.073954199145945L62.6552996635437,58.384198515876506L63.11941299438476,56.84212950131473L63.58352632522583,53.503879586714675L64.04763965606689,64.83592154537163L64.51175298690795,47.40941195993378L64.97586631774902,49.09996395677681L65.43997964859008,52.856850775769615L65.90409297943116,51.5311609689654L66.36820631027221,50.66850609752264L66.83231964111327,65.24393907340036L67.29643297195435,38.768704077020786L67.76054630279542,57.33645770532335L68.22465963363648,57.781304134359196L68.68877296447754,62.329786380827045L69.1528862953186,57.16345977973367L69.61699962615967,59.7544746404644L70.08111295700073,61.505353732822144L70.5452262878418,64.46115546886567L71.00933961868286,57.29834845397447L71.47345294952392,66.72112445152527L71.937566280365,70.97260307606764L72.40167961120606,58.63465763714269L72.86579294204712,65.30445445573007L73.32990627288818,70.41614022312065L73.79401960372925,60.35684181889981L74.25813293457031,82.88739272704068L74.72224626541137,74.03230147660877L75.18635959625244,65.77863597053742L75.6504729270935,66.26863357780185L76.11458625793456,72.61099962516542L76.57869958877563,54.65521580286149L77.04281291961671,67.74050926774473L77.50692625045777,61.354686623487304L77.97103958129884,62.71961540253019L78.4351529121399,68.13971497283312L78.89926624298096,63.11023522885618L79.36337957382202,59.75703534114791L79.82749290466309,77.37418532673763L80.29160623550415,78.7526142704135L80.7557195663452,80.51420688254274L81.21983289718628,60.768512111138854L81.68394622802734,65.79821779929378L82.1480595588684,70.09676812757735L82.61217288970948,69.41351293343305L83.07628622055054,78.14303570696494L83.5403995513916,69.38511928173637L84.00451288223267,76.01998889614775L84.46862621307373,68.82809156834446L84.93273954391479,72.29279490787489L85.39685287475585,78.38675416025538L85.86096620559692,82.537932398466L86.32507953643798,69.86739712958722L86.78919286727904,83.20394052035951L87.25330619812013,64.09222628362363L87.71741952896119,83.47115716815756L88.18153285980225,74.93460955128312L88.64564619064332,70.21030507700111L89.10975952148438,79.24726256200755L89.57387285232544,77.42379890248087L90.0379861831665,74.74971189898767L90.50209951400757,68.5090960464311L90.96621284484863,72.1911576851569L91.43032617568969,69.23987483267251L91.89443950653077,68.53790392912072L92.35855283737183,84.10553310513698L92.82266616821289,82.84689223314174L93.28677949905396,87.30840479977735L93.75089282989502,72.98403346297368L94.21500616073608,82.93983060500838L94.67911949157715,76.38524648849798L95.14323282241821,68.6155534116122L95.60734615325927,78.94805598434698L96.07145948410033,67.97729876624449L96.5355728149414,73.02353603675331L96.99968614578246,76.31729377697717L97.46379947662354,81.99259729628342L97.92791280746461,66.15905065149234L98.39202613830567,86.00337005657478L98.85613946914673,83.73811021441468L99.3202527999878,69.22533909055721L99.78436613082886,88.09798555833228L100.24847946166992,80.1249427212845L100.71259279251099,78.76466462657125L101.17670612335205,71.99522642550451L101.6408194541931,89.94935332383675L102.10493278503417,73.6640501239006L102.56904611587525,66.20924791636193L103.03315944671631,69.41547111630868L103.49727277755737,80.72612369278563L103.96138610839844,98.92875152950842L104.4254994392395,79.14500399280016L104.88961277008056,89.02864962734033L105.35372610092163,94.21743884545899L105.81783943176269,90.90003228127556L106.28195276260375,92.8998077143353L106.74606609344484,82.40195166069842L107.2101794242859,66.57181300725817L107.67429275512696,83.87571021879096L108.13840608596801,83.76251218563411L108.60251941680909,85.62758723126802L109.06663274765015,71.2152294658313L109.5307460784912,73.52938739383777L109.99485940933228,73.21991918476161L110.45897274017334,68.93496316451849L110.9230860710144,76.30070570857879L111.38719940185547,90.13323422733137L111.85131273269654,74.93223713741456L112.3154260635376,83.31218661028278L112.77953939437867,91.78324807291247L113.24365272521973,84.55275194804142L113.70776605606079,83.58220873162381L114.17187938690185,92.5241378611175L114.63599271774292,82.4395148802839L115.10010604858398,90.13801671243148L115.56421937942504,84.8428454438577L116.02833271026611,72.93782787858133L116.49244604110717,65.56338648366966L116.95655937194823,91.50283251938538L117.42067270278932,94.55827563790828L117.88478603363038,89.52420169564621L118.34889936447144,84.15783918233421L118.81301269531251,76.37485305631192L119.27712602615357,79.57164308682891L119.74123935699463,94.0505225839927L120.20535268783568,89.07683222328983L120.66946601867676,73.42357020382754L121.13357934951782,87.63611800122361L121.59769268035888,89.87799262096507L122.06180601119996,92.84757695186404L122.52591934204102,89.81757138204287L122.99003267288208,87.48520611902931L123.45414600372315,85.02719706438972L123.91825933456421,83.0102687024867L124.38237266540527,88.00672293911884L124.84648599624633,84.11506041797422L125.3105993270874,91.62013520510845L125.77471265792846,75.97894237048541L126.23882598876952,83.15065535172448L126.7029393196106,86.35360236109082L127.16705265045167,80.90704849328532L127.63116598129272,88.21886569353968L128.09527931213378,106.03347206198299L128.55939264297484,98.17701642076143L129.0235059738159,88.3567481281384L129.487619304657,99.57111082744237L129.95173263549805,93.43759251523777L130.4158459663391,81.2784442358034L130.87995929718016,88.71599937109127L131.34407262802125,89.14369287128383L131.8081859588623,92.3887596411578L132.27229928970337,90.3491803754145L132.73641262054443,100.72841573562356L133.2005259513855,95.35416400476454L133.66463928222655,80.10334622360804L134.12875261306763,89.2412254414356L134.5928659439087,93.61842317232997L135.05697927474975,85.84462544287794L135.52109260559084,86.87687024855951L135.9852059364319,76.41220916040095L136.44931926727295,93.69820029583056L136.913432598114,99.95860509263994L137.37754592895507,107.31020729689638L137.84165925979613,92.19087019862977L138.3057725906372,110.68438233579171L138.76988592147828,98.33856650800125L139.23399925231934,109.97757246109532L139.69811258316042,102.57475624316845L140.16222591400145,111.02704551034614L140.62633924484254,107.00264078465133L141.0904525756836,95.1575172552153L141.55456590652466,112.45241435699276L142.01867923736572,103.45522304730687L142.4827925682068,94.15103008582092L142.94690589904783,104.14474819238953L143.41101922988892,93.25246891876436L143.87513256073,101.22366654502548L144.33924589157104,103.19595210310037L144.80335922241213,111.1708213222533L145.26747255325316,109.74935001267649L145.73158588409424,101.44554372778002L146.1956992149353,101.43539506845342L146.65981254577636,95.48310281565246L147.12392587661742,96.27208105639946L147.5880392074585,103.70001473544264L148.05215253829954,102.0245821698413L148.51626586914062,104.34843686881842L148.9803791999817,109.5790445885408L149.44449253082274,107.879360681172L149.90860586166383,112.00512019936237L150.3727191925049,93.73951042303385L150.83683252334595,108.81936377620231L151.300945854187,91.50100613728024L151.7650591850281,109.66207907394028L152.22917251586912,103.26567471068184L152.6932858467102,106.5620496376337L153.15739917755127,104.07707791109117L153.62151250839233,113.96552485941295L154.08562583923342,106.90908106629534L154.54973917007447,104.51751842865686L155.01385250091553,110.15815834532808L155.4779658317566,91.36882879317491L155.94207916259768,106.15934179778696L156.4061924934387,112.60343921127603L156.8703058242798,110.06346890608226L157.33441915512083,108.98780516086983L157.7985324859619,103.32229255594174L158.26264581680297,93.99731273008366L158.72675914764403,102.39047993736241L159.1908724784851,106.96841024169075L159.65498580932618,106.89256831262294L160.11909914016724,113.46579282381484L160.5832124710083,108.77364773752882L161.04732580184938,102.89433545420823L161.5114391326904,100.19803060654917L161.9755524635315,107.18608862847158L162.43966579437256,103.57015331916139L162.90377912521362,98.74198983774482L163.36789245605468,120.93140269453247L163.83200578689576,106.7338048702446L164.2961191177368,112.96651267657266L164.76023244857788,111.53206840544476L165.22434577941897,99.85523563122426L165.68845911026,95.2998244299657L166.15257244110109,99.68982566427768L166.61668577194214,123.48735855031674L167.0807991027832,112.86611814683343L167.54491243362426,111.8239129686402L168.00902576446535,100.37686542340278L168.47313909530638,106.10430556177276L168.93725242614747,121.55994174024798L169.4013657569885,109.61244666951556L169.86547908782958,104.134147644707L170.32959241867067,113.965223600509L170.7937057495117,117.41881801795648L171.2578190803528,105.96487917529132L171.72193241119385,117.69390505462009L172.1860457420349,117.41247275229219L172.65015907287597,106.6348978063436L173.11427240371705,111.2013614436406L173.57838573455808,106.25220485492761L174.04249906539917,106.15122663606199L174.50661239624026,110.4506054263314L174.9707257270813,115.28963305697145L175.43483905792237,110.30539863463054L175.89895238876343,104.21362350930364L176.3630657196045,119.92453895150815L176.82717905044555,118.44965067252583L177.29129238128664,115.96548857928764L177.75540571212767,114.43522514802416L178.21951904296876,106.58197038265698L178.68363237380984,108.5303435152313L179.14774570465087,102.34459444055548L179.61185903549196,113.767221185892L180.075972366333,119.76737594705702L180.54008569717408,114.09433186953036L181.00419902801514,117.83884824478L181.4683123588562,112.32784380021204L181.93242568969725,103.4231766313999L182.39653902053834,106.70925226957317L182.86065235137937,108.04930836035922L183.32476568222046,105.0270413786331L183.78887901306155,115.5669230493701L184.25299234390258,110.03247689633903L184.71710567474366,116.49817080750458L185.18121900558472,98.81834014121304L185.64533233642578,111.75409621765127L186.10944566726684,109.0943378407769L186.57355899810793,111.72235106064821L187.03767232894896,119.77569822427849L187.50178565979004,123.83021001168615L187.9658989906311,115.05672226685996L188.43001232147216,107.18881878728857L188.89412565231325,109.41527271688442L189.3582389831543,108.22027278834727L189.82235231399537,118.77770279023902L190.28646564483643,108.67095610864705L190.7505789756775,103.70942907619087L191.21469230651854,106.30769297929774L191.67880563735963,101.54030848175181L192.14291896820066,120.15038898605843L192.60703229904175,114.97526939070619L193.0711456298828,111.75927410506281L193.53525896072387,100.18908698283836L193.99937229156492,123.66361383780529L194.463485622406,106.75466704934271L194.92759895324707,115.20501696232627L195.39171228408813,104.5417509417428L195.85582561492922,108.28481750851721L196.31993894577025,112.86523319880308L196.78405227661133,114.11144714101064L197.2481656074524,107.1191338370701L197.71227893829345,123.21969001416277L198.1763922691345,109.3809856878793L198.6405055999756,114.19502765817354L199.10461893081663,115.20390607011797L199.56873226165771,119.1303451659866L200.0328455924988,118.11212772801991L200.49695892333983,117.34455769813437L200.96107225418092,119.82199795207832L201.42518558502198,109.20151069585486L201.88929891586304,109.2718546499257L202.3534122467041,109.79075428328721L202.81752557754518,114.8127025546656L203.2816389083862,110.21372178442418L203.7457522392273,126.284095585078L204.20986557006833,116.15759761659623L204.67397890090942,125.40626479634908L205.1380922317505,113.6089096318696L205.60220556259154,111.14094020471838L206.06631889343262,111.88823174463218L206.53043222427368,119.68044392458778L206.99454555511474,108.87255480142986L207.4586588859558,119.65745410448056L207.9227722167969,123.98850273702706L208.38688554763792,107.34607593514716L208.850998878479,123.51012242624597L209.3151122093201,117.05086792415227L209.77922554016112,107.38441113067401L210.2433388710022,100.6076674011866L210.70745220184327,118.33479571539729L211.17156553268433,113.65824077739038L211.63567886352538,105.38864620677302L212.09979219436647,119.86142521113194L212.5639055252075,115.55643547377659L213.0280188560486,116.90374060693875L213.49213218688968,102.8767494656905L213.9562455177307,112.31168879148807L214.4203588485718,111.4682203464902L214.88447217941282,116.13812875992888L215.3485855102539,115.70439125297594L215.81269884109497,122.30113278735696L216.27681217193603,121.77513474107127L216.7409255027771,124.0894432985297L217.20503883361818,114.46725273524967L217.6691521644592,104.93254022620226L218.1332654953003,119.60019608404977L218.59737882614138,124.02181067459435L219.0614921569824,108.67523021934673L219.5256054878235,113.8838648677627L219.98971881866456,116.8044946267708L220.45383214950562,121.6011012379993L220.91794548034667,117.77098967666666L221.38205881118776,123.84410557863055L221.8461721420288,116.78662620803065L222.31028547286988,122.56275731675056L222.77439880371094,120.0174208373303L223.238512134552,118.56926928607297L223.70262546539308,104.06289991392433L224.16673879623414,109.06458852401246L224.6308521270752,99.41449385475464L225.09496545791626,117.07709627747687L225.55907878875735,124.40367516402446L226.02319211959838,114.6425101026189L226.48730545043946,120.08752001854168L226.9514187812805,129.95448344127598L227.41553211212158,117.71248896325712L227.87964544296264,121.84474437656375L228.3437587738037,110.20799786524924L228.80787210464476,115.33056661054479L229.27198543548585,118.92944313441915L229.7360987663269,116.3337587606773L230.20021209716796,116.71611279582633L230.66432542800905,115.28807027640724L231.12843875885008,118.75030705866163L231.59255208969117,117.74325502882235L232.05666542053223,117.99218902688733L232.52077875137329,120.5343058017717L232.98489208221434,115.52435140050656L233.44900541305543,120.42805555208705L233.91311874389646,117.67082109110538L234.37723207473755,116.19156455801587L234.84134540557864,129.10288100587167L235.30545873641967,114.99217754669004L235.76957206726075,120.02468870838794L236.2336853981018,128.25749203536117L236.69779872894287,122.3772948040102L237.16191205978393,115.86193083105698L237.62602539062502,116.62611169827315L238.09013872146605,112.3749719899977L238.55425205230713,118.24409795662874L239.01836538314816,122.74405869088017L239.48247871398925,120.72114280826126L239.94659204483034,121.51326543881821L240.41070537567137,123.9615777224871L240.87481870651246,121.03998770072266L241.33893203735352,116.00875688936654L241.80304536819457,121.49210200081617L242.26715869903563,106.07408552797092L242.73127202987672,100.38693876800338L243.19538536071775,117.22533448689865L243.65949869155884,124.79719460730092L244.12361202239993,124.12753372119708L244.58772535324096,122.3362106209849L245.05183868408204,129.34876475753418L245.5159520149231,129.15857624573823L245.98006534576416,116.23005038299468L246.44417867660522,125.17632893791406L246.9082920074463,119.64950840088906L247.37240533828734,114.0743169810996L247.83651866912842,124.75242000270228L248.3006319999695,117.30885851801705L248.76474533081054,114.15753975331404L249.22885866165163,127.88534314558322L249.69297199249266,125.40884432571409L250.15708532333375,114.38188349334463L250.6211986541748,115.73679541383139L251.08531198501586,128.48353035672642L251.54942531585692,121.9001195288449L252.013538646698,128.27946510666754L252.47765197753904,129.6724109637772L252.94176530838013,115.04126391935137L253.4058786392212,123.81906343224023L253.86999197006224,119.84500660086701L254.33410530090333,113.87032704576674L254.7982186317444,126.0803504226046" fill="none"></path></g></g></g></g></g></g><g transform="translate(51, 176)" clip-path="url(#clip_1)"><clipPath id="clip_1"><rect width="278" height="23"></rect></clipPath><g><g><line x1="0" y1="0" x2="0" y2="5" style="visibility: inherit;" fill="rgb(0, 0, 0)" stroke="rgb(204, 204, 204)" stroke-width="1px"></line><line x1="23.205666542053223" y1="0" x2="23.205666542053223" y2="5" style="visibility: inherit;" fill="rgb(0, 0, 0)" stroke="rgb(204, 204, 204)" stroke-width="1px"></line><line x1="46.411333084106445" y1="0" x2="46.411333084106445" y2="5" style="visibility: inherit;" fill="rgb(0, 0, 0)" stroke="rgb(204, 204, 204)" stroke-width="1px"></line><line x1="69.61699962615967" y1="0" x2="69.61699962615967" y2="5" style="visibility: inherit;" fill="rgb(0, 0, 0)" stroke="rgb(204, 204, 204)" stroke-width="1px"></line><line x1="92.82266616821289" y1="0" x2="92.82266616821289" y2="5" style="visibility: inherit;" fill="rgb(0, 0, 0)" stroke="rgb(204, 204, 204)" stroke-width="1px"></line><line x1="116.02833271026611" y1="0" x2="116.02833271026611" y2="5" style="visibility: inherit;" fill="rgb(0, 0, 0)" stroke="rgb(204, 204, 204)" stroke-width="1px"></line><line x1="139.23399925231934" y1="0" x2="139.23399925231934" y2="5" style="visibility: inherit;" fill="rgb(0, 0, 0)" stroke="rgb(204, 204, 204)" stroke-width="1px"></line><line x1="162.43966579437256" y1="0" x2="162.43966579437256" y2="5" style="visibility: inherit;" fill="rgb(0, 0, 0)" stroke="rgb(204, 204, 204)" stroke-width="1px"></line><line x1="185.64533233642578" y1="0" x2="185.64533233642578" y2="5" style="visibility: inherit;" fill="rgb(0, 0, 0)" stroke="rgb(204, 204, 204)" stroke-width="1px"></line><line x1="208.850998878479" y1="0" x2="208.850998878479" y2="5" style="visibility: inherit;" fill="rgb(0, 0, 0)" stroke="rgb(204, 204, 204)" stroke-width="1px"></line><line x1="232.05666542053223" y1="0" x2="232.05666542053223" y2="5" style="visibility: inherit;" fill="rgb(0, 0, 0)" stroke="rgb(204, 204, 204)" stroke-width="1px"></line><line x1="255.26233196258545" y1="0" x2="255.26233196258545" y2="5" style="visibility: inherit;" fill="rgb(0, 0, 0)" stroke="rgb(204, 204, 204)" stroke-width="1px"></line><line x1="278.4679985046387" y1="0" x2="278.4679985046387" y2="5" style="visibility: inherit;" fill="rgb(0, 0, 0)" stroke="rgb(204, 204, 204)" stroke-width="1px"></line></g><g transform="translate(0, 8)"><text style="text-anchor: middle; visibility: hidden; font-family: Roboto, sans-serif; font-size: 12px; font-weight: 200;" x="0" y="0" dx="0em" dy="0.95em" fill="rgb(255, 255, 255)" stroke="none" stroke-width="1px">-50</text><text style="text-anchor: middle; visibility: inherit; font-family: Roboto, sans-serif; font-size: 12px; font-weight: 200;" x="23.205666542053223" y="0" dx="0em" dy="0.95em" fill="rgb(255, 255, 255)" stroke="none" stroke-width="1px">0</text><text style="text-anchor: middle; visibility: hidden; font-family: Roboto, sans-serif; font-size: 12px; font-weight: 200;" x="46.411333084106445" y="0" dx="0em" dy="0.95em" fill="rgb(255, 255, 255)" stroke="none" stroke-width="1px">50</text><text style="text-anchor: middle; visibility: inherit; font-family: Roboto, sans-serif; font-size: 12px; font-weight: 200;" x="69.61699962615967" y="0" dx="0em" dy="0.95em" fill="rgb(255, 255, 255)" stroke="none" stroke-width="1px">100</text><text style="text-anchor: middle; visibility: hidden; font-family: Roboto, sans-serif; font-size: 12px; font-weight: 200;" x="92.82266616821289" y="0" dx="0em" dy="0.95em" fill="rgb(255, 255, 255)" stroke="none" stroke-width="1px">150</text><text style="text-anchor: middle; visibility: inherit; font-family: Roboto, sans-serif; font-size: 12px; font-weight: 200;" x="116.02833271026611" y="0" dx="0em" dy="0.95em" fill="rgb(255, 255, 255)" stroke="none" stroke-width="1px">200</text><text style="text-anchor: middle; visibility: hidden; font-family: Roboto, sans-serif; font-size: 12px; font-weight: 200;" x="139.23399925231934" y="0" dx="0em" dy="0.95em" fill="rgb(255, 255, 255)" stroke="none" stroke-width="1px">250</text><text style="text-anchor: middle; visibility: inherit; font-family: Roboto, sans-serif; font-size: 12px; font-weight: 200;" x="162.43966579437256" y="0" dx="0em" dy="0.95em" fill="rgb(255, 255, 255)" stroke="none" stroke-width="1px">300</text><text style="text-anchor: middle; visibility: hidden; font-family: Roboto, sans-serif; font-size: 12px; font-weight: 200;" x="185.64533233642578" y="0" dx="0em" dy="0.95em" fill="rgb(255, 255, 255)" stroke="none" stroke-width="1px">350</text><text style="text-anchor: middle; visibility: inherit; font-family: Roboto, sans-serif; font-size: 12px; font-weight: 200;" x="208.850998878479" y="0" dx="0em" dy="0.95em" fill="rgb(255, 255, 255)" stroke="none" stroke-width="1px">400</text><text style="text-anchor: middle; visibility: hidden; font-family: Roboto, sans-serif; font-size: 12px; font-weight: 200;" x="232.05666542053223" y="0" dx="0em" dy="0.95em" fill="rgb(255, 255, 255)" stroke="none" stroke-width="1px">450</text><text style="text-anchor: middle; visibility: inherit; font-family: Roboto, sans-serif; font-size: 12px; font-weight: 200;" x="255.26233196258545" y="0" dx="0em" dy="0.95em" fill="rgb(255, 255, 255)" stroke="none" stroke-width="1px">500</text><text style="text-anchor: middle; visibility: hidden; font-family: Roboto, sans-serif; font-size: 12px; font-weight: 200;" x="278.4679985046387" y="0" dx="0em" dy="0.95em" fill="rgb(255, 255, 255)" stroke="none" stroke-width="1px">550</text></g><line x1="0" y1="0" x2="278.4679985046387" y2="0" fill="rgb(0, 0, 0)" stroke="rgb(204, 204, 204)" stroke-width="1px"></line></g></g></g></g></svg>