<svg viewBox="0 0 1501 400" xmlns="http://www.w3.org/2000/svg"><g><g><g><g><g><line x1="50.17599868774414" y1="374.5999984741211" x2="45.17599868774414" y2="374.5999984741211" style="visibility: inherit;" fill="rgb(0, 0, 0)" stroke="rgb(204, 204, 204)" stroke-width="1px"></line><line x1="50.17599868774414" y1="347.84285572596957" x2="45.17599868774414" y2="347.84285572596957" style="visibility: inherit;" fill="rgb(0, 0, 0)" stroke="rgb(204, 204, 204)" stroke-width="1px"></line><line x1="50.17599868774414" y1="321.08571297781805" x2="45.17599868774414" y2="321.08571297781805" style="visibility: inherit;" fill="rgb(0, 0, 0)" stroke="rgb(204, 204, 204)" stroke-width="1px"></line><line x1="50.17599868774414" y1="294.3285702296666" x2="45.17599868774414" y2="294.3285702296666" style="visibility: inherit;" fill="rgb(0, 0, 0)" stroke="rgb(204, 204, 204)" stroke-width="1px"></line><line x1="50.17599868774414" y1="267.57142748151506" x2="45.17599868774414" y2="267.57142748151506" style="visibility: inherit;" fill="rgb(0, 0, 0)" stroke="rgb(204, 204, 204)" stroke-width="1px"></line><line x1="50.17599868774414" y1="240.81428473336356" x2="45.17599868774414" y2="240.81428473336356" style="visibility: inherit;" fill="rgb(0, 0, 0)" stroke="rgb(204, 204, 204)" stroke-width="1px"></line><line x1="50.17599868774414" y1="214.05714198521204" x2="45.17599868774414" y2="214.05714198521204" style="visibility: inherit;" fill="rgb(0, 0, 0)" stroke="rgb(204, 204, 204)" stroke-width="1px"></line><line x1="50.17599868774414" y1="187.29999923706052" x2="45.17599868774414" y2="187.29999923706052" style="visibility: inherit;" fill="rgb(0, 0, 0)" stroke="rgb(204, 204, 204)" stroke-width="1px"></line><line x1="50.17599868774414" y1="160.54285648890905" x2="45.17599868774414" y2="160.54285648890905" style="visibility: inherit;" fill="rgb(0, 0, 0)" stroke="rgb(204, 204, 204)" stroke-width="1px"></line><line x1="50.17599868774414" y1="133.78571374075753" x2="45.17599868774414" y2="133.78571374075753" style="visibility: inherit;" fill="rgb(0, 0, 0)" stroke="rgb(204, 204, 204)" stroke-width="1px"></line><line x1="50.17599868774414" y1="107.02857099260602" x2="45.17599868774414" y2="107.02857099260602" style="visibility: inherit;" fill="rgb(0, 0, 0)" stroke="rgb(204, 204, 204)" stroke-width="1px"></line><line x1="50.17599868774414" y1="80.27142824445448" x2="45.17599868774414" y2="80.27142824445448" style="visibility: inherit;" fill="rgb(0, 0, 0)" stroke="rgb(204, 204, 204)" stroke-width="1px"></line><line x1="50.17599868774414" y1="53.514285496302946" x2="45.17599868774414" y2="53.514285496302946" style="visibility: inherit;" fill="rgb(0, 0, 0)" stroke="rgb(204, 204, 204)" stroke-width="1px"></line><line x1="50.17599868774414" y1="26.757142748151413" x2="45.17599868774414" y2="26.757142748151413" style="visibility: inherit;" fill="rgb(0, 0, 0)" stroke="rgb(204, 204, 204)" stroke-width="1px"></line><line x1="50.17599868774414" y1="0" x2="45.17599868774414" y2="0" style="visibility: inherit;" fill="rgb(0, 0, 0)" stroke="rgb(204, 204, 204)" stroke-width="1px"></line></g><g transform="translate(40.17599868774414, 0)"><text style="text-anchor: end; visibility: hidden; font-family: Roboto, sans-serif; font-size: 12px; font-weight: 200;" x="0" y="374.5999984741211" dx="0em" dy="0.3em" fill="rgb(255, 255, 255)" stroke="none" stroke-width="1px">0.45</text><text style="text-anchor: end; visibility: inherit; font-family: Roboto, sans-serif; font-size: 12px; font-weight: 200;" x="0" y="347.84285572596957" dx="0em" dy="0.3em" fill="rgb(255, 255, 255)" stroke="none" stroke-width="1px">0.5</text><text style="text-anchor: end; visibility: inherit; font-family: Roboto, sans-serif; font-size: 12px; font-weight: 200;" x="0" y="321.08571297781805" dx="0em" dy="0.3em" fill="rgb(255, 255, 255)" stroke="none" stroke-width="1px">0.55</text><text style="text-anchor: end; visibility: inherit; font-family: Roboto, sans-serif; font-size: 12px; font-weight: 200;" x="0" y="294.3285702296666" dx="0em" dy="0.3em" fill="rgb(255, 255, 255)" stroke="none" stroke-width="1px">0.6</text><text style="text-anchor: end; visibility: inherit; font-family: Roboto, sans-serif; font-size: 12px; font-weight: 200;" x="0" y="267.57142748151506" dx="0em" dy="0.3em" fill="rgb(255, 255, 255)" stroke="none" stroke-width="1px">0.65</text><text style="text-anchor: end; visibility: inherit; font-family: Roboto, sans-serif; font-size: 12px; font-weight: 200;" x="0" y="240.81428473336356" dx="0em" dy="0.3em" fill="rgb(255, 255, 255)" stroke="none" stroke-width="1px">0.7</text><text style="text-anchor: end; visibility: inherit; font-family: Roboto, sans-serif; font-size: 12px; font-weight: 200;" x="0" y="214.05714198521204" dx="0em" dy="0.3em" fill="rgb(255, 255, 255)" stroke="none" stroke-width="1px">0.75</text><text style="text-anchor: end; visibility: inherit; font-family: Roboto, sans-serif; font-size: 12px; font-weight: 200;" x="0" y="187.29999923706052" dx="0em" dy="0.3em" fill="rgb(255, 255, 255)" stroke="none" stroke-width="1px">0.8</text><text style="text-anchor: end; visibility: inherit; font-family: Roboto, sans-serif; font-size: 12px; font-weight: 200;" x="0" y="160.54285648890905" dx="0em" dy="0.3em" fill="rgb(255, 255, 255)" stroke="none" stroke-width="1px">0.85</text><text style="text-anchor: end; visibility: inherit; font-family: Roboto, sans-serif; font-size: 12px; font-weight: 200;" x="0" y="133.78571374075753" dx="0em" dy="0.3em" fill="rgb(255, 255, 255)" stroke="none" stroke-width="1px">0.9</text><text style="text-anchor: end; visibility: inherit; font-family: Roboto, sans-serif; font-size: 12px; font-weight: 200;" x="0" y="107.02857099260602" dx="0em" dy="0.3em" fill="rgb(255, 255, 255)" stroke="none" stroke-width="1px">0.95</text><text style="text-anchor: end; visibility: inherit; font-family: Roboto, sans-serif; font-size: 12px; font-weight: 200;" x="0" y="80.27142824445448" dx="0em" dy="0.3em" fill="rgb(255, 255, 255)" stroke="none" stroke-width="1px">1</text><text style="text-anchor: end; visibility: inherit; font-family: Roboto, sans-serif; font-size: 12px; font-weight: 200;" x="0" y="53.514285496302946" dx="0em" dy="0.3em" fill="rgb(255, 255, 255)" stroke="none" stroke-width="1px">1.05</text><text style="text-anchor: end; visibility: inherit; font-family: Roboto, sans-serif; font-size: 12px; font-weight: 200;" x="0" y="26.757142748151413" dx="0em" dy="0.3em" fill="rgb(255, 255, 255)" stroke="none" stroke-width="1px">1.1</text><text style="text-anchor: end; visibility: hidden; font-family: Roboto, sans-serif; font-size: 12px; font-weight: 200;" x="0" y="0" dx="0em" dy="0.3em" fill="rgb(255, 255, 255)" stroke="none" stroke-width="1px">1.15</text></g><line x1="50.17599868774414" y1="0" x2="50.17599868774414" y2="374.5999984741211" fill="rgb(0, 0, 0)" stroke="rgb(204, 204, 204)" stroke-width="1px"></line></g></g><g transform="translate(50, 0)" clip-path="url(#clip_0)"><clipPath id="clip_0"><rect width="1450" height="374"></rect></clipPath><g><g><g><line x1="0" y1="0" x2="0" y2="374.5999984741211" fill="rgb(0, 0, 0)" stroke="rgb(189, 189, 189)" stroke-width="1px" opacity="0.25"></line><line x1="145.0824001312256" y1="0" x2="145.0824001312256" y2="374.5999984741211" fill="rgb(0, 0, 0)" stroke="rgb(189, 189, 189)" stroke-width="1px" opacity="0.25"></line><line x1="290.1648002624512" y1="0" x2="290.1648002624512" y2="374.5999984741211" fill="rgb(0, 0, 0)" stroke="rgb(189, 189, 189)" stroke-width="1px" opacity="0.25"></line><line x1="435.24720039367674" y1="0" x2="435.24720039367674" y2="374.5999984741211" fill="rgb(0, 0, 0)" stroke="rgb(189, 189, 189)" stroke-width="1px" opacity="0.25"></line><line x1="580.3296005249024" y1="0" x2="580.3296005249024" y2="374.5999984741211" fill="rgb(0, 0, 0)" stroke="rgb(189, 189, 189)" stroke-width="1px" opacity="0.25"></line><line x1="725.4120006561279" y1="0" x2="725.4120006561279" y2="374.5999984741211" fill="rgb(0, 0, 0)" stroke="rgb(189, 189, 189)" stroke-width="1px" opacity="0.25"></line><line x1="870.4944007873535" y1="0" x2="870.4944007873535" y2="374.5999984741211" fill="rgb(0, 0, 0)" stroke="rgb(189, 189, 189)" stroke-width="1px" opacity="0.25"></line><line x1="1015.576800918579" y1="0" x2="1015.576800918579" y2="374.5999984741211" fill="rgb(0, 0, 0)" stroke="rgb(189, 189, 189)" stroke-width="1px" opacity="0.25"></line><line x1="1160.6592010498048" y1="0" x2="1160.6592010498048" y2="374.5999984741211" fill="rgb(0, 0, 0)" stroke="rgb(189, 189, 189)" stroke-width="1px" opacity="0.25"></line><line x1="1305.7416011810303" y1="0" x2="1305.7416011810303" y2="374.5999984741211" fill="rgb(0, 0, 0)" stroke="rgb(189, 189, 189)" stroke-width="1px" opacity="0.25"></line><line x1="1450.8240013122559" y1="0" x2="1450.8240013122559" y2="374.5999984741211" fill="rgb(0, 0, 0)" stroke="rgb(189, 189, 189)" stroke-width="1px" opacity="0.25"></line></g><g><line x1="0" y1="374.5999984741211" x2="1450.8240013122559" y2="374.5999984741211" fill="rgb(0, 0, 0)" stroke="rgb(189, 189, 189)" stroke-width="1px" opacity="0.25"></line><line x1="0" y1="347.84285572596957" x2="1450.8240013122559" y2="347.84285572596957" fill="rgb(0, 0, 0)" stroke="rgb(189, 189, 189)" stroke-width="1px" opacity="0.25"></line><line x1="0" y1="321.08571297781805" x2="1450.8240013122559" y2="321.08571297781805" fill="rgb(0, 0, 0)" stroke="rgb(189, 189, 189)" stroke-width="1px" opacity="0.25"></line><line x1="0" y1="294.3285702296666" x2="1450.8240013122559" y2="294.3285702296666" fill="rgb(0, 0, 0)" stroke="rgb(189, 189, 189)" stroke-width="1px" opacity="0.25"></line><line x1="0" y1="267.57142748151506" x2="1450.8240013122559" y2="267.57142748151506" fill="rgb(0, 0, 0)" stroke="rgb(189, 189, 189)" stroke-width="1px" opacity="0.25"></line><line x1="0" y1="240.81428473336356" x2="1450.8240013122559" y2="240.81428473336356" fill="rgb(0, 0, 0)" stroke="rgb(189, 189, 189)" stroke-width="1px" opacity="0.25"></line><line x1="0" y1="214.05714198521204" x2="1450.8240013122559" y2="214.05714198521204" fill="rgb(0, 0, 0)" stroke="rgb(189, 189, 189)" stroke-width="1px" opacity="0.25"></line><line x1="0" y1="187.29999923706052" x2="1450.8240013122559" y2="187.29999923706052" fill="rgb(0, 0, 0)" stroke="rgb(189, 189, 189)" stroke-width="1px" opacity="0.25"></line><line x1="0" y1="160.54285648890905" x2="1450.8240013122559" y2="160.54285648890905" fill="rgb(0, 0, 0)" stroke="rgb(189, 189, 189)" stroke-width="1px" opacity="0.25"></line><line x1="0" y1="133.78571374075753" x2="1450.8240013122559" y2="133.78571374075753" fill="rgb(0, 0, 0)" stroke="rgb(189, 189, 189)" stroke-width="1px" opacity="0.25"></line><line x1="0" y1="107.02857099260602" x2="1450.8240013122559" y2="107.02857099260602" fill="rgb(0, 0, 0)" stroke="rgb(189, 189, 189)" stroke-width="1px" opacity="0.25"></line><line x1="0" y1="80.27142824445448" x2="1450.8240013122559" y2="80.27142824445448" fill="rgb(0, 0, 0)" stroke="rgb(189, 189, 189)" stroke-width="1px" opacity="0.25"></line><line x1="0" y1="53.514285496302946" x2="1450.8240013122559" y2="53.514285496302946" fill="rgb(0, 0, 0)" stroke="rgb(189, 189, 189)" stroke-width="1px" opacity="0.25"></line><line x1="0" y1="26.757142748151413" x2="1450.8240013122559" y2="26.757142748151413" fill="rgb(0, 0, 0)" stroke="rgb(189, 189, 189)" stroke-width="1px" opacity="0.25"></line><line x1="0" y1="0" x2="1450.8240013122559" y2="0" fill="rgb(0, 0, 0)" stroke="rgb(189, 189, 189)" stroke-width="1px" opacity="0.25"></line></g></g></g><g><g><line x1="0" y1="615.4142832074847" x2="1450.8240013122559" y2="615.4142832074847" fill="rgb(0, 0, 0)" stroke="rgb(153, 153, 153)" stroke-width="1.5px"></line></g></g><g><g><line x1="145.0824001312256" y1="0" x2="145.0824001312256" y2="374.5999984741211" fill="rgb(0, 0, 0)" stroke="rgb(153, 153, 153)" stroke-width="1.5px"></line></g></g><g><g><g><g><g><path style="fill: none;" stroke="rgb(204, 51, 17)" stroke-width="2px" d="M181.35300016403198,-6.785407540823461L188.60712017059328,12.909260143181443L195.86124017715454,21.77206690112652L203.11536018371584,30.882774722446495L210.36948019027707,32.31980233345546L217.62360019683837,51.114144045900474L224.87772020339966,91.69029358521328L232.13184020996096,124.13293872889578L239.38596021652222,153.6896052516475L246.64008022308352,166.78944816877416L253.89420022964475,183.0707518818942L261.148320236206,199.3428970275795L268.40244024276734,216.87212949749554L275.6565602493286,224.1123038808283L282.91068025588993,238.6855745207896L290.1648002624512,242.27502525419774L297.41892026901246,250.53645251930772L304.6730402755737,242.38491060208042L311.927160282135,252.36265389161306L319.1812802886963,258.95223944629237L326.4354002952576,264.7899336386192L333.68952030181885,270.3646770774004L340.9436403083801,272.0972272307376L348.1977603149414,278.11193767052436L355.4518803215027,277.7769910745123L362.70600032806396,276.32157779078244L369.96012033462523,271.57362244995727L377.21424034118655,276.2753034935909L384.4683603477478,282.5560520527115L391.7224803543091,280.42539328057285L398.9766003608704,289.3252924972492L406.2307203674317,292.68992731306594L413.4848403739929,292.3003188329389L420.73896038055415,294.70179456140136L427.99308038711547,290.3368774000005L435.24720039367674,292.2202141462278L442.501320400238,292.59041689921145L449.7554404067993,295.6483094196283L457.0095604133606,297.6983114034265L464.2636804199219,294.1296386353553L471.5178004264832,296.2666519667258L478.77192043304444,299.3858337001252L486.02604043960577,297.1926442647781L493.28016044616703,297.98235362912135L500.53428045272824,292.2659922954988L507.7884004592895,288.00788696401537L515.0425204658508,298.2740355831993L522.296640472412,300.8513344336486L529.5507604789734,299.9821922274154L536.8048804855347,300.272625894728L544.059000492096,300.1146214278678L551.3131204986572,301.1826430127188L558.5672405052185,298.03245926407016L565.8213605117799,301.88790454900146L573.0754805183411,301.28776355458774L580.3296005249024,294.5959458795699L587.5837205314637,297.39252337033076L594.8378405380249,299.96435138645836L602.0919605445862,301.4702435355983L609.3460805511475,298.73933260041514L616.6002005577087,302.35613572209587L623.85432056427,297.8561083843307L631.1084405708312,296.6971763875602L638.3625605773926,302.0455713951064L645.6166805839539,303.3785544609171L652.8708005905152,299.2970060781648L660.1249205970764,303.55569713102153L667.3790406036377,303.17122046954944L674.633160610199,296.9584052706215L681.8872806167602,297.4236533243775L689.1414006233215,304.311707404238L696.3955206298828,308.4196091571309L703.649640636444,309.3022590200683L710.9037606430054,310.951535700303L718.1578806495667,312.914610900351L725.4120006561279,303.6912526756235L732.6661206626892,307.87097142881083L739.9202406692505,312.7201828109456L747.1743606758118,301.9797330744723L754.4284806823731,303.80972359720414L761.6826006889344,308.1326576936097L768.9367206954956,309.72490339374406L776.1908407020569,310.5689430434128L783.4449607086182,313.40301849473354L790.6990807151795,313.8461605872281L797.9532007217408,310.1738508686084L805.2073207283021,313.8327635907297L812.4614407348633,314.3569508530349L819.7155607414245,315.64642690551494L826.9696807479858,311.0072171929279L834.223800754547,315.7859341422327L841.4779207611083,321.0189137498654L848.7320407676697,315.2760505349368L855.9861607742309,319.25586484180474L863.2402807807922,322.4656242809064L870.4944007873535,322.3206118898297L877.7485207939147,322.6251592656114L885.002640800476,310.1642231918013L892.2567608070374,315.68230787350933L899.5108808135986,313.07285862485156L906.7650008201599,317.4987215132352L914.0191208267212,322.03456738295193L921.2732408332824,321.3544895372663L928.5273608398438,319.52915705948976L935.7814808464051,317.06146794894136L943.0356008529664,321.1042410339052L950.2897208595276,321.42139837061234L957.5438408660889,320.22995301881974L964.7979608726502,323.7456869581903L972.0520808792115,326.623258111574L979.3062008857728,323.6050200167987L986.5603208923341,321.1317678566228L993.8144408988953,323.0892731777508L1001.0685609054565,325.04938671606516L1008.3226809120177,323.711550216453L1015.576800918579,324.92301626442486L1022.8309209251403,327.9880735646529L1030.0850409317015,316.870980435723L1037.339160938263,321.3762211932392L1044.593280944824,324.90004993433826L1051.8474009513855,328.57328114596L1059.1015209579468,327.54021026545195L1066.355640964508,330.41773341558485L1073.6097609710694,328.0669814125328L1080.8638809776305,328.9790783522572L1088.118000984192,325.2107617582475L1095.3721209907533,327.39156936719235L1102.6262409973144,329.47053234150405L1109.8803610038758,329.27275913672315L1117.134481010437,328.6487319082327L1124.3886010169983,330.1053181873744L1131.6427210235597,325.78545596403325L1138.8968410301209,325.04993125808465L1146.1509610366822,325.00208506492964L1153.4050810432434,328.57551829233245L1160.6592010498048,328.6277857423846L1167.913321056366,323.6235285816696L1175.1674410629273,327.9280665815042L1182.4215610694885,327.6147331839099L1189.6756810760498,330.48324401051235L1196.929801082611,332.0119350450361L1204.1839210891724,328.35217261535684L1211.4380410957335,331.3560619903334L1218.692161102295,329.6812398759387L1225.946281108856,329.2795061142313L1233.2004011154174,325.6748379194224L1240.4545211219788,329.14762444023535L1247.70864112854,331.6875765550925L1254.9627611351013,331.1490495422099L1262.2168811416625,329.36161862764817L1269.4710011482239,332.4157642512935L1276.7251211547853,335.1557467866554L1283.9792411613464,329.0429090735932L1291.2333611679078,333.4280633555392L1298.487481174469,331.7317027241465L1305.7416011810303,335.6391148392388L1312.9957211875917,332.5951381424458L1320.2498411941529,332.0279436050546L1327.5039612007142,332.1754978735656L1334.7580812072754,332.30576446917667L1342.0122012138368,333.54449038392613L1349.266321220398,334.78369876166425L1356.5204412269593,336.81707466517463L1363.7745612335204,338.478146402558L1371.0286812400818,339.35321084064896L1378.282801246643,340.2363379817681L1385.5369212532044,341.46482235549325L1392.7910412597655,342.41804705019797L1400.0451612663269,341.6311441590418" fill="none"></path></g><g><path style="fill: none;" stroke="rgb(0, 119, 187)" stroke-width="2px" d="M188.60712017059328,-11.536250439175578L195.86124017715454,8.601582965213238L203.11536018371584,24.55616706442058L210.36948019027707,33.9863147858447L217.62360019683837,40.61808658965383L224.87772020339966,63.64679308670556L232.13184020996096,95.23595003563297L239.38596021652222,125.42113447469427L246.64008022308352,149.10254245438222L253.89420022964475,176.23212390334305L261.148320236206,189.75335340516799L268.40244024276734,200.9687491853261L275.6565602493286,213.29359552640634L282.91068025588993,227.76363556563277L290.1648002624512,240.620461916783L297.41892026901246,246.44994146385332L304.6730402755737,244.01014910495329L311.927160282135,248.84445502238316L319.1812802886963,253.41764354192014L326.4354002952576,258.5382233574818L333.68952030181885,271.32275271132266L340.9436403083801,272.99475538242433L348.1977603149414,275.1946939240266L355.4518803215027,278.117047323917L362.70600032806396,282.95412095077234L369.96012033462523,285.89080071995164L377.21424034118655,288.32703448650005L384.4683603477478,289.3051906239434L391.7224803543091,294.83368240763485L398.9766003608704,294.3245153550503L406.2307203674317,290.08476259756856L413.4848403739929,294.33392571539935L420.73896038055415,296.5634073559528L427.99308038711547,298.58509560117733L435.24720039367674,297.6506238968649L442.501320400238,300.59881499240174L449.7554404067993,299.0411022298089L457.0095604133606,301.9958033436772L464.2636804199219,300.6836482635925L471.5178004264832,302.85259467248227L478.77192043304444,306.044319071216L486.02604043960577,304.82848455927706L493.28016044616703,305.38639779823325L500.53428045272824,308.37524405763173L507.7884004592895,303.4527150635729L515.0425204658508,307.61822525276875L522.296640472412,308.9572843788914L529.5507604789734,308.85199984859656L536.8048804855347,310.45420976502936L544.059000492096,312.1838706454486L551.3131204986572,313.6656223753566L558.5672405052185,314.93243596102644L565.8213605117799,314.9785416694835L573.0754805183411,315.75614183564795L580.3296005249024,315.2942185483205L587.5837205314637,315.2100414245577L594.8378405380249,316.35546850103253L602.0919605445862,313.99400950850315L609.3460805511475,311.01114452967323L616.6002005577087,315.7457399465811L623.85432056427,318.47997397628023L631.1084405708312,321.615590567514L638.3625605773926,324.1872626325668L645.6166805839539,322.2556874097994L652.8708005905152,316.0136874273286L660.1249205970764,320.0702766830071L667.3790406036377,322.20770296771366L674.633160610199,325.19678857325425L681.8872806167602,326.0840589317946L689.1414006233215,324.9624086030297L696.3955206298828,323.1799004068265L703.649640636444,328.24311680648304L710.9037606430054,327.0628342905432L718.1578806495667,330.05346639239065L725.4120006561279,333.8286365806746L732.6661206626892,329.81417634810606L739.9202406692505,331.2955689894221L747.1743606758118,327.04235303461905L754.4284806823731,323.48676522564335L761.6826006889344,327.1585133935561L768.9367206954956,328.19646696295297L776.1908407020569,326.4478757945811L783.4449607086182,328.59546392852405L790.6990807151795,327.6990212891602L797.9532007217408,327.0969279067967L805.2073207283021,327.86949539015075L812.4614407348633,326.0791938761211L819.7155607414245,328.8061784307899L826.9696807479858,329.98844933920503L834.223800754547,334.88360412941745L841.4779207611083,334.16162629505226L848.7320407676697,332.18319581977386L855.9861607742309,333.90339595842266L863.2402807807922,334.2972060409313L870.4944007873535,333.231647941654L877.7485207939147,330.97734246592205L885.002640800476,332.2855813840435L892.2567608070374,332.7140311066404L899.5108808135986,334.53225493834515L906.7650008201599,336.6786226834953L914.0191208267212,334.8146497477009L921.2732408332824,335.84540927820774L928.5273608398438,335.85874063439627L935.7814808464051,336.42445210976064L943.0356008529664,338.14401114000754L950.2897208595276,341.0378040933717L957.5438408660889,340.8222896904095L964.7979608726502,341.8607174515642L972.0520808792115,344.42344342332365L979.3062008857728,342.1603983776892L986.5603208923341,337.4897744713641L993.8144408988953,335.56654523534456L1001.0685609054565,335.6199856879841L1008.3226809120177,340.79715085233903L1015.576800918579,338.40393511429016L1022.8309209251403,333.5230659018521L1030.0850409317015,329.05130373131584L1037.339160938263,330.3591990407369L1044.593280944824,334.7359339237572L1051.8474009513855,337.4357845110468L1059.1015209579468,339.0519692938469L1066.355640964508,339.48695885931295L1073.6097609710694,339.50815095429044L1080.8638809776305,337.63228313104867L1088.118000984192,338.8337633998277L1095.3721209907533,338.94673302179945L1102.6262409973144,337.8568323263792L1109.8803610038758,342.49628833324823L1117.134481010437,343.9665710746689L1124.3886010169983,347.80209668741065L1131.6427210235597,344.83169283198094L1138.8968410301209,343.270088445561L1146.1509610366822,342.11885452802613L1153.4050810432434,342.11165412386555L1160.6592010498048,344.9514043486323L1167.913321056366,345.90919003817476L1175.1674410629273,348.0364925717071L1182.4215610694885,349.83994011609474L1189.6756810760498,350.0816630454772L1196.929801082611,345.67092487816296L1204.1839210891724,345.88986602028666L1211.4380410957335,347.9006593468539L1218.692161102295,349.6549726933154L1225.946281108856,345.81766770361423L1233.2004011154174,344.33872489716333L1240.4545211219788,342.78082048404036L1247.70864112854,346.5464707580864L1254.9627611351013,346.83312079808167L1262.2168811416625,345.23172694623486L1269.4710011482239,345.71200984372325L1276.7251211547853,346.4723317316733L1283.9792411613464,349.80460716067984L1291.2333611679078,348.9408147861557L1298.487481174469,350.3805239337782L1305.7416011810303,349.1717142740265L1312.9957211875917,348.5016102877848L1320.2498411941529,349.6715341153096L1327.5039612007142,351.27443830864553L1334.7580812072754,353.6840749559956L1342.0122012138368,352.5386020973524L1349.266321220398,353.3437407251998L1356.5204412269593,351.0927087722665L1363.7745612335204,351.993775367364L1371.0286812400818,355.67187439560826L1378.282801246643,353.34965329702214L1385.5369212532044,351.7742525631595L1392.7910412597655,353.3841595661508L1400.0451612663269,354.4288829779877" fill="none"></path></g></g></g></g><g opacity="0.2"><g><g><g><path style="fill: none;" stroke="rgb(204, 51, 17)" stroke-width="2px" d="M159.59064014434816,-14.625590959646557L166.84476015090942,20.12950758227707L174.0988801574707,23.628736045501498L181.35300016403198,33.366762488553405L188.60712017059328,41.07295004599129L195.86124017715454,34.69412423715528L203.11536018371584,44.31929909500617L210.36948019027707,34.4536208588581L217.62360019683837,79.13519331849938L224.87772020339966,152.33370428023227L232.13184020996096,172.69097557909677L239.38596021652222,197.9667004491371L246.64008022308352,186.4238141708642L253.89420022964475,207.48122461477152L261.148320236206,223.74422891962462L268.40244024276734,243.16152753214436L275.6565602493286,234.97146248813246L282.91068025588993,260.5441484260703L290.1648002624512,247.6590045003009L297.41892026901246,262.92832157118966L304.6730402755737,230.1577586642149L311.927160282135,267.3291506300305L319.1812802886963,268.83657094235747L326.4354002952576,273.5464500320101L333.68952030181885,278.7267779713319L340.9436403083801,274.69604980087064L348.1977603149414,287.1339977898063L355.4518803215027,277.27457136561395L362.70600032806396,274.1384583478185L369.96012033462523,264.45169038340373L377.21424034118655,283.3278244977551L384.4683603477478,291.97717444151516L391.7224803543091,277.2294052139337L398.9766003608704,302.6751410927704L406.2307203674317,297.73687948473474L413.4848403739929,291.71590611636503L420.73896038055415,298.3040081407193L427.99308038711547,283.7895016724863L435.24720039367674,295.0452192617925L442.501320400238,293.1457210282415L449.7554404067993,300.23514819804626L457.0095604133606,300.77331437823585L464.2636804199219,288.77662948417594L471.5178004264832,299.4721719634484L478.77192043304444,304.06460629993256L486.02604043960577,293.9028601118807L493.28016044616703,299.1669176756096L500.53428045272824,283.6914502951805L507.7884004592895,281.62072896684185L515.0425204658508,313.6732585119004L522.296640472412,304.7172827093114L529.5507604789734,298.6784789180679L536.8048804855347,300.7082763956964L544.059000492096,299.8776147275777L551.3131204986572,302.78467538999485L558.5672405052185,293.3071836410983L565.8213605117799,307.6710724763977L573.0754805183411,300.3875520629672L580.3296005249024,284.55821936704353L587.5837205314637,301.58738960647196L594.8378405380249,303.82209341064964L602.0919605445862,303.72908175930814L609.3460805511475,294.64296619764053L616.6002005577087,307.78134040461697L623.85432056427,291.10606737768285L631.1084405708312,294.9587783924045L638.3625605773926,310.0681639064256L645.6166805839539,305.37802905963315L652.8708005905152,293.1746835040364L660.1249205970764,309.9437337103066L667.3790406036377,302.59450547734133L674.633160610199,287.63918247222944L681.8872806167602,298.1215254050113L689.1414006233215,314.6437885240288L696.3955206298828,314.58146178647013L703.649640636444,310.6262338144743L710.9037606430054,313.425450720655L718.1578806495667,315.8592237004232L725.4120006561279,289.8562153385322L732.6661206626892,314.1405495585919L739.9202406692505,319.99399988414774L747.1743606758118,285.8690584697624L754.4284806823731,306.5547093813019L761.6826006889344,314.61705883821804L768.9367206954956,312.1132719439456L776.1908407020569,311.8350025179158L783.4449607086182,317.6541316717147L790.6990807151795,314.5108737259699L797.9532007217408,304.66538629067884L805.2073207283021,319.32113267391185L812.4614407348633,315.14323174649263L819.7155607414245,317.58064098423506L826.9696807479858,304.0484026240473L834.223800754547,322.95400956619L841.4779207611083,328.86838316131445L848.7320407676697,306.661755712544L855.9861607742309,325.22558630210654L863.2402807807922,327.28026343955884L870.4944007873535,322.10309330321473L877.7485207939147,323.0819803292839L885.002640800476,291.47281908108613L892.2567608070374,323.9594348960713L899.5108808135986,309.158684751865L906.7650008201599,324.1375158458104L914.0191208267212,328.8383361875272L921.2732408332824,320.3343727687378L928.5273608398438,316.7911583428248L935.7814808464051,313.3599342831189L943.0356008529664,327.16840066135086L950.2897208595276,321.897134375673L957.5438408660889,318.4427849911308L964.7979608726502,329.019287867246L972.0520808792115,330.93961484164953L979.3062008857728,319.0776628746357L986.5603208923341,317.42188961635907L993.8144408988953,326.0255311594427L1001.0685609054565,327.9895570235368L1008.3226809120177,321.7047954670348L1015.576800918579,326.74021533638256L1022.8309209251403,332.5856595149951L1030.0850409317015,300.1953407423281L1037.339160938263,328.13408232951355L1044.593280944824,330.1857930459868L1051.8474009513855,334.08312796339254L1059.1015209579468,325.99060394469L1066.355640964508,334.73401814078403L1073.6097609710694,324.54085340795467L1080.8638809776305,330.34722376184385L1088.118000984192,319.5582868672327L1095.3721209907533,330.66278078060964L1102.6262409973144,332.58897680297156L1109.8803610038758,328.9760993295518L1117.134481010437,327.7126910654971L1124.3886010169983,332.290197606087L1131.6427210235597,319.30566262902136L1138.8968410301209,323.9466441991618L1146.1509610366822,324.9303157751972L1153.4050810432434,333.9356681334366L1160.6592010498048,328.7061869174629L1167.913321056366,316.117142840597L1175.1674410629273,334.3848735812561L1182.4215610694885,327.14473308751843L1189.6756810760498,334.7860102504159L1196.929801082611,334.3049715968218L1204.1839210891724,322.86252897083773L1211.4380410957335,335.86189605279833L1218.692161102295,327.16900670434654L1225.946281108856,328.6769054716702L1233.2004011154174,320.2678356272089L1240.4545211219788,334.3568042214548L1247.70864112854,335.4975047273783L1254.9627611351013,330.3412590228861L1262.2168811416625,326.6804722558055L1269.4710011482239,336.9969826867616L1276.7251211547853,339.2657205896983L1283.9792411613464,319.87365250399984L1291.2333611679078,340.0057947784583L1298.487481174469,329.18716177705744L1305.7416011810303,341.50023301187724L1312.9957211875917,328.0291730972563L1320.2498411941529,331.1771517989677L1327.5039612007142,332.396829276332L1334.7580812072754,332.50116436259333L1342.0122012138368,335.40257925605044L1349.266321220398,336.6425113282713L1356.5204412269593,339.86713852044005L1363.7745612335204,340.9697540086332L1371.0286812400818,340.66580749778524L1378.282801246643,341.5610286934468L1385.5369212532044,343.3075489160809L1392.7910412597655,343.8478840922552L1400.0451612663269,340.4507898223076" fill="none"></path></g><g><path style="fill: none;" stroke="rgb(0, 119, 187)" stroke-width="2px" d="M159.59064014434816,-156.59607484245345L166.84476015090942,9.52975179332647L174.0988801574707,27.98854556263278L181.35300016403198,27.926601589071325L188.60712017059328,41.91911365600022L195.86124017715454,37.96273739201254L203.11536018371584,48.086079592336276L210.36948019027707,47.988985125023746L217.62360019683837,50.505594613205375L224.87772020339966,98.06453162847404L232.13184020996096,142.51654138074068L239.38596021652222,170.63977521461987L246.64008022308352,184.59681781779986L253.89420022964475,216.90736219403166L261.148320236206,210.02947592672913L268.40244024276734,217.7889952677894L275.6565602493286,231.77898747173612L282.91068025588993,249.4673730054971L290.1648002624512,259.90499634459565L297.41892026901246,255.19396896295115L304.6730402755737,240.35050873604723L311.927160282135,256.0958566315655L319.1812802886963,260.277393816959L326.4354002952576,266.21907124389014L333.68952030181885,290.49951402997743L340.9436403083801,275.5027568221589L348.1977603149414,278.4945997099758L355.4518803215027,282.50057580861227L362.70600032806396,290.2097297870292L369.96012033462523,290.2958197894196L377.21424034118655,291.98138484548537L384.4683603477478,290.7724247600451L391.7224803543091,303.1264198455752L398.9766003608704,293.5607647893029L406.2307203674317,283.72513352694205L413.4848403739929,300.70767035270063L420.73896038055415,299.9076298043652L427.99308038711547,301.61762796225787L435.24720039367674,296.24891634227L442.501320400238,305.0211016321603L449.7554404067993,296.70453308704407L457.0095604133606,306.42785501320003L464.2636804199219,298.7154156438064L471.5178004264832,306.1060142854788L478.77192043304444,310.83190566901806L486.02604043960577,303.00473279143677L493.28016044616703,306.2232676566486L500.53428045272824,312.85851344666906L507.7884004592895,296.06892157254435L515.0425204658508,313.8664905365323L522.296640472412,310.9658730680695L529.5507604789734,308.69407305315457L536.8048804855347,312.8575246396761L544.059000492096,314.778361966076L551.3131204986572,315.88824997021766L558.5672405052185,316.832656339531L565.8213605117799,315.047700232169L573.0754805183411,316.9225420848946L580.3296005249024,314.60133361732943L587.5837205314637,315.0837757389136L594.8378405380249,318.07360911574466L602.0919605445862,310.4518210197092L609.3460805511475,306.5368470614284L616.6002005577087,322.84763307194316L623.85432056427,322.58132502082873L631.1084405708312,326.3190154543648L638.3625605773926,328.0447707301459L645.6166805839539,319.3583245756485L652.8708005905152,306.6506874536223L660.1249205970764,326.1551605665249L667.3790406036377,325.41384239477367L674.633160610199,329.68041698156503L681.8872806167602,327.41496446960514L689.1414006233215,323.27993310988234L696.3955206298828,320.5061381125216L703.649640636444,335.83794140596797L710.9037606430054,325.2924105166334L718.1578806495667,334.5394145451619L725.4120006561279,339.49139186310043L732.6661206626892,323.79248599925336L739.9202406692505,333.51765795139625L747.1743606758118,320.66252910241434L754.4284806823731,318.15338351217986L761.6826006889344,332.66613564542524L768.9367206954956,329.7533973170483L776.1908407020569,323.8249890420232L783.4449607086182,331.8168461294385L790.6990807151795,326.3543573301145L797.9532007217408,326.1937878332514L805.2073207283021,329.0283466151819L812.4614407348633,323.39374160507657L819.7155607414245,332.8966552627931L826.9696807479858,331.7618557018278L834.223800754547,342.2263363147362L841.4779207611083,333.0786595435045L848.7320407676697,329.2155501068564L855.9861607742309,336.4836961663958L863.2402807807922,334.8879211646944L870.4944007873535,331.633310792738L877.7485207939147,327.59588425232414L885.002640800476,334.2479397612256L892.2567608070374,333.3567056905358L899.5108808135986,337.25959068590225L906.7650008201599,339.8981743012203L914.0191208267212,332.01869034400937L921.2732408332824,337.39154857396795L928.5273608398438,335.8787376686791L935.7814808464051,337.27301932280716L943.0356008529664,340.7233496853778L950.2897208595276,345.378493523418L957.5438408660889,340.49901808596616L964.7979608726502,343.4183590932963L972.0520808792115,348.26753238096273L979.3062008857728,338.7658308092376L986.5603208923341,330.4838386118766L993.8144408988953,332.68170138131507L1001.0685609054565,335.70014636694356L1008.3226809120177,348.56289859887147L1015.576800918579,334.814111507217L1022.8309209251403,326.2017620831949L1030.0850409317015,322.34366047551146L1037.339160938263,332.3210420048686L1044.593280944824,341.30103624828763L1051.8474009513855,341.48556039198115L1059.1015209579468,341.47624646804707L1066.355640964508,340.13944320751204L1073.6097609710694,339.5399390967567L1080.8638809776305,334.81848139618603L1088.118000984192,340.6359838029964L1095.3721209907533,339.116187454757L1102.6262409973144,336.22198128324885L1109.8803610038758,349.4554723435518L1117.134481010437,346.1719951867998L1124.3886010169983,353.5553851065232L1131.6427210235597,340.37608704883655L1138.8968410301209,340.92768186593105L1146.1509610366822,340.3920036517238L1153.4050810432434,342.10085351762467L1160.6592010498048,349.21102968578253L1167.913321056366,347.3458685724884L1175.1674410629273,351.2274463720057L1182.4215610694885,352.5451114326762L1189.6756810760498,350.44424743955096L1196.929801082611,339.0548176271915L1204.1839210891724,346.21827773347206L1211.4380410957335,350.9168493367048L1218.692161102295,352.28644271300766L1225.946281108856,340.06171021906243L1233.2004011154174,342.1203106874869L1240.4545211219788,340.44396386435596L1247.70864112854,352.1949461691555L1254.9627611351013,347.26309585807445L1262.2168811416625,342.8296361684647L1269.4710011482239,346.4324341899558L1276.7251211547853,347.61281456359836L1283.9792411613464,354.80302030418954L1291.2333611679078,347.64512622436956L1298.487481174469,352.5400876552118L1305.7416011810303,347.358499784399L1312.9957211875917,347.49645430842224L1320.2498411941529,351.4264198565969L1327.5039612007142,353.6787945986494L1334.7580812072754,357.29852992702064L1342.0122012138368,350.8203928093877L1349.266321220398,354.55144866697077L1356.5204412269593,347.71616084286666L1363.7745612335204,353.34537526001014L1371.0286812400818,361.18902293797476L1378.282801246643,349.86632164914283L1385.5369212532044,349.4111514623656L1392.7910412597655,355.7990200706376L1400.0451612663269,355.99596809574314" fill="none"></path></g></g></g></g></g></g><g transform="translate(50, 374)" clip-path="url(#clip_1)"><clipPath id="clip_1"><rect width="1450" height="25"></rect></clipPath><g><g><line x1="0" y1="0" x2="0" y2="5" style="visibility: inherit;" fill="rgb(0, 0, 0)" stroke="rgb(204, 204, 204)" stroke-width="1px"></line><line x1="145.0824001312256" y1="0" x2="145.0824001312256" y2="5" style="visibility: inherit;" fill="rgb(0, 0, 0)" stroke="rgb(204, 204, 204)" stroke-width="1px"></line><line x1="290.1648002624512" y1="0" x2="290.1648002624512" y2="5" style="visibility: inherit;" fill="rgb(0, 0, 0)" stroke="rgb(204, 204, 204)" stroke-width="1px"></line><line x1="435.24720039367674" y1="0" x2="435.24720039367674" y2="5" style="visibility: inherit;" fill="rgb(0, 0, 0)" stroke="rgb(204, 204, 204)" stroke-width="1px"></line><line x1="580.3296005249024" y1="0" x2="580.3296005249024" y2="5" style="visibility: inherit;" fill="rgb(0, 0, 0)" stroke="rgb(204, 204, 204)" stroke-width="1px"></line><line x1="725.4120006561279" y1="0" x2="725.4120006561279" y2="5" style="visibility: inherit;" fill="rgb(0, 0, 0)" stroke="rgb(204, 204, 204)" stroke-width="1px"></line><line x1="870.4944007873535" y1="0" x2="870.4944007873535" y2="5" style="visibility: inherit;" fill="rgb(0, 0, 0)" stroke="rgb(204, 204, 204)" stroke-width="1px"></line><line x1="1015.576800918579" y1="0" x2="1015.576800918579" y2="5" style="visibility: inherit;" fill="rgb(0, 0, 0)" stroke="rgb(204, 204, 204)" stroke-width="1px"></line><line x1="1160.6592010498048" y1="0" x2="1160.6592010498048" y2="5" style="visibility: inherit;" fill="rgb(0, 0, 0)" stroke="rgb(204, 204, 204)" stroke-width="1px"></line><line x1="1305.7416011810303" y1="0" x2="1305.7416011810303" y2="5" style="visibility: inherit;" fill="rgb(0, 0, 0)" stroke="rgb(204, 204, 204)" stroke-width="1px"></line><line x1="1450.8240013122559" y1="0" x2="1450.8240013122559" y2="5" style="visibility: inherit;" fill="rgb(0, 0, 0)" stroke="rgb(204, 204, 204)" stroke-width="1px"></line></g><g transform="translate(0, 8)"><text style="text-anchor: middle; visibility: hidden; font-family: Roboto, sans-serif; font-size: 12px; font-weight: 200;" x="0" y="0" dx="0em" dy="0.95em" fill="rgb(255, 255, 255)" stroke="none" stroke-width="1px">-20</text><text style="text-anchor: middle; visibility: inherit; font-family: Roboto, sans-serif; font-size: 12px; font-weight: 200;" x="145.0824001312256" y="0" dx="0em" dy="0.95em" fill="rgb(255, 255, 255)" stroke="none" stroke-width="1px">0</text><text style="text-anchor: middle; visibility: inherit; font-family: Roboto, sans-serif; font-size: 12px; font-weight: 200;" x="290.1648002624512" y="0" dx="0em" dy="0.95em" fill="rgb(255, 255, 255)" stroke="none" stroke-width="1px">20</text><text style="text-anchor: middle; visibility: inherit; font-family: Roboto, sans-serif; font-size: 12px; font-weight: 200;" x="435.24720039367674" y="0" dx="0em" dy="0.95em" fill="rgb(255, 255, 255)" stroke="none" stroke-width="1px">40</text><text style="text-anchor: middle; visibility: inherit; font-family: Roboto, sans-serif; font-size: 12px; font-weight: 200;" x="580.3296005249024" y="0" dx="0em" dy="0.95em" fill="rgb(255, 255, 255)" stroke="none" stroke-width="1px">60</text><text style="text-anchor: middle; visibility: inherit; font-family: Roboto, sans-serif; font-size: 12px; font-weight: 200;" x="725.4120006561279" y="0" dx="0em" dy="0.95em" fill="rgb(255, 255, 255)" stroke="none" stroke-width="1px">80</text><text style="text-anchor: middle; visibility: inherit; font-family: Roboto, sans-serif; font-size: 12px; font-weight: 200;" x="870.4944007873535" y="0" dx="0em" dy="0.95em" fill="rgb(255, 255, 255)" stroke="none" stroke-width="1px">100</text><text style="text-anchor: middle; visibility: inherit; font-family: Roboto, sans-serif; font-size: 12px; font-weight: 200;" x="1015.576800918579" y="0" dx="0em" dy="0.95em" fill="rgb(255, 255, 255)" stroke="none" stroke-width="1px">120</text><text style="text-anchor: middle; visibility: inherit; font-family: Roboto, sans-serif; font-size: 12px; font-weight: 200;" x="1160.6592010498048" y="0" dx="0em" dy="0.95em" fill="rgb(255, 255, 255)" stroke="none" stroke-width="1px">140</text><text style="text-anchor: middle; visibility: inherit; font-family: Roboto, sans-serif; font-size: 12px; font-weight: 200;" x="1305.7416011810303" y="0" dx="0em" dy="0.95em" fill="rgb(255, 255, 255)" stroke="none" stroke-width="1px">160</text><text style="text-anchor: middle; visibility: hidden; font-family: Roboto, sans-serif; font-size: 12px; font-weight: 200;" x="1450.8240013122559" y="0" dx="0em" dy="0.95em" fill="rgb(255, 255, 255)" stroke="none" stroke-width="1px">180</text></g><line x1="0" y1="0" x2="1450.8240013122559" y2="0" fill="rgb(0, 0, 0)" stroke="rgb(204, 204, 204)" stroke-width="1px"></line></g></g></g></g></svg>