<svg viewBox="0 0 330 200" xmlns="http://www.w3.org/2000/svg"><g><g><g><g><g><line x1="61.91500186920166" y1="160.8181814713912" x2="56.91500186920166" y2="160.8181814713912" style="visibility: inherit;" fill="rgb(0, 0, 0)" stroke="rgb(204, 204, 204)" stroke-width="1px"></line><line x1="61.91500186920166" y1="144.73636332425204" x2="56.91500186920166" y2="144.73636332425204" style="visibility: inherit;" fill="rgb(0, 0, 0)" stroke="rgb(204, 204, 204)" stroke-width="1px"></line><line x1="61.91500186920166" y1="128.65454517711294" x2="56.91500186920166" y2="128.65454517711294" style="visibility: inherit;" fill="rgb(0, 0, 0)" stroke="rgb(204, 204, 204)" stroke-width="1px"></line><line x1="61.91500186920166" y1="112.57272702997383" x2="56.91500186920166" y2="112.57272702997383" style="visibility: inherit;" fill="rgb(0, 0, 0)" stroke="rgb(204, 204, 204)" stroke-width="1px"></line><line x1="61.91500186920166" y1="96.4909088828347" x2="56.91500186920166" y2="96.4909088828347" style="visibility: inherit;" fill="rgb(0, 0, 0)" stroke="rgb(204, 204, 204)" stroke-width="1px"></line><line x1="61.91500186920166" y1="80.40909073569557" x2="56.91500186920166" y2="80.40909073569557" style="visibility: inherit;" fill="rgb(0, 0, 0)" stroke="rgb(204, 204, 204)" stroke-width="1px"></line><line x1="61.91500186920166" y1="64.32727258855648" x2="56.91500186920166" y2="64.32727258855648" style="visibility: inherit;" fill="rgb(0, 0, 0)" stroke="rgb(204, 204, 204)" stroke-width="1px"></line><line x1="61.91500186920166" y1="48.245454441417344" x2="56.91500186920166" y2="48.245454441417344" style="visibility: inherit;" fill="rgb(0, 0, 0)" stroke="rgb(204, 204, 204)" stroke-width="1px"></line><line x1="61.91500186920166" y1="32.16363629427822" x2="56.91500186920166" y2="32.16363629427822" style="visibility: inherit;" fill="rgb(0, 0, 0)" stroke="rgb(204, 204, 204)" stroke-width="1px"></line><line x1="61.91500186920166" y1="16.081818147139142" x2="56.91500186920166" y2="16.081818147139142" style="visibility: inherit;" fill="rgb(0, 0, 0)" stroke="rgb(204, 204, 204)" stroke-width="1px"></line><line x1="61.91500186920166" y1="0" x2="56.91500186920166" y2="0" style="visibility: inherit;" fill="rgb(0, 0, 0)" stroke="rgb(204, 204, 204)" stroke-width="1px"></line></g><g transform="translate(51.91500186920166, 0)"><text style="text-anchor: end; visibility: inherit; font-family: Roboto, sans-serif; font-size: 12px; font-weight: 200;" x="0" y="160.8181814713912" dx="0em" dy="0.3em" fill="rgb(255, 255, 255)" stroke="none" stroke-width="1px">0.075</text><text style="text-anchor: end; visibility: hidden; font-family: Roboto, sans-serif; font-size: 12px; font-weight: 200;" x="0" y="144.73636332425204" dx="0em" dy="0.3em" fill="rgb(255, 255, 255)" stroke="none" stroke-width="1px">0.08</text><text style="text-anchor: end; visibility: inherit; font-family: Roboto, sans-serif; font-size: 12px; font-weight: 200;" x="0" y="128.65454517711294" dx="0em" dy="0.3em" fill="rgb(255, 255, 255)" stroke="none" stroke-width="1px">0.085</text><text style="text-anchor: end; visibility: hidden; font-family: Roboto, sans-serif; font-size: 12px; font-weight: 200;" x="0" y="112.57272702997383" dx="0em" dy="0.3em" fill="rgb(255, 255, 255)" stroke="none" stroke-width="1px">0.09</text><text style="text-anchor: end; visibility: inherit; font-family: Roboto, sans-serif; font-size: 12px; font-weight: 200;" x="0" y="96.4909088828347" dx="0em" dy="0.3em" fill="rgb(255, 255, 255)" stroke="none" stroke-width="1px">0.095</text><text style="text-anchor: end; visibility: hidden; font-family: Roboto, sans-serif; font-size: 12px; font-weight: 200;" x="0" y="80.40909073569557" dx="0em" dy="0.3em" fill="rgb(255, 255, 255)" stroke="none" stroke-width="1px">0.1</text><text style="text-anchor: end; visibility: inherit; font-family: Roboto, sans-serif; font-size: 12px; font-weight: 200;" x="0" y="64.32727258855648" dx="0em" dy="0.3em" fill="rgb(255, 255, 255)" stroke="none" stroke-width="1px">0.105</text><text style="text-anchor: end; visibility: hidden; font-family: Roboto, sans-serif; font-size: 12px; font-weight: 200;" x="0" y="48.245454441417344" dx="0em" dy="0.3em" fill="rgb(255, 255, 255)" stroke="none" stroke-width="1px">0.11</text><text style="text-anchor: end; visibility: inherit; font-family: Roboto, sans-serif; font-size: 12px; font-weight: 200;" x="0" y="32.16363629427822" dx="0em" dy="0.3em" fill="rgb(255, 255, 255)" stroke="none" stroke-width="1px">0.115</text><text style="text-anchor: end; visibility: hidden; font-family: Roboto, sans-serif; font-size: 12px; font-weight: 200;" x="0" y="16.081818147139142" dx="0em" dy="0.3em" fill="rgb(255, 255, 255)" stroke="none" stroke-width="1px">0.12</text><text style="text-anchor: end; visibility: hidden; font-family: Roboto, sans-serif; font-size: 12px; font-weight: 200;" x="0" y="0" dx="0em" dy="0.3em" fill="rgb(255, 255, 255)" stroke="none" stroke-width="1px">0.125</text></g><line x1="61.91500186920166" y1="0" x2="61.91500186920166" y2="176.89999961853027" fill="rgb(0, 0, 0)" stroke="rgb(204, 204, 204)" stroke-width="1px"></line></g></g><g transform="translate(61, 0)" clip-path="url(#clip_0)"><clipPath id="clip_0"><rect width="268" height="176"></rect></clipPath><g><g><g><line x1="0" y1="0" x2="0" y2="176.89999961853027" fill="rgb(0, 0, 0)" stroke="rgb(189, 189, 189)" stroke-width="1px" opacity="0.25"></line><line x1="22.34041651089986" y1="0" x2="22.34041651089986" y2="176.89999961853027" fill="rgb(0, 0, 0)" stroke="rgb(189, 189, 189)" stroke-width="1px" opacity="0.25"></line><line x1="44.68083302179972" y1="0" x2="44.68083302179972" y2="176.89999961853027" fill="rgb(0, 0, 0)" stroke="rgb(189, 189, 189)" stroke-width="1px" opacity="0.25"></line><line x1="67.02124953269958" y1="0" x2="67.02124953269958" y2="176.89999961853027" fill="rgb(0, 0, 0)" stroke="rgb(189, 189, 189)" stroke-width="1px" opacity="0.25"></line><line x1="89.36166604359944" y1="0" x2="89.36166604359944" y2="176.89999961853027" fill="rgb(0, 0, 0)" stroke="rgb(189, 189, 189)" stroke-width="1px" opacity="0.25"></line><line x1="111.70208255449931" y1="0" x2="111.70208255449931" y2="176.89999961853027" fill="rgb(0, 0, 0)" stroke="rgb(189, 189, 189)" stroke-width="1px" opacity="0.25"></line><line x1="134.04249906539917" y1="0" x2="134.04249906539917" y2="176.89999961853027" fill="rgb(0, 0, 0)" stroke="rgb(189, 189, 189)" stroke-width="1px" opacity="0.25"></line><line x1="156.38291557629904" y1="0" x2="156.38291557629904" y2="176.89999961853027" fill="rgb(0, 0, 0)" stroke="rgb(189, 189, 189)" stroke-width="1px" opacity="0.25"></line><line x1="178.72333208719888" y1="0" x2="178.72333208719888" y2="176.89999961853027" fill="rgb(0, 0, 0)" stroke="rgb(189, 189, 189)" stroke-width="1px" opacity="0.25"></line><line x1="201.06374859809875" y1="0" x2="201.06374859809875" y2="176.89999961853027" fill="rgb(0, 0, 0)" stroke="rgb(189, 189, 189)" stroke-width="1px" opacity="0.25"></line><line x1="223.40416510899863" y1="0" x2="223.40416510899863" y2="176.89999961853027" fill="rgb(0, 0, 0)" stroke="rgb(189, 189, 189)" stroke-width="1px" opacity="0.25"></line><line x1="245.74458161989847" y1="0" x2="245.74458161989847" y2="176.89999961853027" fill="rgb(0, 0, 0)" stroke="rgb(189, 189, 189)" stroke-width="1px" opacity="0.25"></line><line x1="268.08499813079834" y1="0" x2="268.08499813079834" y2="176.89999961853027" fill="rgb(0, 0, 0)" stroke="rgb(189, 189, 189)" stroke-width="1px" opacity="0.25"></line></g><g><line x1="0" y1="160.8181814713912" x2="268.08499813079834" y2="160.8181814713912" fill="rgb(0, 0, 0)" stroke="rgb(189, 189, 189)" stroke-width="1px" opacity="0.25"></line><line x1="0" y1="144.73636332425204" x2="268.08499813079834" y2="144.73636332425204" fill="rgb(0, 0, 0)" stroke="rgb(189, 189, 189)" stroke-width="1px" opacity="0.25"></line><line x1="0" y1="128.65454517711294" x2="268.08499813079834" y2="128.65454517711294" fill="rgb(0, 0, 0)" stroke="rgb(189, 189, 189)" stroke-width="1px" opacity="0.25"></line><line x1="0" y1="112.57272702997383" x2="268.08499813079834" y2="112.57272702997383" fill="rgb(0, 0, 0)" stroke="rgb(189, 189, 189)" stroke-width="1px" opacity="0.25"></line><line x1="0" y1="96.4909088828347" x2="268.08499813079834" y2="96.4909088828347" fill="rgb(0, 0, 0)" stroke="rgb(189, 189, 189)" stroke-width="1px" opacity="0.25"></line><line x1="0" y1="80.40909073569557" x2="268.08499813079834" y2="80.40909073569557" fill="rgb(0, 0, 0)" stroke="rgb(189, 189, 189)" stroke-width="1px" opacity="0.25"></line><line x1="0" y1="64.32727258855648" x2="268.08499813079834" y2="64.32727258855648" fill="rgb(0, 0, 0)" stroke="rgb(189, 189, 189)" stroke-width="1px" opacity="0.25"></line><line x1="0" y1="48.245454441417344" x2="268.08499813079834" y2="48.245454441417344" fill="rgb(0, 0, 0)" stroke="rgb(189, 189, 189)" stroke-width="1px" opacity="0.25"></line><line x1="0" y1="32.16363629427822" x2="268.08499813079834" y2="32.16363629427822" fill="rgb(0, 0, 0)" stroke="rgb(189, 189, 189)" stroke-width="1px" opacity="0.25"></line><line x1="0" y1="16.081818147139142" x2="268.08499813079834" y2="16.081818147139142" fill="rgb(0, 0, 0)" stroke="rgb(189, 189, 189)" stroke-width="1px" opacity="0.25"></line><line x1="0" y1="0" x2="268.08499813079834" y2="0" fill="rgb(0, 0, 0)" stroke="rgb(189, 189, 189)" stroke-width="1px" opacity="0.25"></line></g></g></g><g><g><line x1="0" y1="402.04545367847794" x2="268.08499813079834" y2="402.04545367847794" fill="rgb(0, 0, 0)" stroke="rgb(153, 153, 153)" stroke-width="1.5px"></line></g></g><g><g><line x1="22.34041651089986" y1="0" x2="22.34041651089986" y2="176.89999961853027" fill="rgb(0, 0, 0)" stroke="rgb(153, 153, 153)" stroke-width="1.5px"></line></g></g><g><g><g><g><g><path style="fill: none;" stroke="rgb(204, 51, 17)" stroke-width="2px" d="M28.148924803733824,-15.76786578135087L28.595733133951825,4.1758893159564865L29.042541464169823,10.577380878025108L29.489349794387817,19.126856610282466L29.936158124605814,24.06566918795419L30.382966454823812,37.30631922169458L30.82977478504181,37.0641167426586L31.276583115259807,37.88298065561264L31.7233914454778,34.13708139558031L32.1701997756958,26.891380311511796L32.6170081059138,41.29308500907709L33.063816436131795,47.74246512564592L33.51062476634979,50.45241482701068L33.95743309656779,53.33694134557197L34.40424142678579,59.34627525375319L34.851049757003786,60.821770705416625L35.297858087221776,65.32493727202139L35.74466641743978,68.42497080959488L36.19147474765778,65.35954276399747L36.63828307787577,60.428757487370554L37.085091408093774,62.555304125375514L37.53189973831177,55.82217359248896L37.97870806852976,60.35820252796547L38.42551639874777,64.18487586785456L38.87232472896576,62.19551438223841L39.319133059183756,69.32536060017944L39.76594138940175,60.15270731771405L40.21274971961975,66.69007909247769L40.65955804983775,70.79676442394862L41.10636638005574,65.7848729643652L41.553174710273744,62.481545812567184L41.99998304049174,73.58028233909945L42.44679137070973,76.43584987323L42.89359970092774,77.44648619845688L43.34040803114573,78.47077708384619L43.787216361363726,77.94935358518966L44.23402469158173,81.2336923834382L44.68083302179972,86.1714712914108L45.12764135201772,83.12977480883293L45.57444968223572,86.9475840440835L46.021258012453714,86.98783133880147L46.46806634267171,89.0002063201426L46.91487467288971,88.12458483377893L47.36168300310771,84.21166374644706L47.808491333325705,89.42169318046666L48.2552996635437,89.31760465664154L48.7021079937617,83.52470326535236L49.14891632397969,86.79079709989284L49.595724654197696,88.86273807155155L50.04253298441569,84.51793340681435L50.489341314633684,87.58892235943439L50.93614964485168,84.87324120080176L51.38295797506969,92.76725773362195L51.82976630528768,96.4145811122326L52.276574635505675,94.22649940285508L52.72338296572367,99.61414273941048L53.17019129594167,96.52395342356778L53.61699962615967,94.42304169315815L54.063807956377666,91.26372962064676L54.51061628659566,88.82460558520998L54.957424616813654,96.84877368095249L55.40423294703166,94.84519671793086L55.85104127724966,85.30318664547636L56.29784960746765,88.1654190639061L56.74465793768565,93.70633241574131L57.19146626790365,98.32755078504496L57.63827459812164,99.6618321614355L58.085082928339645,97.65124871395483L58.531891258557636,91.76823347408785L58.97869958877563,94.96169186548771L59.42550791899364,97.5593446301204L59.87231624921163,102.06677483618653L60.31912457942963,102.92306983591243L60.765932909647624,105.77709173079796L61.21274123986562,106.27958338027601L61.65954957008362,105.7619006357938L62.10635790030161,103.89310873125767L62.553166230519615,100.98325399838767L62.999974560737606,104.16957521312891L63.4467828909556,108.92264747504164L63.89359122117361,110.40144312568513L64.3403995513916,109.12545290286023L64.7872078816096,108.76962017544027L65.2340162118276,101.06348158247299L65.6808245420456,105.23123572475922L66.12763287226359,111.16362560941802L66.57444120248158,110.95231138824245L67.02124953269958,107.07523018314403L67.46805786291758,108.42786207865683L67.91486619313558,107.21108966416743L68.36167452335357,100.02458095265933L68.80848285357158,104.52555581098858L69.25529118378958,109.06268621107692L69.70209951400757,110.51151019955223L70.14890784422556,101.2208056070181L70.59571617444355,104.58578209087749L71.04252450466156,107.87099475779348L71.48933283487956,111.06475423242549L71.93614116509755,112.34472372490254L72.38294949531556,113.62981495964947L72.82975782553355,113.69366031541382L73.27656615575154,110.21501494052893L73.72337448596954,113.91571237198735L74.17018281618755,113.08753587496959L74.61699114640554,110.17907846850409L75.06379947662354,106.64106302716259L75.51060780684153,112.59039434649902L75.95741613705952,115.3297249681908L76.40422446727752,116.23105974393086L76.85103279749553,117.69838647652973L77.29784112771353,112.74937342786707L77.74464945793152,114.30717348908426L78.19145778814952,110.72265912224465L78.63826611836751,115.96722942769486L79.0850744485855,115.48599963908364L79.5318827788035,114.35397647263908L79.97869110902151,116.22793999984705L80.4254994392395,110.24563974316128L80.8723077694575,112.70759241832059L81.3191160996755,114.55945204647882L81.76592442989349,113.76926262880437L82.21273276011148,119.63527407012553L82.6595410903295,122.2946388734243L83.10634942054749,122.812654655997L83.55315775076548,121.90017085082818L83.99996608098348,119.79279208899679L84.44677441120147,118.5344803876481L84.89358274141946,122.66164312852149L85.34039107163748,121.88760916148543L85.78719940185547,124.35014360789611L86.23400773207347,124.91930295113684L86.68081606229146,125.62014017770534L87.12762439250946,117.42897188099768L87.57443272272745,115.55558087082504L88.02124105294546,121.2815725919518L88.46804938316346,119.63563924288067L88.91485771338145,116.14628972858277L89.36166604359944,118.30849334936664L89.80847437381745,120.1925158679086L90.25528270403544,119.33782765097372L90.70209103425343,117.88204011750273L91.14889936447145,117.5338919192479L91.59570769468944,121.15226732264568L92.04251602490743,119.54686979045012L92.48932435512542,120.94108215767397L92.93613268534342,120.27278027204987L93.38294101556141,118.00126343506788L93.82974934577942,118.93119787811044L94.27655767599742,122.47062616923685L94.72336600621541,122.87215031310515L95.1701743364334,125.98424153999322L95.61698266665141,125.90472700487558L96.0637909968694,128.74842045169595L96.5105993270874,128.52708619725064L96.95740765730541,126.45876976275392L97.4042159875234,125.16576892164863L97.85102431774139,124.60454965682995L98.29783264795938,124.69603161208026L98.74464097817739,126.77144097488363L99.19144930839539,126.59827066448624L99.63825763861338,129.91544678976987L100.08506596883139,133.19321114747518L100.53187429904938,125.93908785964179L100.97868262926737,126.27894178260813L101.42549095948537,128.2679446006851L101.87229928970336,129.4435843404265L102.31910761992137,132.31464176063793L102.76591595013937,128.97975953502055L103.21272428035736,127.42573545942271L103.65953261057535,130.9585777496001L104.10634094079334,129.80662375110595L104.55314927101135,131.21667195523588L104.99995760122935,128.45324811227314L105.44676593144735,129.14944313250288L105.89357426166535,127.36534919338749L106.34038259188334,127.76829124668471L106.78719092210133,126.75399034327751L107.23399925231934,131.63435113916321L107.68080758253734,129.8878099619215L108.12761591275533,130.6980939945781L108.57442424297334,130.9182185680234L109.02123257319133,134.2146524792584L109.46804090340932,132.22298994113052L109.91484923362731,132.10707168628971L110.36165756384533,128.66817542246358L110.80846589406332,129.9004416421974L111.25527422428131,132.83796983127053L111.70208255449931,131.56114180653134L112.1488908847173,131.8764439532841L112.5956992149353,133.57945534172876L113.0425075451533,138.03971901699921L113.4893158753713,134.13498327548658L113.9361242055893,133.07130904646237L114.3829325358073,133.06825002559097L114.82974086602529,134.0794784697394L115.27654919624328,129.6671750979525L115.72335752646127,128.02860096485412L116.17016585667929,127.9605564235385L116.61697418689728,121.35406712838584L117.06378251711527,123.87942043131358L117.51059084733328,130.69806536474493L117.95739917755127,133.14360228291423L118.40420750776926,133.00970323346465L118.85101583798728,130.20928346650078L119.29782416820527,127.93324419622094L119.74463249842326,128.2849990516129L120.19144082864125,127.47755312367794L120.63824915885925,133.65474702573923L121.08505748907724,129.53642066601086L121.53186581929525,126.6557017859412L121.97867414951325,125.44133180479558L122.42548247973124,127.90653484279906L122.87229080994923,130.72411026442202L123.31909914016724,130.12356512060015L123.76590747038523,133.9538411351936L124.21271580060322,134.65319150675418L124.65952413082124,135.17344959078073L125.10633246103923,136.09960432140036L125.55314079125722,137.6538485534252L125.99994912147521,130.4114594930385L126.44675745169322,131.28037127315048L126.8935657819112,134.0524058109185L127.34037411212921,136.1045969674062L127.78718244234722,137.82582710704398L128.2339907725652,138.32992428233817L128.6807991027832,132.4867475052576L129.1276074330012,129.54645366180492L129.5744157632192,134.5373783716896L130.02122409343718,134.79387044247818L130.4680324236552,129.96811210964867L130.9148407538732,125.97340992765464L131.3616490840912,132.96389959622167L131.80845741430917,136.82281555318787L132.25526574452718,141.18101955667228L132.70207407474518,143.56172959325056L133.14888240496316,146.90429580843357L133.59569073518117,147.4808947188471L134.04249906539917,148.17810551478968L134.48930739561717,146.35240645250758L134.93611572583515,145.2998534184522L135.38292405605316,147.62226922244457L135.82973238627116,143.41395590738307L136.27654071648914,145.76670834516196L136.72334904670714,150.07025083675984L137.17015737692518,150.8352702620841L137.61696570714315,150.6963856948495L138.06377403736116,150.535057654919L138.51058236757916,151.2078623044099L138.95739069779714,152.11409424279407L139.40419902801514,153.27577293087663L139.85100735823312,154.79625218663503L140.29781568845112,153.54915425866403L140.74462401866913,150.6466957816792L141.1914323488871,151.97901595869595L141.6382406791051,151.63911261940638L142.08504900932311,150.94385568554276L142.53185733954112,152.0362277313672L142.97866566975912,152.45581864206147L143.42547399997713,152.22394583767337L143.8722823301951,153.2290924805312L144.3190906604131,154.9514997076967L144.76589899063111,153.51699139148838L145.2127073208491,155.91699912128158L145.6595156510671,156.44469320419287L146.1063239812851,155.78336710803362L146.55313231150308,157.27724631367423L146.99994064172108,158.5219592190897L147.4467489719391,157.42379664242716L147.89355730215706,156.81265411013933L148.3403656323751,158.95664386392951L148.7871739625931,159.98212011821533L149.23398229281108,159.5477637057421L149.68079062302908,159.2062864910051L150.1275989532471,158.05220456248637L150.57440728346506,158.89542129886945L151.02121561368307,158.12359319487115L151.46802394390104,159.62654206549914L151.91483227411905,158.8725678033456L152.36164060433705,153.93238138963315L152.80844893455503,155.8030572953124L153.25525726477304,157.62186935338002L153.70206559499107,158.70086796365698L154.14887392520905,154.7923889772635L154.59568225542705,152.30874302999314L155.04249058564506,155.4507151073864L155.48929891586303,154.20512681572703L155.93610724608104,154.33126307784693L156.38291557629904,157.0846763866704L156.82972390651702,156.7007044117034L157.27653223673502,158.17153847344517L157.72334056695303,156.91145682911088L158.170148897171,156.7730310457132L158.616957227389,157.8228966566385L159.063765557607,158.27466930906385L159.51057388782502,155.33623556402995L159.95738221804302,155.58061128472113L160.40419054826103,156.9274480823715L160.850998878479,160.31888360432126L161.297807208697,162.46029745309866L161.744615538915,161.5606845852617L162.191423869133,161.64389836817662L162.638232199351,160.42247161316487L163.08504052956897,157.84983017249098L163.53184885978698,157.42191247000653L163.97865719000498,156.3815942861516L164.42546552022296,155.6295134936799L164.872273850441,157.9131070417843L165.319082180659,159.94157686626198L165.76589051087697,159.7170363117549L166.21269884109498,154.57155342191587L166.65950717131298,159.02804134347218L167.10631550153096,159.46711064671507L167.55312383174896,159.22398675103818L167.99993216196697,158.07206515070533L168.44674049218494,158.1199550562257L168.89354882240295,156.89732934984718L169.34035715262095,158.96780333599526L169.78716548283893,160.4808113029958L170.23397381305693,160.72926715243838L170.68078214327497,162.07451652738547L171.12759047349294,159.49376329294913L171.57439880371095,155.78410462385105L172.02120713392895,156.0526126434844L172.46801546414693,153.75710446177288L172.91482379436493,158.8830412782121L173.3616321245829,159.5578451447339L173.80844045480092,156.7200355050192L174.25524878501892,160.3299368354691L174.7020571152369,158.9124687005442L175.1488654454549,157.60433720245652L175.5956737756729,157.3864220833913L176.0424821058909,158.20881784198767L176.48929043610892,157.96544585539064L176.93609876632692,158.11318980617844L177.3829070965449,158.46661673540322L177.8297154267629,157.43507750681718L178.2765237569809,156.66787570650314L178.72333208719888,150.34832501467824L179.1701404174169,156.17256793223322L179.6169487476349,157.44523067235835L180.06375707785287,158.7022328880297L180.51056540807087,161.53229155966423L180.95737373828888,161.75882627697334L181.40418206850686,160.89329130399997L181.8509903987249,161.5568223257912L182.2977987289429,163.8601186797097L182.74460705916087,164.8594620807273L183.19141538937888,156.2727940569694L183.63822371959688,160.02278023430068L184.08503204981486,158.52834560078136L184.53184038003286,158.98126719727404L184.97864871025084,162.38285231322814L185.42545704046884,160.53649542217667L185.87226537068685,160.9382458357307L186.31907370090482,162.43174848175997L186.76588203112283,164.49312224854904L187.21269036134086,164.784834336453L187.65949869155884,165.9507158178527L188.10630702177684,163.6071997614256L188.55311535199485,163.4981918337479L188.99992368221282,160.07241380412256L189.44673201243083,160.24738985770313L189.89354034264883,161.56584361621935L190.3403486728668,163.9874783195657L190.78715700308481,164.25255557192256L191.23396533330282,163.27790441601576L191.6807736635208,164.82747143577333L192.1275819937388,161.50646905336214L192.5743903239568,163.31499225891437L193.0211986541748,165.798555491787L193.46800698439282,167.248741023413L193.91481531461082,166.18236832399052L194.3616236448288,163.6741753241205L194.8084319750468,162.60676139809212L195.2552403052648,163.53323728597084L195.70204863548278,165.76675012388256L196.1488569657008,164.66470936860338L196.59566529591876,168.28350165901293L197.04247362613677,168.94200133902942L197.48928195635477,168.81998202226808L197.93609028657275,169.51227889264277L198.38289861679078,168.13960462780116L198.8297069470088,165.15074825499516L199.27651527722676,159.5650805384933L199.72332360744477,159.74089857876692L200.17013193766277,163.14198379545L200.61694026788075,164.18320166483335L201.06374859809875,161.61726099275344L201.51055692831676,164.52356183713817L201.95736525853474,166.68216489963027L202.40417358875274,166.19966504352786L202.85098191897075,167.47576657290213L203.29779024918872,168.90300984524958L203.74459857940673,168.34343211332938L204.19140690962476,170.62319747655394L204.63821523984274,167.7451356120447L205.08502357006074,168.03706453455627L205.53183190027875,164.79202544351446L205.97864023049672,165.6571128132624L206.42544856071473,166.26003845268636L206.8722568909327,164.62622473072733L207.3190652211507,163.4139096284518L207.7658735513687,162.86923956976295L208.2126818815867,165.2906896874385L208.6594902118047,167.38850166639972L209.1062985420227,165.38196135877504L209.5531068722407,162.37238578970891L209.9999152024587,166.31735249462918L210.4467235326767,166.12336207040508L210.8935318628947,165.80260473030447L211.3403401931127,166.22586601284155L211.7871485233307,165.38853157384892L212.23395685354868,165.14354021156936L212.68076518376668,161.61193995043658L213.1275735139847,159.51661766284724L213.57438184420266,163.32954591445056L214.02119017442067,164.61429420933976L214.46799850463867,165.26069450241278L214.91480683485665,166.02365404929537L215.36161516507468,163.26250029852503L215.8084234952927,165.14567959220318L216.25523182551066,164.88958943711225L216.70204015572867,167.3942658221953L217.14884848594667,167.97588491548345L217.59565681616465,166.9998224874475L218.04246514638265,164.79517312263832L218.48927347660063,169.05694989522917L218.93608180681863,168.68343780915214L219.38289013703664,169.67868418736995L219.82969846725462,170.0678935332881L220.27650679747262,170.8404219862645L220.72331512769065,170.52040025221774L221.17012345790863,167.5578295757812L221.61693178812664,167.80702835593888L222.06374011834464,166.77475002462205L222.51054844856262,169.44037584364935L222.95735677878062,169.4629636011831L223.40416510899863,166.59665504255076L223.8509734392166,169.21471603627776L224.2977817694346,170.15216126440694L224.7445900996526,170.27054128162246L225.1913984298706,168.44282342870713L225.6382067600886,167.98942840443064L226.0850150903066,169.89543986039013L226.5318234205246,169.29646800909103L226.9786317507426,170.6260518625123L227.4254400809606,167.6503125665683L227.8722484111786,169.88949897419533L228.3190567413966,169.40824592618364L228.7658650716146,166.52036373258125L229.21267340183257,166.406291660516L229.65948173205058,166.30686804708222L230.10629006226856,165.9328474740394L230.55309839248656,166.23536023230832L230.99990672270457,168.45269613731918L231.44671505292254,165.36024724359567L231.89352338314058,169.0617188573463L232.34033171335858,169.87786442111496L232.78714004357656,169.39400896282635L233.23394837379456,162.55051345226505L233.68075670401257,164.8708395896061L234.12756503423054,166.65018445882745L234.57437336444855,167.3966000918447L235.02118169466655,165.9586632187147L235.46799002488453,166.16539485229256L235.91479835510253,170.3407115370452L236.36160668532054,171.0796178553576L236.80841501553851,171.99580529774718L237.25522334575652,174.09868679899438L237.70203167597455,172.4066310289969L238.14884000619253,173.56884215035728L238.59564833641053,171.0339442410991L239.04245666662854,171.43629985138423L239.48926499684652,171.10716445681095L239.93607332706452,170.2527690089966L240.3828816572825,171.31642102764047L240.8296899875005,171.16336668248792L241.2764983177185,172.7386460754746L241.72330664793648,172.19064038617356L242.1701149781545,172.585610119959L242.6169233083725,175.03185085320422L243.0637316385905,174.8530537987779L243.5105399688085,173.1505165533517L243.9573482990265,172.80488772811483L244.40415662924448,173.34010952311795L244.8509649594625,175.81093713034946L245.2977732896805,175.235280790498" fill="none"></path></g><g><path style="fill: none;" stroke="rgb(0, 119, 187)" stroke-width="2px" d="M33.51062476634979,-1.5449934201472655L33.95743309656779,1.086423967455408L34.40424142678579,4.863212431069609L34.851049757003786,4.574744514069167L35.297858087221776,-1.8076970974277307L35.74466641743978,4.527526487290062L36.19147474765778,9.882433146948033L36.63828307787577,10.063748123055895L37.085091408093774,11.307538272458332L37.53189973831177,15.468238365168668L37.97870806852976,14.484542867938762L38.42551639874777,16.626378233010726L38.87232472896576,17.044134515516326L39.319133059183756,24.364907535436927L39.76594138940175,24.71014829791008L40.21274971961975,19.254661960916852L40.65955804983775,23.64272369344245L41.10636638005574,24.928633541043837L41.553174710273744,24.826949020885955L41.99998304049174,24.435420318458263L42.44679137070973,25.77595844503793L42.89359970092774,29.046853660008715L43.34040803114573,25.560699009785996L43.787216361363726,26.8894710585935L44.23402469158173,31.54954168347918L44.68083302179972,30.073992978588585L45.12764135201772,32.04970861155103L45.57444968223572,33.55341528462462L46.021258012453714,27.701391382945374L46.46806634267171,33.28392217268695L46.91487467288971,31.721738755726854L47.36168300310771,23.118205737940485L47.808491333325705,26.022072613619997L48.2552996635437,32.034066716689004L48.7021079937617,26.415726862825505L49.14891632397969,27.355365400387893L49.595724654197696,30.99345181819383L50.04253298441569,30.795454551010323L50.489341314633684,31.35638391695109L50.93614964485168,36.23127820471379L51.38295797506969,36.942019346448696L51.82976630528768,41.87000192457117L52.276574635505675,41.44502333881128L52.72338296572367,44.639027505686435L53.17019129594167,43.51672729683728L53.61699962615967,47.059562756684244L54.063807956377666,45.12909771759069L54.51061628659566,43.84256456257378L54.957424616813654,45.4229385514128L55.40423294703166,48.680973843674586L55.85104127724966,44.64980661548494L56.29784960746765,44.163238475165926L56.74465793768565,41.42016750953481L57.19146626790365,42.249620083768114L57.63827459812164,44.66439374431344L58.085082928339645,40.61072434870807L58.531891258557636,38.36418446576939L58.97869958877563,37.61113732260262L59.42550791899364,41.232988079534L59.87231624921163,44.305181084057004L60.31912457942963,48.85062356274854L60.765932909647624,51.099255750171025L61.21274123986562,50.95165758555337L61.65954957008362,55.733276145750935L62.10635790030161,51.362665804666875L62.553166230519615,49.342633913844104L62.999974560737606,49.57609060379732L63.4467828909556,49.202850940698234L63.89359122117361,48.67757703224507L64.3403995513916,54.5506361929373L64.7872078816096,47.00644687199799L65.2340162118276,50.141421004816905L65.6808245420456,52.14805235719124L66.12763287226359,55.32033908213967L66.57444120248158,55.2673084077253L67.02124953269958,56.21009679130088L67.46805786291758,57.359786224555485L67.91486619313558,59.315232359452665L68.36167452335357,57.55054104761281L68.80848285357158,60.3922718112439L69.25529118378958,63.95677471031019L69.70209951400757,60.944769438146736L70.14890784422556,61.95253358137452L70.59571617444355,64.66863082481595L71.04252450466156,62.16906209423807L71.48933283487956,69.92073805016169L71.93614116509755,70.89397492437125L72.38294949531556,68.0767574283602L72.82975782553355,66.60178459695504L73.27656615575154,68.35319972804245L73.72337448596954,61.86715354783159L74.17018281618755,63.455715606475565L74.61699114640554,61.517517772345066L75.06379947662354,61.00250290299193L75.51060780684153,62.956690542387825L75.95741613705952,62.291277327410995L76.40422446727752,60.34329845401009L76.85103279749553,66.57217684765789L77.29784112771353,70.82877016298778L77.74464945793152,74.06599093184064L78.19145778814952,67.9195902901969L78.63826611836751,66.20141896123681L79.0850744485855,67.13688780424741L79.5318827788035,67.18794196738955L79.97869110902151,70.87102783117756L80.4254994392395,69.63350798240732L80.8723077694575,71.47620827657833L81.3191160996755,69.44538229272219L81.76592442989349,69.84100041448973L82.21273276011148,72.44784240435877L82.6595410903295,75.90124214809286L83.10634942054749,72.75052069970005L83.55315775076548,76.37973155898224L83.99996608098348,70.75025271305368L84.44677441120147,75.07707290236216L84.89358274141946,74.21442523335625L85.34039107163748,71.80151279598522L85.78719940185547,73.98233160709991L86.23400773207347,74.70580959755914L86.68081606229146,74.18105776851462L87.12762439250946,71.29400200551184L87.57443272272745,70.86140082868194L88.02124105294546,69.45279621282445L88.46804938316346,68.20502282792768L88.91485771338145,74.01088300405891L89.36166604359944,76.99643183510528L89.80847437381745,80.62435454637675L90.25528270403544,76.58747347882782L90.70209103425343,78.51236430082997L91.14889936447145,76.92582359712249L91.59570769468944,72.79073323597223L92.04251602490743,74.65178111488589L92.48932435512542,71.14643959422523L92.93613268534342,70.96429561370364L93.38294101556141,72.4626335468093L93.82974934577942,75.81886277284133L94.27655767599742,71.18937178648368L94.72336600621541,76.48497762559069L95.1701743364334,78.67086384220985L95.61698266665141,73.86850770096537L96.0637909968694,78.96249762758639L96.5105993270874,78.71368292392833L96.95740765730541,77.93698409222843L97.4042159875234,74.7583228121244L97.85102431774139,80.41927965292679L98.29783264795938,76.85823965942767L98.74464097817739,71.79906058605218L99.19144930839539,69.9920513489842L99.63825763861338,73.55842880383376L100.08506596883139,83.46454138929738L100.53187429904938,81.17645043425561L100.97868262926737,83.65660686499918L101.42549095948537,87.4276050942056L101.87229928970336,88.29687338483795L102.31910761992137,89.71537934072218L102.76591595013937,86.18974836892319L103.21272428035736,77.62523826760193L103.65953261057535,79.66266718948253L104.10634094079334,80.73424860608127L104.55314927101135,81.92547907570749L104.99995760122935,76.8437728401459L105.44676593144735,74.63253230901387L105.89357426166535,73.28379882906403L106.34038259188334,70.72788700320174L106.78719092210133,72.29400646394757L107.23399925231934,79.00450058795194L107.68080758253734,76.61384410312978L108.12761591275533,78.72448834657948L108.57442424297334,83.45713930104561L109.02123257319133,83.31592364865443L109.46804090340932,82.78567889648124L109.91484923362731,86.3536993300423L110.36165756384533,84.26418613344866L110.80846589406332,86.09044654751376L111.25527422428131,85.03939350440773L111.70208255449931,79.54346324446118L112.1488908847173,72.94452104758396L112.5956992149353,79.89364889422893L113.0425075451533,85.39020119997826L113.4893158753713,86.18987054646615L113.9361242055893,84.67794683848801L114.3829325358073,80.5222343215984L114.82974086602529,79.2470293510802L115.27654919624328,84.66665033419285L115.72335752646127,85.68462512400164L116.17016585667929,80.00018343751793L116.61697418689728,82.3873240854674L117.06378251711527,84.92453986430732L117.51059084733328,87.5817554422441L117.95739917755127,87.92211788043765L118.40420750776926,87.08718931239432L118.85101583798728,85.66532341361338L119.29782416820527,84.11300797610593L119.74463249842326,85.15642560329856L120.19144082864125,84.34198482066886L120.63824915885925,86.63142178392613L121.08505748907724,81.36154870356506L121.53186581929525,81.45832461764483L121.97867414951325,82.88986922057296L122.42548247973124,81.43887964275505L122.87229080994923,83.54793227435502L123.31909914016724,92.31140903779742L123.76590747038523,94.27299966534935L124.21271580060322,91.36173377949923L124.65952413082124,94.18236459875541L125.10633246103923,93.42281741149122L125.55314079125722,87.98721505708676L125.99994912147521,87.82220361404654L126.44675745169322,87.7978966321726L126.8935657819112,88.98782770253433L127.34037411212921,89.06614238165808L127.78718244234722,93.24310593560028L128.2339907725652,93.60073979900551L128.6807991027832,87.4291941598493L129.1276074330012,87.55303265215608L129.5744157632192,89.55839436695001L130.02122409343718,87.42711900137367L130.4680324236552,86.60179636001604L130.9148407538732,81.8051240734357L131.3616490840912,85.93976521570798L131.80845741430917,90.98407009406192L132.25526574452718,97.26490510646155L132.70207407474518,94.6474143538501L133.14888240496316,100.60902240585652L133.59569073518117,99.06282898286413L134.04249906539917,103.16833992300312L134.48930739561717,102.623396945225L134.93611572583515,105.77148548015636L135.38292405605316,105.93565602449334L135.82973238627116,101.02825964782474L136.27654071648914,105.22469171107304L136.72334904670714,104.05047108238149L137.17015737692518,99.72060274869469L137.61696570714315,101.12313707599323L138.06377403736116,97.29385883346872L138.51058236757916,98.52064449046526L138.95739069779714,100.07312340627466L139.40419902801514,104.32986271801384L139.85100735823312,106.24325870544128L140.29781568845112,103.9426500579475L140.74462401866913,102.44073100978594L141.1914323488871,99.2129940384155L141.6382406791051,97.46440998766276L142.08504900932311,99.41808370008437L142.53185733954112,99.96348180519875L142.97866566975912,101.26349662397082L143.42547399997713,104.3859454922069L143.8722823301951,105.51375794512833L144.3190906604131,107.7274053543038L144.76589899063111,101.56488153092029L145.2127073208491,104.07903690153313L145.6595156510671,98.43141927282903L146.1063239812851,102.58536106366981L146.55313231150308,102.4387488058977L146.99994064172108,103.78400699316006L147.4467489719391,103.50561241784001L147.89355730215706,107.397588884292L148.3403656323751,106.77753309580922L148.7871739625931,105.62060925989525L149.23398229281108,106.97234799450541L149.68079062302908,100.14363386237393L150.1275989532471,102.22627032363343L150.57440728346506,106.16915062112271L151.02121561368307,107.48718249321938L151.46802394390104,107.70168237836384L151.91483227411905,105.56895906790004L152.36164060433705,100.40314821124626L152.80844893455503,100.82695989360144L153.25525726477304,102.71325676334871L153.70206559499107,104.0529733662096L154.14887392520905,107.51046566241126L154.59568225542705,107.71356263857248L155.04249058564506,105.42358175069702L155.48929891586303,103.07398953664722L155.93610724608104,104.29064493612346L156.38291557629904,103.5415363802476L156.82972390651702,101.19571217561194L157.27653223673502,108.89463482855687L157.72334056695303,107.59436050652259L158.170148897171,109.41442861181409L158.616957227389,110.24180394236389L159.063765557607,105.66425414128365L159.51057388782502,101.19976112693023L159.95738221804302,100.10485047492423L160.40419054826103,109.2986840835389L160.850998878479,110.4503466177301L161.297807208697,110.68975156379858L161.744615538915,106.22136445790227L162.191423869133,105.75342529157042L162.638232199351,111.94856564106317L163.08504052956897,110.70108386910917L163.53184885978698,107.60657943351758L163.97865719000498,109.85969318988074L164.42546552022296,112.58439826897008L164.872273850441,109.44815803685293L165.319082180659,112.54373819381436L165.76589051087697,114.04872291906949L166.21269884109498,110.83405638884996L166.65950717131298,110.6744158164314L167.10631550153096,108.62694483480223L167.55312383174896,107.16772942065292L167.99993216196697,108.10315234400542L168.44674049218494,110.67031796954622L168.89354882240295,110.17579557343205L169.34035715262095,107.34001458026262L169.78716548283893,112.15997142339741L170.23397381305693,114.58495862484057L170.68078214327497,114.91247443475196L171.12759047349294,114.54364967770995L171.57439880371095,111.04621901744328L172.02120713392895,109.62045258276844L172.46801546414693,106.2836491111755L172.91482379436493,109.02649062043874L173.3616321245829,113.03019278664087L173.80844045480092,113.21931140364559L174.25524878501892,114.82968466255713L174.7020571152369,113.39495868435074L175.1488654454549,108.89955629426645L175.5956737756729,107.57015763447515L176.0424821058909,107.31385056309676L176.48929043610892,106.0802202113874L176.93609876632692,109.63382353713182L177.3829070965449,109.5056550392341L177.8297154267629,112.06624551863214L178.2765237569809,106.40552048298017L178.72333208719888,108.29964507255481L179.1701404174169,108.38987093200026L179.6169487476349,109.31332598768074L180.06375707785287,113.32376159705616L180.51056540807087,117.34493227214081L180.95737373828888,116.28975990301787L181.40418206850686,112.28768500553505L181.8509903987249,110.7316328769286L182.2977987289429,109.40664437380343L182.74460705916087,112.85019151122565L183.19141538937888,110.74315273653741L183.63822371959688,107.50074848230322L184.08503204981486,106.66807826748745L184.53184038003286,104.16177825520117L184.97864871025084,110.3294453187045L185.42545704046884,111.94770840942269L185.87226537068685,111.54054782225258L186.31907370090482,106.49593321208964L186.76588203112283,113.26750211742674L187.21269036134086,110.29498543122807L187.65949869155884,112.04559565730118L188.10630702177684,108.65871391932379L188.55311535199485,108.1547644862687L188.99992368221282,109.68153071184804L189.44673201243083,111.15453736842692L189.89354034264883,109.13849435966227L190.3403486728668,114.50259253916458L190.78715700308481,112.15230114784659L191.23396533330282,112.80693156158878L191.6807736635208,113.52035472424654L192.1275819937388,115.49008463046918L192.5743903239568,116.29811641811345L193.0211986541748,116.40534305793163L193.46800698439282,117.56301196409093L193.91481531461082,113.83919137694446L194.3616236448288,111.69129323151434L194.8084319750468,110.62737290940022L195.2552403052648,112.01511008743196L195.70204863548278,110.96707521844978L196.1488569657008,116.9714276184389L196.59566529591876,116.3514586942508L197.04247362613677,119.87930397717935L197.48928195635477,117.00392516441157L197.93609028657275,114.3508875511784L198.38289861679078,113.00329420730702L198.8297069470088,115.50577485104749L199.27651527722676,112.34410405032048L199.72332360744477,115.03408470427611L200.17013193766277,118.41382000059622L200.61694026788075,113.58148379545366L201.06374859809875,117.42453979986949L201.51055692831676,117.05619807539254L201.95736525853474,112.75466035781025L202.40417358875274,107.47616416880861L202.85098191897075,111.51191625606758L203.29779024918872,112.142794132074L203.74459857940673,109.00628537145035L204.19140690962476,113.2031850175693L204.63821523984274,113.99208911109329L205.08502357006074,114.76696297352359L205.53183190027875,109.58827415433238L205.97864023049672,110.41718782882575L206.42544856071473,110.38638398607287L206.8722568909327,112.53261670572975L207.3190652211507,113.60161498608765L207.7658735513687,116.93818154959905L208.2126818815867,118.67470828525552L208.6594902118047,120.72303583897818L209.1062985420227,117.8824655124191L209.5531068722407,112.2485240831806L209.9999152024587,114.95486258884857L210.4467235326767,118.43041379712005L210.8935318628947,114.27157039106318L211.3403401931127,113.99090071183842L211.7871485233307,114.78411732569185L212.23395685354868,117.17853930904332L212.68076518376668,117.2595233232316L213.1275735139847,119.73976605568572L213.57438184420266,118.2799166728028L214.02119017442067,119.77685225960569L214.46799850463867,119.62070330299028L214.91480683485665,119.1058361796453L215.36161516507468,112.71234052577599L215.8084234952927,110.79439965562351L216.25523182551066,105.70274416876569L216.70204015572867,110.02120359461428L217.14884848594667,115.65294698876654L217.59565681616465,114.96707513909665L218.04246514638265,116.79013584122104L218.48927347660063,122.13364127957644L218.93608180681863,120.10090834671365L219.38289013703664,120.70963763156206L219.82969846725462,116.03712384754283L220.27650679747262,115.45208614577268L220.72331512769065,116.50366336033296L221.17012345790863,116.05207963722442L221.61693178812664,116.21102996736289L222.06374011834464,115.52733779305434L222.51054844856262,116.56176437349562L222.95735677878062,116.80943851958092L223.40416510899863,117.02618640194554L223.8509734392166,118.31671455524578L224.2977817694346,116.8356662483621L224.7445900996526,118.13819871323072L225.1913984298706,117.82090235783171L225.6382067600886,116.96662249630906L226.0850150903066,121.75226342780418L226.5318234205246,118.68762884980822L226.9786317507426,118.99491931024103L227.4254400809606,122.57307236389083L227.8722484111786,122.21515525539282L228.3190567413966,119.56121845503694L228.7658650716146,118.24509161871865L229.21267340183257,115.57284999554217L229.65948173205058,116.23875962533063L230.10629006226856,118.81462848182471L230.55309839248656,119.2790767414846L230.99990672270457,120.00983671827686L231.44671505292254,121.58781820210578L231.89352338314058,121.16299721248598L232.34033171335858,118.77357436622201L232.78714004357656,119.52333701491386L233.23394837379456,113.80133356492495L233.68075670401257,108.01852155604486L234.12756503423054,111.53214720256246L234.57437336444855,116.85866735322749L235.02118169466655,119.61084698785588L235.46799002488453,120.37311783335667L235.91479835510253,123.95139797387624L236.36160668532054,125.9854391580447L236.80841501553851,122.08023255261989L237.25522334575652,123.12666015658938L237.70203167597455,121.4167928132036L238.14884000619253,118.14923365945887L238.59564833641053,120.6131781407407L239.04245666662854,118.90777500341746L239.48926499684652,116.73523040247827L239.93607332706452,120.9499383001774L240.3828816572825,122.68467058581572L240.8296899875005,119.25336123955557L241.2764983177185,117.63293061613469L241.72330664793648,121.86803920672392L242.1701149781545,121.65654831393819L242.6169233083725,124.30271323253669L243.0637316385905,126.31940212419431L243.5105399688085,121.49324690775569L243.9573482990265,122.21867210970916L244.40415662924448,121.14456397841852L244.8509649594625,117.88337932293442L245.2977732896805,121.13707410113963" fill="none"></path></g></g></g></g><g opacity="0.2"><g><g><g><path style="fill: none;" stroke="rgb(204, 51, 17)" stroke-width="2px" d="M26.808499813079834,-0.9014214149457099L27.25530814329783,8.836235181762344L27.70211647351583,-35.75026404192581L28.148924803733824,-6.16118278041789L28.595733133951825,34.068078826460514L29.042541464169823,20.175103393310945L29.489349794387817,31.947452357064776L29.936158124605814,31.472634090483158L30.382966454823812,57.16527719253966L30.82977478504181,36.7008351623706L31.276583115259807,39.11123161660054L31.7233914454778,28.518355765942527L32.1701997756958,16.02297173913728L32.6170081059138,62.895471453503085L33.063816436131795,57.41648946106571L33.51062476634979,54.517327822360215L33.95743309656779,57.66372374270104L34.40424142678579,68.36026689028203L34.851049757003786,63.03501252377183L35.297858087221776,72.07968463309685L35.74466641743978,73.07502008795038L36.19147474765778,60.76140130551886L36.63828307787577,53.032580161066996L37.085091408093774,65.74512393006273L37.53189973831177,45.72247808252712L37.97870806852976,67.16224581421386L38.42551639874777,69.92488581848333L38.87232472896576,59.21147217228148L39.319133059183756,80.02012988737928L39.76594138940175,46.393727424669926L40.21274971961975,76.49613674151475L40.65955804983775,76.95679241621438L41.10636638005574,58.267035778607905L41.553174710273744,57.526555086300846L41.99998304049174,90.22838712601374L42.44679137070973,80.71920117398062L42.89359970092774,78.96244068620268L43.34040803114573,80.0072134118727L43.787216361363726,77.16721833722241L44.23402469158173,86.16020058074466L44.68083302179972,93.57813965330982L45.12764135201772,78.56723008498818L45.57444968223572,92.67429789694266L46.021258012453714,87.04820228087831L46.46806634267171,92.0187687921511L46.91487467288971,86.81115260423425L47.36168300310771,78.34228211545143L47.808491333325705,97.23673733149437L48.2552996635437,89.16147187090387L48.7021079937617,74.83535117841936L49.14891632397969,91.68993785170328L49.595724654197696,91.97064952903936L50.04253298441569,78.00072640970862L50.489341314633684,92.19540578836452L50.93614964485168,80.79971946285283L51.38295797506969,104.6082825328522L51.82976630528768,101.88556618014854L52.276574635505675,90.9443768387888L52.72338296572367,107.6956077442436L53.17019129594167,91.88866944980369L53.61699962615967,91.27167409754382L54.063807956377666,86.52476151187952L54.51061628659566,85.16591953205493L54.957424616813654,108.88502582456621L55.40423294703166,91.83983127339843L55.85104127724966,70.99017153679459L56.29784960746765,92.45876769155075L56.74465793768565,102.01770244349423L57.19146626790365,105.2593783390005L57.63827459812164,101.66325422602128L58.085082928339645,94.63537354273384L58.531891258557636,82.94371061428738L58.97869958877563,99.75187945258753L59.42550791899364,101.45582377706951L59.87231624921163,108.82792014528569L60.31912457942963,104.20751233550128L60.765932909647624,110.05812457312629L61.21274123986562,107.03332085449311L61.65954957008362,104.98537651907043L62.10635790030161,101.08992087445344L62.553166230519615,96.61847189908265L62.999974560737606,108.94905703524078L63.4467828909556,116.05225586791079L63.89359122117361,112.61963660165036L64.3403995513916,107.21146756862291L64.7872078816096,108.23587108431035L65.2340162118276,89.50427369302209L65.6808245420456,111.48286693818855L66.12763287226359,120.06221043640619L66.57444120248158,110.63534005647907L67.02124953269958,101.25960837549636L67.46805786291758,110.45680992192607L67.91486619313558,105.3859310424333L68.36167452335357,89.2448178853972L68.80848285357158,111.27701809848247L69.25529118378958,115.86838181120943L69.70209951400757,112.68474618226519L70.14890784422556,87.2847487182169L70.59571617444355,109.63324681666663L71.04252450466156,112.7988137581675L71.48933283487956,115.85539344437348L71.93614116509755,114.26467796361806L72.38294949531556,115.55745181176981L72.82975782553355,113.78942834906034L73.27656615575154,104.99704687820163L73.72337448596954,119.46675851917495L74.17018281618755,111.84527112944292L74.61699114640554,105.81639235880584L75.06379947662354,101.33403986515027L75.51060780684153,121.51439132550377L75.95741613705952,119.43872090072837L76.40422446727752,117.58306190754102L76.85103279749553,119.89937657542801L77.29784112771353,105.32585385487299L77.74464945793152,116.64387358091003L78.19145778814952,105.34588757198524L78.63826611836751,123.8340848858702L79.0850744485855,114.76415495616682L79.5318827788035,112.6559417229722L79.97869110902151,119.03888529065901L80.4254994392395,101.27218935813265L80.8723077694575,116.40052143105959L81.3191160996755,117.33724148871623L81.76592442989349,112.58397850229265L82.21273276011148,128.4342912321072L82.6595410903295,126.28368607837245L83.10634942054749,123.58967832985599L83.55315775076548,120.53144514307495L83.99996608098348,116.63172394624983L84.44677441120147,116.64701283562498L84.89358274141946,128.85238723983153L85.34039107163748,120.7265582109314L85.78719940185547,128.04394527751208L86.23400773207347,125.77304196599798L86.68081606229146,126.67139601755807L87.12762439250946,105.14221943593611L87.57443272272745,112.74549435556612L88.02124105294546,129.87056017364193L88.46804938316346,117.16673921927402L88.91485771338145,110.91226545713603L89.36166604359944,121.55179878054233L89.80847437381745,123.01854964572155L90.25528270403544,118.05579532557147L90.70209103425343,115.69835881729621L91.14889936447145,117.01166962186562L91.59570769468944,126.57983042774238L92.04251602490743,117.13877349215679L92.48932435512542,123.03240070850968L92.93613268534342,119.27032744361375L93.38294101556141,114.59398817959489L93.82974934577942,120.32609954267433L94.27655767599742,127.77976860592653L94.72336600621541,123.4744365289076L95.1701743364334,130.65237838032536L95.61698266665141,125.78545520219912L96.0637909968694,133.0139606219265L96.5105993270874,128.19508481558265L96.95740765730541,123.35629511100878L97.4042159875234,123.22626765999073L97.85102431774139,123.76272075960192L98.29783264795938,124.83325454495572L98.74464097817739,129.88455501908876L99.19144930839539,126.3385151988902L99.63825763861338,134.89121097769535L100.08506596883139,138.10985768403313L100.53187429904938,115.05790292789172L100.97868262926737,126.7887226670576L101.42549095948537,131.25144882780057L101.87229928970336,131.20704395003858L102.31910761992137,136.621227890955L102.76591595013937,123.97743619659451L103.21272428035736,125.09469934602596L103.65953261057535,136.2578411848662L104.10634094079334,128.07869275336466L104.55314927101135,133.33174426143083L104.99995760122935,124.30811234782898L105.44676593144735,130.19373566284753L105.89357426166535,124.68920828471437L106.34038259188334,128.37270432663055L106.78719092210133,125.23253898816674L107.23399925231934,138.95489233299182L107.68080758253734,127.26799819605893L108.12761591275533,131.913520043563L108.57442424297334,131.2484054281914L109.02123257319133,139.1593033461109L109.46804090340932,129.23549613393874L109.91484923362731,131.93319430402852L110.36165756384533,123.50983102672436L110.80846589406332,131.74884097179816L111.25527422428131,137.24426211488029L111.70208255449931,129.64589976942258L112.1488908847173,132.34939717341328L112.5956992149353,136.1339724243958L113.0425075451533,144.73011452990494L113.4893158753713,128.27787966321762L113.9361242055893,131.4757977029261L114.3829325358073,133.06366149428393L114.82974086602529,135.5963211359621L115.27654919624328,123.04872004027217L115.72335752646127,125.57073976520653L116.17016585667929,127.858489611565L116.61697418689728,111.44433318565686L117.06378251711527,127.6674503857051L117.51059084733328,140.92603276489203L117.95739917755127,136.8119076601682L118.40420750776926,132.8088546592904L118.85101583798728,126.00865381605503L119.29782416820527,124.51918529080115L119.74463249842326,128.81263133470085L120.19144082864125,126.2663842317755L120.63824915885925,142.92053787883108L121.08505748907724,123.35893112641828L121.53186581929525,122.33462346583664L121.97867414951325,123.61977683307725L122.42548247973124,131.60433939980425L122.87229080994923,134.95047339685638L123.31909914016724,129.2227474048673L123.76590747038523,139.6992551570838L124.21271580060322,135.70221706409495L124.65952413082124,135.95383671682066L125.10633246103923,137.48883641732968L125.55314079125722,139.98521490146243L125.99994912147521,119.54787590245843L126.44675745169322,132.58373894331848L126.8935657819112,138.2104576175705L127.34037411212921,139.18288370213776L127.78718244234722,140.40767231650065L128.2339907725652,139.08607004527948L128.6807991027832,123.7219823396368L129.1276074330012,125.13601289662586L129.5744157632192,142.0237654365167L130.02122409343718,135.178608548661L130.4680324236552,122.72947461040438L130.9148407538732,119.98135665466368L131.3616490840912,143.44963409907209L131.80845741430917,142.61118948863717L132.25526574452718,147.71832556189887L132.70207407474518,147.13279464811794L133.14888240496316,151.91814513120818L133.59569073518117,148.34579308446743L134.04249906539917,149.22392170870364L134.48930739561717,143.6138578590844L134.93611572583515,143.7210238673691L135.38292405605316,151.10589292843318L135.82973238627116,137.1014859347908L136.27654071648914,149.2958370018303L136.72334904670714,156.52556457415665L137.17015737692518,151.98279940007043L137.61696570714315,150.48805884399755L138.06377403736116,150.29306559502336L138.51058236757916,152.2170692786463L138.95739069779714,153.47344215037037L139.40419902801514,155.01829096300037L139.85100735823312,157.07697107027266L140.29781568845112,151.67850736670752L140.74462401866913,146.29300806620182L141.1914323488871,153.97749622422108L141.6382406791051,151.12925761047197L142.08504900932311,149.9009702847474L142.53185733954112,153.67478580010385L142.97866566975912,153.08520500810286L143.42547399997713,151.8761366310912L143.8722823301951,154.7368124448179L144.3190906604131,157.53511054844503L144.76589899063111,151.36522891717578L145.2127073208491,159.51701071597134L145.6595156510671,157.23623432855982L146.1063239812851,154.7913779637947L146.55313231150308,159.51806512213514L146.99994064172108,160.3890285772128L147.4467489719391,155.77655277743335L147.89355730215706,155.8959403117076L148.3403656323751,162.1726284946148L148.7871739625931,161.520334499644L149.23398229281108,158.89622908703237L149.68079062302908,158.6940706688996L150.1275989532471,156.32108166970824L150.57440728346506,160.160246403444L151.02121561368307,156.96585103887372L151.46802394390104,161.88096537144105L151.91483227411905,157.74160641011528L152.36164060433705,146.52210176906445L152.80844893455503,158.60907115383122L153.25525726477304,160.35008744048145L153.70206559499107,160.31936587907248L154.14887392520905,148.9296704976733L154.59568225542705,148.58327410908757L155.04249058564506,160.16367322347637L155.48929891586303,152.33674437823794L155.93610724608104,154.52046747102668L156.38291557629904,161.21479634990564L156.82972390651702,156.12474644925283L157.27653223673502,160.37778956605771L157.72334056695303,155.0213343626095L158.170148897171,156.56539237061665L158.616957227389,159.39769507302645L159.063765557607,158.952328287702L159.51057388782502,150.92858494647913L159.95738221804302,155.94717486575783L160.40419054826103,158.94770327884711L160.850998878479,165.40603688724582L161.297807208697,165.67241822626474L161.744615538915,160.2112652835062L162.191423869133,161.76871904254892L162.638232199351,158.59033148064728L163.08504052956897,153.99086801148022L163.53184885978698,156.7800359162799L163.97865719000498,154.82111701036922L164.42546552022296,154.50139230497243L164.872273850441,161.3384973639409L165.319082180659,162.98428160297854L165.76589051087697,159.38022547999435L166.21269884109498,146.85332908715728L166.65950717131298,165.71277322580667L167.10631550153096,160.12571460157946L167.55312383174896,158.85930090752282L167.99993216196697,156.3441827502061L168.44674049218494,158.19178991450622L168.89354882240295,155.06339079027939L169.34035715262095,162.07351431521732L169.78716548283893,162.75032325349656L170.23397381305693,161.10195092660229L170.68078214327497,164.09239058980606L171.12759047349294,155.6226334412946L171.57439880371095,150.2196166202039L172.02120713392895,156.4553746729344L172.46801546414693,150.3138421892056L172.91482379436493,166.5719465028709L173.3616321245829,160.57005094451662L173.80844045480092,152.46332104544717L174.25524878501892,165.74478883114395L174.7020571152369,156.78626649815692L175.1488654454549,155.64213995532495L175.5956737756729,157.05954940479347L176.0424821058909,159.44241147988228L176.48929043610892,157.60038787549502L176.93609876632692,158.3348057323602L177.3829070965449,158.9967571292404L177.8297154267629,155.88776866393812L178.2765237569809,155.51707300603206L178.72333208719888,140.8689989769409L179.1701404174169,164.90893230856565L179.6169487476349,159.35422478254603L180.06375707785287,160.58773621153676L180.51056540807087,165.77737956711604L180.95737373828888,162.098628352937L181.40418206850686,159.59498884453987L181.8509903987249,162.55211885847805L182.2977987289429,167.31506321058745L182.74460705916087,166.35847718225372L183.19141538937888,143.39279202133253L183.63822371959688,165.64775950029764L184.08503204981486,156.28669365050237L184.53184038003286,159.66064959201304L184.97864871025084,167.48522998715939L185.42545704046884,157.76696008559944L185.87226537068685,161.5408714560617L186.31907370090482,164.67200245080383L186.76588203112283,167.5851828987326L187.21269036134086,165.22240246830896L187.65949869155884,167.69953803995233L188.10630702177684,160.09192567678488L188.55311535199485,163.33467994223142L188.99992368221282,154.93374675968454L189.44673201243083,160.50985393807403L189.89354034264883,163.54352425399375L190.3403486728668,167.6199303745852L190.78715700308481,164.6501714504578L191.23396533330282,161.81592768215555L191.6807736635208,167.1518219654096L192.1275819937388,156.5249654797454L192.5743903239568,166.0277770672428L193.0211986541748,169.52390034109587L193.46800698439282,169.424019320852L193.91481531461082,164.5828092748567L194.3616236448288,159.91188582431553L194.8084319750468,161.00564050904947L195.2552403052648,164.92295111778893L195.70204863548278,169.1170193807502L196.1488569657008,163.01164823568453L196.59566529591876,173.71169009462724L197.04247362613677,169.92975085905422L197.48928195635477,168.636953047126L197.93609028657275,170.5507241982048L198.38289861679078,166.08059323053874L198.8297069470088,160.66746369578613L199.27651527722676,151.18657896374054L199.72332360744477,160.0046256391773L200.17013193766277,168.24361162047464L200.61694026788075,165.74502846890846L201.06374859809875,157.76834998463355L201.51055692831676,168.8830131037153L201.95736525853474,169.92006949336837L202.40417358875274,165.4759152593742L202.85098191897075,169.38991886696357L203.29779024918872,171.0438747537707L203.74459857940673,167.50406551544913L204.19140690962476,174.04284552139072L204.63821523984274,163.4280428152809L205.08502357006074,168.47495791832358L205.53183190027875,159.9244668069518L205.97864023049672,166.95474386788428L206.42544856071473,167.16442691182235L206.8722568909327,162.1755041477888L207.3190652211507,161.5954369750385L207.7658735513687,162.05223448172967L208.2126818815867,168.92286486395176L208.6594902118047,170.53521963484158L209.1062985420227,162.37215089733806L209.5531068722407,157.85802243610968L209.9999152024587,172.23480255200965L210.4467235326767,165.83237643406895L210.8935318628947,165.32146872015355L211.3403401931127,166.8607579366471L211.7871485233307,164.13252991535992L212.23395685354868,164.77605316815L212.68076518376668,156.31453955873735L213.1275735139847,156.37363423146323L213.57438184420266,169.04893829185556L214.02119017442067,166.54141665167353L214.46799850463867,166.2302949420223L214.91480683485665,167.16809336961919L215.36161516507468,159.1207696723695L215.8084234952927,167.97044853272033L216.25523182551066,164.50545420447585L216.70204015572867,171.1512803998199L217.14884848594667,168.84831355541561L217.59565681616465,165.53572884539358L218.04246514638265,161.48819907542446L218.48927347660063,175.4496150541154L218.93608180681863,168.1231696800366L219.38289013703664,171.17155375469665L219.82969846725462,170.65170755216536L220.27650679747262,171.99921466572906L220.72331512769065,170.0403676511477L221.17012345790863,163.1139735611263L221.61693178812664,168.18082652617545L222.06374011834464,165.22633252764678L222.51054844856262,173.43881457219035L222.95735677878062,169.49684523748377L223.40416510899863,162.29719220460225L223.8509734392166,173.1418075268682L224.2977817694346,171.55832910660072L224.7445900996526,170.4481113074456L225.1913984298706,165.7012466493342L225.6382067600886,167.3093358680159L226.0850150903066,172.75445704432934L226.5318234205246,168.3980102321424L226.9786317507426,172.62042764264413L227.4254400809606,163.18670362265226L227.8722484111786,173.24827858563586L228.3190567413966,168.68636635416607L228.7658650716146,162.18854044217764L229.21267340183257,166.2351835524181L229.65948173205058,166.1577326269315L230.10629006226856,165.37181661447514L230.55309839248656,166.6891293697117L230.99990672270457,171.77869999483553L231.44671505292254,160.72157390301038L231.89352338314058,174.61392627797224L232.34033171335858,171.1020827667679L232.78714004357656,168.66822577539335L233.23394837379456,152.2852701864232L233.68075670401257,168.3513287956177L234.12756503423054,169.31920176265942L234.57437336444855,168.51622354137058L235.02118169466655,163.80175790901967L235.46799002488453,166.47549230265938L235.91479835510253,176.60368656417415L236.36160668532054,172.18797733282622L236.80841501553851,173.37008646133154L237.25522334575652,177.25300905086516L237.70203167597455,169.86854737400074L238.14884000619253,175.31215883239784L238.59564833641053,167.23159737721187L239.04245666662854,172.0398332668119L239.48926499684652,170.61346136495106L239.93607332706452,168.9711758372751L240.3828816572825,172.91189905560628L240.8296899875005,170.9337851647591L241.2764983177185,175.10156516495465L241.72330664793648,171.368631852222L242.1701149781545,173.17806472063717L242.6169233083725,178.70121195307203L243.0637316385905,174.5848582171383L243.5105399688085,170.59671068521246L243.9573482990265,172.28644449025956L244.40415662924448,174.14294221562264L244.8509649594625,179.51717854119678L245.2977732896805,174.3717962807208" fill="none"></path></g><g><path style="fill: none;" stroke="rgb(0, 119, 187)" stroke-width="2px" d="M32.1701997756958,-25.028678747954487L32.6170081059138,4.933566440433879L33.063816436131795,0.11219840133920216L33.51062476634979,6.245151853098906L33.95743309656779,5.033543315783557L34.40424142678579,10.528389328230894L34.851049757003786,4.142042904288186L35.297858087221776,-11.381355987194544L35.74466641743978,14.030359763537811L36.19147474765778,17.91479207098778L36.63828307787577,10.335720565572368L37.085091408093774,13.173223407471824L37.53189973831177,21.709288325420637L37.97870806852976,13.008999647459518L38.42551639874777,19.83913124748101L38.87232472896576,17.670768935396737L39.319133059183756,35.34606702454255L39.76594138940175,25.228009440466153L40.21274971961975,11.071432466365858L40.65955804983775,30.22481628695175L41.10636638005574,26.857498311517762L41.553174710273744,24.67442224069316L41.99998304049174,23.84812726491843L42.44679137070973,27.78676563469844L42.89359970092774,33.95319648215889L43.34040803114573,20.331467034647623L43.787216361363726,28.88262913175998L44.23402469158173,38.539647620713566L44.68083302179972,27.860669921270453L45.12764135201772,35.01328206098048L45.57444968223572,35.80897529422849L46.021258012453714,18.923355530441714L46.46806634267171,41.65771835729041L46.91487467288971,29.378463630288305L47.36168300310771,10.212906211265764L47.808491333325705,30.377872927138334L48.2552996635437,41.052057871291424L48.7021079937617,17.98821708203077L49.14891632397969,28.76482320673146L49.595724654197696,36.45058144490257L50.04253298441569,30.498458650235065L50.489341314633684,32.19777796586218L50.93614964485168,43.54361963635773L51.38295797506969,38.00813105905109L51.82976630528768,49.26197579175483L52.276574635505675,40.807555460171386L52.72338296572367,49.43003375599915L53.17019129594167,41.8332769835636L53.61699962615967,52.37381594645466L54.063807956377666,42.23340015895035L54.51061628659566,41.91276483004845L54.957424616813654,47.79349953467122L55.40423294703166,53.568026782067285L55.85104127724966,38.603055773200424L56.29784960746765,43.43338626468743L56.74465793768565,37.305561061088035L57.19146626790365,43.493798945118044L57.63827459812164,48.286554235131334L58.085082928339645,34.53022025530004L58.531891258557636,34.99437464136138L58.97869958877563,36.48156660785251L59.42550791899364,46.66576421493108L59.87231624921163,48.91347059084153L60.31912457942963,55.66878728078591L60.765932909647624,54.47220403130473L61.21274123986562,50.730260338626856L61.65954957008362,62.90570398604727L62.10635790030161,44.806750293040736L62.553166230519615,46.312586077610014L62.999974560737606,49.92627563872713L63.4467828909556,48.64299144604962L63.89359122117361,47.889666169565324L64.3403995513916,63.36022493397568L64.7872078816096,35.690162890589065L65.2340162118276,54.84388220404526L65.6808245420456,55.15799938575274L66.12763287226359,60.07876916956228L66.57444120248158,55.187762396103714L67.02124953269958,57.62427936666421L67.46805786291758,59.08432037443742L67.91486619313558,62.248401561798396L68.36167452335357,54.903504079853036L68.80848285357158,64.65486795669051L69.25529118378958,69.30352905890956L69.70209951400757,56.426761529901505L70.14890784422556,63.46417979621606L70.59571617444355,68.742776689978L71.04252450466156,58.41970899837128L71.48933283487956,81.5482519840471L71.93614116509755,72.3538302356856L72.38294949531556,63.85093118434369L72.82975782553355,64.38932534984734L73.27656615575154,70.9803224246736L73.72337448596954,52.13808427751536L74.17018281618755,65.83855869444156L74.61699114640554,58.6102210211493L75.06379947662354,60.229980598962186L75.51060780684153,65.88797200148159L75.95741613705952,61.29315750494584L76.40422446727752,57.42133014390861L76.85103279749553,75.91549443812964L77.29784112771353,77.21366013598264L77.74464945793152,78.92182208511983L78.19145778814952,58.69998932773125L78.63826611836751,63.62416196779672L79.0850744485855,68.54009106876333L79.5318827788035,67.26452321210274L79.97869110902151,76.39565662685962L80.4254994392395,67.77722820925192L80.8723077694575,74.24025871783485L81.3191160996755,66.39914331693795L81.76592442989349,70.4344275971411L82.21273276011148,76.35810538916238L82.6595410903295,81.08134176369401L83.10634942054749,68.0244385271108L83.55315775076548,81.82354784790547L83.99996608098348,62.306034444160815L84.44677441120147,81.5673031863249L84.89358274141946,72.92045372984744L85.34039107163748,68.1821441399287L85.78719940185547,77.25355982377201L86.23400773207347,75.791026583248L86.68081606229146,73.39393002494785L87.12762439250946,66.96341836100768L87.57443272272745,70.21249906343704L88.02124105294546,67.33988928903821L88.46804938316346,66.33336275058252L88.91485771338145,82.71967326825572L89.36166604359944,81.47475508167476L89.80847437381745,86.06623861328393L90.25528270403544,70.53215187750446L90.70209103425343,81.39970053383314L91.14889936447145,74.54601254156124L91.59570769468944,66.58809769424673L92.04251602490743,77.44335293325653L92.48932435512542,65.88842731323415L92.93613268534342,70.6910796429213L93.38294101556141,74.71014044646776L93.82974934577942,80.85320661188938L94.27655767599742,64.24513530694729L94.72336600621541,84.42838638425124L95.1701743364334,81.94969316713863L95.61698266665141,66.66497348909854L96.0637909968694,86.60348251751797L96.5105993270874,78.34046086844123L96.95740765730541,76.77193584467857L97.4042159875234,69.99033089196847L97.85102431774139,88.91071491413037L98.29783264795938,71.51667966917898L98.74464097817739,64.2102919759889L99.19144930839539,67.2815374933823L99.63825763861338,78.90799498610815L100.08506596883139,98.32371026749293L100.53187429904938,77.74431400169291L100.97868262926737,87.37684151111452L101.42549095948537,93.08410243801525L101.87229928970336,89.60077582078648L102.31910761992137,91.84313827454855L102.76591595013937,80.90130191122466L103.21272428035736,64.77847311561996L103.65953261057535,82.71881057230351L104.10634094079334,82.34162073097946L104.55314927101135,83.71232478014682L104.99995760122935,69.22121348680358L105.44676593144735,71.31567151231584L105.89357426166535,71.26069860913938L106.34038259188334,66.89401926440829L106.78719092210133,74.64318565506628L107.23399925231934,89.07024177395847L107.68080758253734,73.02785937589663L108.12761591275533,81.89045471175406L108.57442424297334,90.55611573274483L109.02123257319133,83.10410017006767L109.46804090340932,81.99031176822147L109.91484923362731,91.70572998038388L110.36165756384533,81.12991633855829L110.80846589406332,88.8298371686114L111.25527422428131,83.46281393974871L111.70208255449931,71.2995678545414L112.1488908847173,63.0461077522682L112.5956992149353,90.31734066419638L113.0425075451533,93.63502965860228L113.4893158753713,87.38937456619792L113.9361242055893,82.41006127652085L114.3829325358073,74.28866554626397L114.82974086602529,77.33422189530293L115.27654919624328,92.7960818088619L115.72335752646127,87.21158730871485L116.17016585667929,71.47352090779242L116.61697418689728,85.96803505739157L117.06378251711527,88.73036353256717L117.51059084733328,91.56757880914924L117.95739917755127,88.432661537728L118.40420750776926,85.83479646032919L118.85101583798728,83.53252456544196L119.29782416820527,81.78453481984477L119.74463249842326,86.72155204408745L120.19144082864125,83.12032364672437L120.63824915885925,90.06557722881197L121.08505748907724,73.45673908302346L121.53186581929525,81.60348848876451L121.97867414951325,85.03718612496519L122.42548247973124,79.26239527602817L122.87229080994923,86.71151122175488L123.31909914016724,105.45662418296101L123.76590747038523,97.21538560667736L124.21271580060322,86.99483495072401L124.65952413082124,98.41331082763972L125.10633246103923,92.28349663059497L125.55314079125722,79.83381152548L125.99994912147521,87.57468644948628L126.44675745169322,87.76143615936164L126.8935657819112,90.772724308077L127.34037411212921,89.18361440034373L127.78718244234722,99.50855126651355L128.2339907725652,94.13719059411342L128.6807991027832,78.171875701115L129.1276074330012,87.73879039061632L129.5744157632192,92.56643693914091L130.02122409343718,84.23020595300919L130.4680324236552,85.36381239797959L130.9148407538732,74.61011564356517L131.3616490840912,92.14172692911639L131.80845741430917,98.55052741159281L132.25526574452718,106.686157625061L132.70207407474518,90.7211782249329L133.14888240496316,109.55143448386612L133.59569073518117,96.74353884837555L134.04249906539917,109.32660633321157L134.48930739561717,101.80598247855788L134.93611572583515,110.49361828255336L135.38292405605316,106.18191184099871L135.82973238627116,93.66716508282181L136.27654071648914,111.51933980594556L136.72334904670714,102.28914013934411L137.17015737692518,93.2258002481645L137.61696570714315,103.22693856694102L138.06377403736116,91.549941469682L138.51058236757916,100.36082297596018L138.95739069779714,102.40184177998877L139.40419902801514,110.71497168562264L139.85100735823312,109.11335268658243L140.29781568845112,100.49173708670688L140.74462401866913,100.18785243754358L141.1914323488871,94.37138858135992L141.6382406791051,94.84153391153377L142.08504900932311,102.34859426871672L142.53185733954112,100.78157896287044L142.97866566975912,103.21351885212898L143.42547399997713,109.06961879456105L143.8722823301951,107.2054766245104L144.3190906604131,111.04787646806696L144.76589899063111,92.32109579584514L145.2127073208491,107.85026995745234L145.6595156510671,89.95999282977299L146.1063239812851,108.81627374993096L146.55313231150308,102.21883041923964L146.99994064172108,105.80189427405355L147.4467489719391,103.08802055485998L147.89355730215706,113.23555358396996L148.3403656323751,105.84744941308513L148.7871739625931,103.88522350602435L149.23398229281108,108.99995609642073L149.68079062302908,89.90056266417682L150.1275989532471,105.3502250155227L150.57440728346506,112.08347106735657L151.02121561368307,109.4642303013643L151.46802394390104,108.02343220608051L151.91483227411905,102.3698741022044L152.36164060433705,92.65443192626556L152.80844893455503,101.46267741713423L153.25525726477304,105.54270206796964L153.70206559499107,106.06254827050093L154.14887392520905,112.69670410671378L154.59568225542705,108.0182081028144L155.04249058564506,101.98861041888384L155.48929891586303,99.54960121557254L155.93610724608104,106.11562803533783L156.38291557629904,102.41787354643387L156.82972390651702,97.67697586865854L157.27653223673502,120.4430188079742L157.72334056695303,105.64394902347117L158.170148897171,112.14453076975133L158.616957227389,111.48286693818855L159.063765557607,98.79792943966329L159.51057388782502,94.50302160540012L159.95738221804302,98.46248449691527L160.40419054826103,123.08943449646084L160.850998878479,112.17784041901693L161.297807208697,111.04885898290141L161.744615538915,99.51878379905773L162.191423869133,105.05151654207262L162.638232199351,121.24127616530237L163.08504052956897,108.82986121117816L163.53184885978698,102.9648227801302L163.97865719000498,113.23936382442552L164.42546552022296,116.67145588760405L164.872273850441,104.74379768867732L165.319082180659,117.18710842925657L165.76589051087697,116.30620000695214L166.21269884109498,106.01205659352065L166.65950717131298,110.4349549578036L167.10631550153096,105.55573836235848L167.55312383174896,104.97890629942893L167.99993216196697,109.50628672903417L168.44674049218494,114.52106640785733L168.89354882240295,109.43401197926077L169.34035715262095,103.08634309050849L169.78716548283893,119.38990668809957L170.23397381305693,118.22243942700524L170.68078214327497,115.40374814961908L171.12759047349294,113.99041254214706L171.57439880371095,105.80007302704335L172.02120713392895,107.48180293075612L172.46801546414693,101.27844390378611L172.91482379436493,113.14075288433351L173.3616321245829,119.03574603594404L173.80844045480092,113.50298932915271L174.25524878501892,117.24524455092443L174.7020571152369,111.24286971704115L175.1488654454549,102.1564527091401L175.5956737756729,105.57605964478815L176.0424821058909,106.9293899560292L176.48929043610892,104.2297746838234L176.93609876632692,114.96422852574842L177.3829070965449,109.31340229238761L177.8297154267629,115.90713123772919L178.2765237569809,97.91443292950224L178.72333208719888,111.14083195691676L179.1701404174169,108.52520972116847L179.6169487476349,110.69850857120143L180.06375707785287,119.33941501111929L180.51056540807087,123.3766882847678L180.95737373828888,114.70700134933338L181.40418206850686,106.2845726593108L181.8509903987249,108.39755468401896L182.2977987289429,107.41916161911566L182.74460705916087,118.01551221735892L183.19141538937888,107.58259457450511L183.63822371959688,102.63714210095199L184.08503204981486,105.41907294526375L184.53184038003286,100.4023282367717L184.97864871025084,119.58094591395952L185.42545704046884,114.37510304549997L185.87226537068685,110.92980694149749L186.31907370090482,98.92901129684515L186.76588203112283,123.42485547543241L187.21269036134086,105.83621040193006L187.65949869155884,114.67151099641086L188.10630702177684,103.5783913123577L188.55311535199485,107.39884033668599L188.99992368221282,111.97168005021702L189.44673201243083,113.36404735329522L189.89354034264883,106.11442984651532L190.3403486728668,122.54873980841799L190.78715700308481,108.62686406086964L191.23396533330282,113.78887718220199L191.6807736635208,114.59048946823316L192.1275819937388,118.44467948980316L192.5743903239568,117.51016409957991L193.0211986541748,116.56618301765889L193.46800698439282,119.29951532332993L193.91481531461082,108.25346049622472L194.3616236448288,108.46944601336915L194.8084319750468,109.03149242622901L195.2552403052648,114.09671585447957L195.70204863548278,109.39502291497652L196.1488569657008,125.97795621842249L196.59566529591876,115.42150530796857L197.04247362613677,125.1710719015723L197.48928195635477,112.69085694525995L197.93609028657275,110.37133113132867L198.38289861679078,110.98190419149992L198.8297069470088,119.25949581665833L199.27651527722676,107.60159784922999L199.72332360744477,119.06905568520963L200.17013193766277,123.48342294507638L200.61694026788075,106.33297948773993L201.06374859809875,123.18912380649313L201.51055692831676,116.50368548867712L201.95736525853474,106.30235378143674L202.40417358875274,99.55841988530615L202.85098191897075,117.56554438695602L203.29779024918872,113.08911094608361L203.74459857940673,104.3015222305149L204.19140690962476,119.49853448674773L204.63821523984274,115.17544525137929L205.08502357006074,115.92927376716905L205.53183190027875,101.82024092554568L205.97864023049672,111.66055834056579L206.42544856071473,110.34017822194357L206.8722568909327,115.75196578521499L207.3190652211507,115.20511240662448L207.7658735513687,121.94303139486611L208.2126818815867,121.27949838874022L208.6594902118047,123.79552716956205L209.1062985420227,113.62161002258054L209.5531068722407,103.79761193932289L209.9999152024587,119.01437034735059L210.4467235326767,123.64374060952733L210.8935318628947,108.03330528197795L211.3403401931127,113.5698961930013L211.7871485233307,115.97394224647196L212.23395685354868,120.77017228407051L212.68076518376668,117.38099934451405L213.1275735139847,123.46013015436691L213.57438184420266,116.09014259847832L214.02119017442067,122.02225563981003L214.46799850463867,119.38647986806721L214.91480683485665,118.33353549462775L215.36161516507468,103.12209704497198L215.8084234952927,107.91748835039478L216.25523182551066,98.06526093847897L216.70204015572867,116.49889273338712L217.14884848594667,124.10056207999494L217.59565681616465,113.93826736459172L218.04246514638265,119.52472689440765L218.48927347660063,130.14889943710946L218.93608180681863,117.0518089474195L219.38289013703664,121.62273155883452L219.82969846725462,109.02835317151406L220.27650679747262,114.57452959311743L220.72331512769065,118.08102918217341L221.17012345790863,115.37470405256158L221.61693178812664,116.44945546257063L222.06374011834464,114.50179953159147L222.51054844856262,118.11340424415744L222.95735677878062,117.1809497387089L223.40416510899863,117.35130822549243L223.8509734392166,120.25250678519618L224.2977817694346,114.61409378803648L224.7445900996526,120.09199741053362L225.1913984298706,117.34495782473317L225.6382067600886,115.6852027040251L226.0850150903066,128.93072482504678L226.5318234205246,114.09067698281413L226.9786317507426,119.45585500089017L227.4254400809606,127.94030194436553L227.8722484111786,121.67827959264578L228.3190567413966,115.58031325450315L228.7658650716146,116.2709013642412L229.21267340183257,111.56448756077748L229.65948173205058,117.23762407001331L230.10629006226856,122.67843176656575L230.55309839248656,119.97574913097435L230.99990672270457,121.10597668346529L231.44671505292254,123.95479042784919L231.89352338314058,120.52576572805627L232.34033171335858,115.18944009682613L232.78714004357656,120.64798098795163L233.23394837379456,105.21832838994155L233.68075670401257,99.34430354272479L234.12756503423054,116.80258567233882L234.57437336444855,124.84844757922507L235.02118169466655,123.7391164397986L235.46799002488453,121.51652410160783L235.91479835510253,129.3188181846556L236.36160668532054,129.03650093429738L236.80841501553851,116.22242264448269L237.25522334575652,124.6963015625436L237.70203167597455,118.85199179812494L238.14884000619253,113.24789492884176L238.59564833641053,124.30909486266341L239.04245666662854,116.34967029743255L239.48926499684652,113.47641350106959L239.93607332706452,127.27200014672609L240.3828816572825,125.28676901427323L240.8296899875005,114.10639722016538L241.2764983177185,115.20228468100336L241.72330664793648,128.22070209260775L242.1701149781545,121.3393119747596L242.6169233083725,128.27196061043446L243.0637316385905,129.34443546168072L243.5105399688085,114.25401408309779L243.9573482990265,123.3068099126394L244.40415662924448,119.53340178148258L244.8509649594625,112.9916023397083L245.2977732896805,126.01761626844736" fill="none"></path></g></g></g></g></g></g><g transform="translate(61, 176)" clip-path="url(#clip_1)"><clipPath id="clip_1"><rect width="268" height="23"></rect></clipPath><g><g><line x1="0" y1="0" x2="0" y2="5" style="visibility: inherit;" fill="rgb(0, 0, 0)" stroke="rgb(204, 204, 204)" stroke-width="1px"></line><line x1="22.34041651089986" y1="0" x2="22.34041651089986" y2="5" style="visibility: inherit;" fill="rgb(0, 0, 0)" stroke="rgb(204, 204, 204)" stroke-width="1px"></line><line x1="44.68083302179972" y1="0" x2="44.68083302179972" y2="5" style="visibility: inherit;" fill="rgb(0, 0, 0)" stroke="rgb(204, 204, 204)" stroke-width="1px"></line><line x1="67.02124953269958" y1="0" x2="67.02124953269958" y2="5" style="visibility: inherit;" fill="rgb(0, 0, 0)" stroke="rgb(204, 204, 204)" stroke-width="1px"></line><line x1="89.36166604359944" y1="0" x2="89.36166604359944" y2="5" style="visibility: inherit;" fill="rgb(0, 0, 0)" stroke="rgb(204, 204, 204)" stroke-width="1px"></line><line x1="111.70208255449931" y1="0" x2="111.70208255449931" y2="5" style="visibility: inherit;" fill="rgb(0, 0, 0)" stroke="rgb(204, 204, 204)" stroke-width="1px"></line><line x1="134.04249906539917" y1="0" x2="134.04249906539917" y2="5" style="visibility: inherit;" fill="rgb(0, 0, 0)" stroke="rgb(204, 204, 204)" stroke-width="1px"></line><line x1="156.38291557629904" y1="0" x2="156.38291557629904" y2="5" style="visibility: inherit;" fill="rgb(0, 0, 0)" stroke="rgb(204, 204, 204)" stroke-width="1px"></line><line x1="178.72333208719888" y1="0" x2="178.72333208719888" y2="5" style="visibility: inherit;" fill="rgb(0, 0, 0)" stroke="rgb(204, 204, 204)" stroke-width="1px"></line><line x1="201.06374859809875" y1="0" x2="201.06374859809875" y2="5" style="visibility: inherit;" fill="rgb(0, 0, 0)" stroke="rgb(204, 204, 204)" stroke-width="1px"></line><line x1="223.40416510899863" y1="0" x2="223.40416510899863" y2="5" style="visibility: inherit;" fill="rgb(0, 0, 0)" stroke="rgb(204, 204, 204)" stroke-width="1px"></line><line x1="245.74458161989847" y1="0" x2="245.74458161989847" y2="5" style="visibility: inherit;" fill="rgb(0, 0, 0)" stroke="rgb(204, 204, 204)" stroke-width="1px"></line><line x1="268.08499813079834" y1="0" x2="268.08499813079834" y2="5" style="visibility: inherit;" fill="rgb(0, 0, 0)" stroke="rgb(204, 204, 204)" stroke-width="1px"></line></g><g transform="translate(0, 8)"><text style="text-anchor: middle; visibility: hidden; font-family: Roboto, sans-serif; font-size: 12px; font-weight: 200;" x="0" y="0" dx="0em" dy="0.95em" fill="rgb(255, 255, 255)" stroke="none" stroke-width="1px">-50</text><text style="text-anchor: middle; visibility: inherit; font-family: Roboto, sans-serif; font-size: 12px; font-weight: 200;" x="22.34041651089986" y="0" dx="0em" dy="0.95em" fill="rgb(255, 255, 255)" stroke="none" stroke-width="1px">0</text><text style="text-anchor: middle; visibility: hidden; font-family: Roboto, sans-serif; font-size: 12px; font-weight: 200;" x="44.68083302179972" y="0" dx="0em" dy="0.95em" fill="rgb(255, 255, 255)" stroke="none" stroke-width="1px">50</text><text style="text-anchor: middle; visibility: inherit; font-family: Roboto, sans-serif; font-size: 12px; font-weight: 200;" x="67.02124953269958" y="0" dx="0em" dy="0.95em" fill="rgb(255, 255, 255)" stroke="none" stroke-width="1px">100</text><text style="text-anchor: middle; visibility: hidden; font-family: Roboto, sans-serif; font-size: 12px; font-weight: 200;" x="89.36166604359944" y="0" dx="0em" dy="0.95em" fill="rgb(255, 255, 255)" stroke="none" stroke-width="1px">150</text><text style="text-anchor: middle; visibility: inherit; font-family: Roboto, sans-serif; font-size: 12px; font-weight: 200;" x="111.70208255449931" y="0" dx="0em" dy="0.95em" fill="rgb(255, 255, 255)" stroke="none" stroke-width="1px">200</text><text style="text-anchor: middle; visibility: hidden; font-family: Roboto, sans-serif; font-size: 12px; font-weight: 200;" x="134.04249906539917" y="0" dx="0em" dy="0.95em" fill="rgb(255, 255, 255)" stroke="none" stroke-width="1px">250</text><text style="text-anchor: middle; visibility: inherit; font-family: Roboto, sans-serif; font-size: 12px; font-weight: 200;" x="156.38291557629904" y="0" dx="0em" dy="0.95em" fill="rgb(255, 255, 255)" stroke="none" stroke-width="1px">300</text><text style="text-anchor: middle; visibility: hidden; font-family: Roboto, sans-serif; font-size: 12px; font-weight: 200;" x="178.72333208719888" y="0" dx="0em" dy="0.95em" fill="rgb(255, 255, 255)" stroke="none" stroke-width="1px">350</text><text style="text-anchor: middle; visibility: inherit; font-family: Roboto, sans-serif; font-size: 12px; font-weight: 200;" x="201.06374859809875" y="0" dx="0em" dy="0.95em" fill="rgb(255, 255, 255)" stroke="none" stroke-width="1px">400</text><text style="text-anchor: middle; visibility: hidden; font-family: Roboto, sans-serif; font-size: 12px; font-weight: 200;" x="223.40416510899863" y="0" dx="0em" dy="0.95em" fill="rgb(255, 255, 255)" stroke="none" stroke-width="1px">450</text><text style="text-anchor: middle; visibility: inherit; font-family: Roboto, sans-serif; font-size: 12px; font-weight: 200;" x="245.74458161989847" y="0" dx="0em" dy="0.95em" fill="rgb(255, 255, 255)" stroke="none" stroke-width="1px">500</text><text style="text-anchor: middle; visibility: hidden; font-family: Roboto, sans-serif; font-size: 12px; font-weight: 200;" x="268.08499813079834" y="0" dx="0em" dy="0.95em" fill="rgb(255, 255, 255)" stroke="none" stroke-width="1px">550</text></g><line x1="0" y1="0" x2="268.08499813079834" y2="0" fill="rgb(0, 0, 0)" stroke="rgb(204, 204, 204)" stroke-width="1px"></line></g></g></g></g></svg>